<svg xmlns="http://www.w3.org/2000/svg" viewBox="0 0 400 300" width="406" height="306" class="illustration styles_illustrationTablet__1DWOa"><g id="_24" data-name="#24"><path d="M345.82,239H66.75a.5.5,0,0,1,0-1H345.82a.5.5,0,0,1,0,1Z" fill="#d1d3d4"></path><ellipse cx="125.97" cy="91.79" rx="71.8" ry="54.93" fill="#fff"></ellipse><path d="M126,147.22c-39.86,0-72.29-24.86-72.29-55.43S86.11,36.37,126,36.37s72.3,24.86,72.3,55.42S165.84,147.22,126,147.22Zm0-109.85c-39.31,0-71.29,24.41-71.29,54.42s32,54.43,71.29,54.43,71.3-24.41,71.3-54.43S165.29,37.37,126,37.37Z" fill="#d1d3d4"></path><path d="M205.76,68.16a4.63,4.63,0,0,0-1,.14c-3.75,1-4.8,6.14-.59,7.52a4.28,4.28,0,0,0,5.35-3.48A3.71,3.71,0,0,0,205.76,68.16Z" fill="#fff"></path><path d="M205.28,76.5a4.23,4.23,0,0,1-1.28-.2,4.07,4.07,0,0,1-3.07-4.06,4.84,4.84,0,0,1,3.69-4.43,4.45,4.45,0,0,1,1.14-.14h0A4.19,4.19,0,0,1,210,72.39a4.54,4.54,0,0,1-2.12,3.31A4.8,4.8,0,0,1,205.28,76.5Zm.48-7.83a3.39,3.39,0,0,0-.89.11,3.83,3.83,0,0,0-2.94,3.49,3.09,3.09,0,0,0,2.38,3.08A3.78,3.78,0,0,0,209,72.29a3.2,3.2,0,0,0-3.23-3.62Zm0-.5h0Z" fill="#d1d3d4"></path><path d="M293.12,170.59l20.67-5.24c-.78-1.48-13.34-39.17-24.86-46.5-9.89-8.22-29.75-9-52.24-9.9a69.28,69.28,0,0,0-21.4,2.09c-26.23,7.25-44.66,44.45-44.66,44.45l25.84,5.11s-4.11,38.42-7.71,85.26c0,0,41.18,9.27,105.52,5.66C294.28,251.52,292.51,177.25,293.12,170.59Z" fill="#05c2ec"></path><polygon points="230.22 122.02 208.84 250.41 252.29 253.55 261.71 114.67 230.22 122.02" fill="#231f20"></polygon><path d="M252.29,254.05h0l-43.44-3.14a.52.52,0,0,1-.36-.19.54.54,0,0,1-.1-.39l21.38-128.39a.48.48,0,0,1,.37-.4l31.5-7.36a.46.46,0,0,1,.43.11.49.49,0,0,1,.18.41l-9.42,138.88a.49.49,0,0,1-.17.34A.51.51,0,0,1,252.29,254.05ZM209.43,250l42.4,3.07,9.34-137.72-30.52,7.13Z" fill="#231f20"></path><path d="M233.08,103.26l-4,16.77s3.43,11.31,14.8,10.44a22.72,22.72,0,0,0,16.85-9.84l4.89-30.9s-7.41-5.65-2.16-22.88a55,55,0,0,1-29.08-.67s-8.07,18.3-8.13,27S233.08,103.26,233.08,103.26Z" fill="#fff"></path><path d="M242.69,131c-10.65,0-14-10.73-14.07-10.85a.57.57,0,0,1,0-.26l3.88-16.31c-1.65-.53-6.77-2.83-6.72-10.43.06-8.7,7.84-26.44,8.18-27.19a.49.49,0,0,1,.59-.28,55,55,0,0,0,28.8.67.52.52,0,0,1,.5.13.49.49,0,0,1,.12.5c-2.65,8.71-2,14.33-.92,17.51A10.66,10.66,0,0,0,266,89.34a.5.5,0,0,1,.19.47l-4.9,30.9a.36.36,0,0,1-.07.18A23.37,23.37,0,0,1,243.94,131C243.51,131,243.09,131,242.69,131Zm-13.07-11c.42,1.27,3.91,10.74,14.25,10a22.4,22.4,0,0,0,16.4-9.52l4.84-30.52c-1.26-1.14-6.72-7.17-2.36-22.37a56.93,56.93,0,0,1-28.06-.78c-1.18,2.73-7.87,18.61-7.92,26.4-.06,8.15,6.15,9.53,6.41,9.59a.43.43,0,0,1,.32.22.47.47,0,0,1,.07.38Z" fill="#231f20"></path><path d="M259.32,88.15a7.25,7.25,0,0,1,3-3.43,12.79,12.79,0,0,1,4.15-1.3,5.32,5.32,0,0,1,2.38,0,4.23,4.23,0,0,1,1.46.82,5.56,5.56,0,0,1,2.19,3.2,6.52,6.52,0,0,1-.37,3.14,13.18,13.18,0,0,1-1.38,3.2,8.78,8.78,0,0,1-12.22,2.65" fill="#fff"></path><path d="M263.39,98.31a9.34,9.34,0,0,1-5.09-1.5.5.5,0,0,1-.14-.69.49.49,0,0,1,.69-.15,8.28,8.28,0,0,0,11.52-2.5,12.74,12.74,0,0,0,1.33-3.07,6.22,6.22,0,0,0,.35-2.91,5.16,5.16,0,0,0-2-2.9,3.85,3.85,0,0,0-1.29-.73,4.91,4.91,0,0,0-2.15,0,12.39,12.39,0,0,0-4,1.25,6.66,6.66,0,0,0-2.83,3.19.5.5,0,0,1-.92-.4,7.73,7.73,0,0,1,3.26-3.66,13,13,0,0,1,4.31-1.36,5.57,5.57,0,0,1,2.6,0,4.69,4.69,0,0,1,1.63.91A6,6,0,0,1,273,87.3a7.06,7.06,0,0,1-.38,3.39A13.22,13.22,0,0,1,271.21,94a9.35,9.35,0,0,1-5.87,4.11A9.16,9.16,0,0,1,263.39,98.31Z" fill="#231f20"></path><path d="M231.5,111.65a14.41,14.41,0,0,0,11.8-1.82c5.58-3.86,5.6-6.63,5.6-6.63s-8.47,3-15.41.39Z" fill="#231f20"></path><path d="M235.5,112.7a14.59,14.59,0,0,1-4.16-.57.5.5,0,0,1-.33-.59l2-8.07a.55.55,0,0,1,.26-.32.51.51,0,0,1,.4,0c6.69,2.51,15-.37,15.07-.4a.51.51,0,0,1,.46.07.46.46,0,0,1,.2.41c0,.12-.09,3.06-5.81,7A14,14,0,0,1,235.5,112.7Zm-3.4-1.4A13.92,13.92,0,0,0,243,109.42c3.56-2.46,4.77-4.45,5.18-5.47-2.3.67-8.68,2.19-14.35.3Z" fill="#231f20"></path><path d="M245.13,79s-7.39,7.37-6.33,9.12,5,1.52,5,1.52" fill="#fff"></path><path d="M243.33,90.1c-1.21,0-4-.18-5-1.77-1.17-1.94,4.61-7.94,6.41-9.74a.5.5,0,0,1,.71.71c-3.86,3.85-6.73,7.74-6.26,8.51.74,1.22,3.56,1.34,4.58,1.28a.5.5,0,0,1,.53.47.49.49,0,0,1-.47.53Z" fill="#231f20"></path><ellipse cx="252.11" cy="79.71" rx="2.02" ry="1.44" transform="translate(144.82 321.38) rotate(-83.61)" fill="#231f20"></ellipse><ellipse cx="238.77" cy="77.13" rx="2.02" ry="1.44" transform="translate(72.74 265.27) rotate(-66.47)" fill="#231f20"></ellipse><path d="M250.71,98.7a.52.52,0,0,1-.35-.14c-4.44-4.26-16.44-6.88-16.56-6.91a.49.49,0,0,1-.38-.59.5.5,0,0,1,.59-.39c.5.11,12.39,2.71,17,7.17a.5.5,0,0,1-.34.86Z" fill="#231f20"></path><line x1="298.05" y1="194.39" x2="312.81" y2="205.71" fill="#fff"></line><path d="M312.8,206.21a.49.49,0,0,1-.3-.1l-14.75-11.32a.52.52,0,0,1-.1-.71.51.51,0,0,1,.7-.09l14.76,11.33a.5.5,0,0,1-.31.89Z" fill="#231f20"></path><path d="M272.17,81.87l-.13,0a.5.5,0,0,1-.35-.61c1.49-5.54,2.94-11.18,4.31-16.78l.15-.59a28.53,28.53,0,0,0,1.14-7.24c-.06-1.76-.86-2-3.38-2a.49.49,0,0,1-.36-.14.51.51,0,0,1-.15-.35,8.07,8.07,0,0,0-3.24-6.33c-3.34-2.45-8.23-3-13.43-1.37l-.26.08c-5.18,1.58-9.65,2.94-15.31,3.15-1.09,0-2.22,0-3.31,0a33.34,33.34,0,0,0-7.35.49,35.46,35.46,0,0,0-4.45,1.42,10.91,10.91,0,0,0-3.45,1.75,9.92,9.92,0,0,0-2.35,3.57A14.35,14.35,0,0,0,219,60.64c-.58,4,2,7.51,3.63,9.28,1,1.1,2.52,2.33,4,1.93a.5.5,0,1,1,.27,1c-1.56.43-3.29-.34-5-2.22s-4.52-5.73-3.87-10.1a15,15,0,0,1,1.33-4A11.14,11.14,0,0,1,222,52.6a12.06,12.06,0,0,1,3.75-1.93,34.4,34.4,0,0,1,4.58-1.45,33.82,33.82,0,0,1,7.58-.52c1.08,0,2.19,0,3.27,0,5.52-.21,9.94-1.55,15.05-3.11l.26-.08c5.5-1.67,10.71-1.11,14.31,1.52a9.15,9.15,0,0,1,3.63,6.63c1.8,0,3.82.2,3.91,3a29.27,29.27,0,0,1-1.17,7.51l-.15.59c-1.37,5.6-2.83,11.25-4.32,16.8A.5.5,0,0,1,272.17,81.87Z" fill="#231f20"></path><path d="M255.71,123.51s-5.65-5.42-7.15-12.05-.92-8.06-1.95-8.29-2.77.47-4.06,2.73-.94,10.21,1.16,13.41S255.71,123.51,255.71,123.51Z" fill="#fff"></path><path d="M255.71,124h-.05c-.41-.05-10.16-1.07-12.37-4.43s-2.59-11.47-1.17-13.93,3.3-3.25,4.59-3c.93.2,1,1,1.27,2.69.17,1.24.42,3.12,1.07,6,1.45,6.4,6.95,11.75,7,11.8a.53.53,0,0,1,.11.57A.51.51,0,0,1,255.71,124Zm-9.48-20.37c-.81,0-2.17.62-3.25,2.5s-.9,9.78,1.15,12.89c1.38,2.11,7,3.33,10.25,3.81-1.72-1.9-5.16-6.21-6.3-11.27-.66-2.9-.92-4.81-1.09-6.07-.2-1.45-.27-1.79-.49-1.84A1.14,1.14,0,0,0,246.23,103.64Z" fill="#231f20"></path><path d="M172.2,156.19S147.08,218,156.5,236.8,258.57,264,258.57,264s11.78,5,15.44,5.76,17.54,1.57,17.54,1.57-5.24,1-3.41,2.61,12,1.57,13.09-2.09-1.83-18.32-5-20.68-38.74-11-41.35-11.25-61.24-20.59-61.24-20.59l7.59-57.4" fill="#fff"></path><path d="M293.15,275.46c-2.33,0-4.48-.39-5.33-1.12a1.27,1.27,0,0,1-.53-1.32,2.53,2.53,0,0,1,1.5-1.34c-4.25-.27-12.19-.84-14.88-1.42-3.56-.76-14.38-5.3-15.46-5.75-4.78-.44-93-8.72-102.4-27.49-4-7.93-2.52-24,4.29-47.73,5-17.62,11.34-33.13,11.4-33.29a.5.5,0,0,1,.93.38c-.25.62-24.93,61.77-15.72,80.2s100.74,26.86,101.67,26.94a.33.33,0,0,1,.14,0c.12.05,11.78,5,15.36,5.73s17.32,1.55,17.46,1.56a.5.5,0,0,1,.47.46.52.52,0,0,1-.4.53c-1.51.3-3.27,1-3.39,1.44,0,.07.09.2.21.3,1,.86,5.8,1.34,9.38.27,1.14-.35,2.58-1,2.9-2.12,1.06-3.7-2-18-4.79-20.14s-37.93-10.84-41.1-11.15c-2.65-.27-59-19.79-61.36-20.62a.49.49,0,0,1-.33-.53l7.59-57.41a.5.5,0,1,1,1,.13l-7.54,57c20.37,7.06,58.74,20.23,60.75,20.43s38.17,8.78,41.6,11.35,6.22,17.47,5.15,21.22c-.35,1.23-1.59,2.2-3.57,2.8A18.14,18.14,0,0,1,293.15,275.46Z" fill="#231f20"></path><path d="M278.46,174.25s-16.87-43.2-21.61-50.31-25.54-24.47-28.13-22.74-1.83,3.66-.75,5,7.11,5.49,7.11,5.49-6.79-3.12-7,1,5,6.58,5,6.58-5.71-4.21-5.93.32a6.66,6.66,0,0,0,4,6.25s-6.08-5.16-5.5.22c1,8.84,18.76,19.4,18.76,19.4l7.54,73.47s2.7,42.61,29.89,41.32c34.89-1.66,45-52,27.56-94.57" fill="#fff"></path><path d="M280.58,260.71c-26.24,0-29.16-41.4-29.19-41.82l-7.51-73.2c-2.14-1.3-17.84-11.1-18.78-19.65-.16-1.46.14-2.4.89-2.8a2.06,2.06,0,0,1,1.46-.12,6.5,6.5,0,0,1-.85-3.62,2.52,2.52,0,0,1,1.25-2.37,2.56,2.56,0,0,1,1.41-.18,6.12,6.12,0,0,1-1.69-4.35,2.54,2.54,0,0,1,1.16-2.15,5,5,0,0,1,3.42-.27,38.17,38.17,0,0,1-4.57-3.7,3.49,3.49,0,0,1,.86-5.7c1.9-1.27,9.5,4.52,13.85,8.09,5.61,4.59,12.41,10.95,15,14.79,4.71,7.08,21,48.64,21.66,50.41a.5.5,0,0,1-.29.64.48.48,0,0,1-.64-.28c-.17-.43-16.91-43.22-21.57-50.21-2.17-3.26-8.1-9.12-14.77-14.58-8.07-6.61-12-8.44-12.66-8a3,3,0,0,0-1.51,1.95,3.09,3.09,0,0,0,.86,2.27c.85,1,5.35,4.24,7,5.4a.5.5,0,0,1,.14.66.49.49,0,0,1-.64.21c-1.1-.51-4.25-1.63-5.62-.8a1.53,1.53,0,0,0-.68,1.34c-.12,2.32,1.7,4.1,3.11,5.13a12.68,12.68,0,0,1,1.65,1,.5.5,0,0,1-.51.85,12.32,12.32,0,0,1-1.69-1c-1-.53-2.19-.89-2.85-.58-.41.19-.64.7-.68,1.51a5.63,5.63,0,0,0,1.61,4.29,16.19,16.19,0,0,1,2.21,1.55.5.5,0,0,1,.1.64.5.5,0,0,1-.62.2,7.64,7.64,0,0,1-2.22-1.53c-.91-.51-1.77-.82-2.22-.58s-.48.83-.37,1.81c.93,8.49,18.34,18.92,18.51,19a.51.51,0,0,1,.25.38l7.54,73.47c0,.44,2.94,42.15,29.36,40.87,10.95-.52,20.05-6,26.34-15.88,11.92-18.71,12.24-50.06.79-78a.51.51,0,0,1,.27-.65.52.52,0,0,1,.66.27c11.56,28.23,11.21,59.94-.88,78.92-6.46,10.15-15.85,15.8-27.13,16.34Z" fill="#231f20"></path><path d="M277.59,172.59s13.61,37,17.1,49.2" fill="#fff"></path><path d="M294.69,222.29a.49.49,0,0,1-.48-.36c-3.45-12.05-16.95-48.8-17.09-49.17a.5.5,0,1,1,.94-.34c.13.37,13.65,37.15,17.11,49.24a.51.51,0,0,1-.34.62Z" fill="#231f20"></path><path d="M203.44,137c0,1.05-2.1,20.59-2.1,20.59" fill="#231f20"></path><path d="M201.34,158.08h-.05a.5.5,0,0,1-.44-.55c.58-5.42,2.09-19.69,2.09-20.53a.5.5,0,1,1,1,0c0,1.06-2,19.84-2.09,20.64A.5.5,0,0,1,201.34,158.08Z" fill="#231f20"></path><path d="M113.48,99.94c-.58-7.47,2.36-12.38,10.65-18.32,7.47-5.26,9.6-8,9.28-12.17-.39-5-4.91-7.75-11.65-7.23-8.33.65-13.05,6.43-12.92,16l-18.23.06c-.8-18.29,11.13-31.17,30-32.63,16.78-1.3,29.81,7.91,30.88,21.75.66,8.45-3,14.77-12.37,21.53-7.57,5.64-9.24,7.86-8.91,12.15l.33,4.29L114,106.68Zm0,15.28L133,113.7l1.47,19L114.9,134.2Z"></path><path d="M215.85,80.47c2.87.58,3.18-4.33.15-3.78A1.92,1.92,0,0,0,215.85,80.47Z" fill="#fff"></path><path d="M216.31,81a2.74,2.74,0,0,1-.56-.06h0a2.29,2.29,0,0,1-1.93-2.31,2.5,2.5,0,0,1,2.09-2.45,2.18,2.18,0,0,1,2.34.88,2.74,2.74,0,0,1-.08,3A2.18,2.18,0,0,1,216.31,81ZM216,80a1.26,1.26,0,0,0,1.4-.51,1.79,1.79,0,0,0,.06-1.85,1.2,1.2,0,0,0-1.32-.44,1.53,1.53,0,0,0-1.27,1.48A1.29,1.29,0,0,0,216,80Z" fill="#d1d3d4"></path><path d="M117.92,208a8.09,8.09,0,0,0-1.16-4.82,38.46,38.46,0,0,1-2.44-3.06c-1-2-.31-4.27-.55-6.42a7.7,7.7,0,0,0-2.55-4.79c-1.27-1.14-2.9-1.92-4.12-3.11-2-1.94-2.56-4.68-3.69-7.11a18.55,18.55,0,0,0-8-8.3c2.17,3.87-2.77,8.79-.53,12.63.71,1.21,2.06,2.1,2.58,3.39,1.26,3.11-2.92,6.48-1.59,9.57.67,1.54,2.54,2.43,3.4,3.89,1.17,2,.25,4.36.35,6.59.13,3.07,2.24,5.81,4.74,7.94,1.56,1.32,3.29,2.47,5,3.66,2,1.43,2.87,2.94,4.64.64A18.26,18.26,0,0,0,117.92,208Z" fill="#d1d3d4"></path><path d="M122.42,209.45c-.65-2.38-1.11-4.95,0-7.19,1.24-2.54,4.31-4.33,4.67-7.07.24-1.8-.79-3.62-.39-5.39s2-3,3.39-4.29a17,17,0,0,0,5.23-11,27.11,27.11,0,0,1,5,7.3,8.44,8.44,0,0,1-.73,8.24,7.58,7.58,0,0,0-1.26,1.83c-.61,1.75,1.08,3.38,2,5a5.25,5.25,0,0,1-.61,5.95c-1.77,2-5.18,2.72-6,5.1a10.69,10.69,0,0,0-.31,2.71,8.29,8.29,0,0,1-6.44,6.82c-2.1.44-2-.29-2.43-1.85C123.9,213.57,123,211.54,122.42,209.45Z" fill="#d1d3d4"></path><path d="M115.76,192.37c-1.49-4.56-2.09-9.33-3.65-13.87a72.07,72.07,0,0,0-4.87-10.34l6.38,2.38c2,.77,4.26,1.67,5.23,3.44,1.68,3.09-1.34,7.05.42,10.1a24.7,24.7,0,0,0,2.53,2.81c1.88,2.34,1.59,5.56.56,8.28-.44,1.17-2.38,7.23-4.11,5.55-.69-.68-.75-3.19-1-4.11C116.77,195.19,116.22,193.79,115.76,192.37Z" fill="#d1d3d4"></path><path d="M114.84,234.57c-1.12-8.25-2.09-15.41-2.1-15.53l-1,.13c0,.12,1,7.2,2.08,15.4Z" fill="#d1d3d4"></path><path d="M123.46,234.57c1.37-10.66,2.79-18.57,3.59-19.45l-.74-.67c-1.11,1.22-2.61,10.47-3.85,20.12Z" fill="#d1d3d4"></path><path d="M122.24,234.57c-1.09-19.27-3-38.39-3-38.64l-1,.1c0,.25,2,19.32,3,38.54Z" fill="#d1d3d4"></path><path d="M104.92,223.12H133.2l-2,21.26c-.34,3.68-4.46,6.54-9.42,6.54h-5.47c-5,0-9.08-2.86-9.43-6.54Z" fill="#d1d3d4"></path></g></svg>