<svg id="_140_user_group_flatline" data-name="#140_user_group_flatline" xmlns="http://www.w3.org/2000/svg" viewBox="0 0 400 300" width="406" height="306" class="illustration styles_illustrationTablet__1DWOa"><path d="M183.85,211.7a360.76,360.76,0,0,1-57.33,8.67c-4.9.3-9.88.48-14.84.48s-9.94-.18-14.83-.48a361,361,0,0,1-57.34-8.67S38.78,187.51,54.17,171s41.75-17.95,57.51-17.95,42.13,1.47,57.52,17.95S183.85,211.7,183.85,211.7Z" fill="#05c2ec"></path><path d="M126.52,161.12v59.25c-4.9.3-9.88.48-14.84.48s-9.94-.18-14.83-.48V161.12Z" fill="#231f20"></path><ellipse cx="112.06" cy="109.33" rx="26.99" ry="30.93" fill="#fff"></ellipse><path d="M112.06,140.78c-15.16,0-27.5-14.11-27.5-31.45,0-18.42,2-31.45,27.5-31.45s27.51,13,27.51,31.45C139.57,126.67,127.23,140.78,112.06,140.78Zm0-61.87c-24.63,0-26.47,12-26.47,30.42,0,16.77,11.88,30.42,26.47,30.42s26.48-13.65,26.48-30.42C138.54,91,136.69,78.91,112.06,78.91Z" fill="#231f20"></path><path d="M129.1,120c1.32-8.24,15-10.27,14.32-.56a14.31,14.31,0,0,1-3.65,9.12c-2.34,2.38-6.12,3.51-9.17,2.14" fill="#fff"></path><path d="M133.46,131.77a7.48,7.48,0,0,1-3.07-.64.51.51,0,1,1,.42-.94,7.9,7.9,0,0,0,8.6-2,13.86,13.86,0,0,0,3.49-8.79c.34-4.82-2.94-5.72-4.36-5.89-3.65-.41-8.22,2.18-8.93,6.57a.52.52,0,1,1-1-.17c.8-5,5.94-7.89,10.06-7.42,2.77.31,5.61,2.32,5.28,7-.19,2.74-1,6.6-3.79,9.44A9.5,9.5,0,0,1,133.46,131.77Z" fill="#231f20"></path><path d="M95,120c-1.32-8.24-15-10.27-14.32-.56a14.36,14.36,0,0,0,3.64,9.12c2.35,2.38,6.12,3.51,9.18,2.14" fill="#fff"></path><path d="M90.67,131.77A9.5,9.5,0,0,1,84,128.88a14.9,14.9,0,0,1-3.8-9.44c-.32-4.67,2.52-6.68,5.28-7,4.13-.47,9.27,2.46,10.07,7.42a.53.53,0,0,1-.43.6.52.52,0,0,1-.59-.43c-.71-4.39-5.27-7-8.93-6.57-1.42.17-4.7,1.07-4.37,5.89.18,2.57.93,6.18,3.5,8.79,2.37,2.41,5.9,3.25,8.59,2a.52.52,0,0,1,.69.26.52.52,0,0,1-.26.68A7.48,7.48,0,0,1,90.67,131.77Z" fill="#231f20"></path><path d="M96.85,161.12s3.7,8.06,14.49,8.06a17.43,17.43,0,0,0,15.18-8.06l-1.45-31.65H98.29Z" fill="#fff"></path><path d="M111.34,169.7c-11,0-14.92-8.28-15-8.36a.52.52,0,0,1,0-.24l1.44-31.66a.52.52,0,0,1,.52-.49h26.78a.52.52,0,0,1,.52.49L127,161.1a.51.51,0,0,1-.06.27A18.12,18.12,0,0,1,111.34,169.7Zm-14-8.69c.49,1,4.21,7.66,14,7.66A17.1,17.1,0,0,0,126,161l-1.41-31H98.78Z" fill="#231f20"></path><path d="M98.29,143a22,22,0,0,0,8.09,7.1c5.31,2.93,13.24,6.23,19.68,5.25L125,142a60.6,60.6,0,0,1-14.2.1c-4.16-.37-8.45-.77-12.26-2.38C97.89,139.4,97.47,141.72,98.29,143Z" fill="#231f20"></path><path d="M123.61,156c-6.49,0-13.56-3.33-17.47-5.5a22,22,0,0,1-8.27-7.26,3.81,3.81,0,0,1-.06-3.8.8.8,0,0,1,.94-.24c3.8,1.6,8.21,2,12.09,2.33a59.4,59.4,0,0,0,14.09-.09.51.51,0,0,1,.38.11.48.48,0,0,1,.19.35l1.06,13.38a.5.5,0,0,1-.43.53A16.17,16.17,0,0,1,123.61,156ZM98.5,140.22a3.22,3.22,0,0,0,.21,2.53h0a21.19,21.19,0,0,0,7.92,6.92c4.21,2.33,12.19,6.06,18.9,5.26l-1-12.39a61.89,61.89,0,0,1-13.8,0C106.85,142.22,102.43,141.83,98.5,140.22Zm-.15-.07h0Z" fill="#231f20"></path><path d="M111,145.13h2.2A18.88,18.88,0,0,0,132,126.25V96.35s-6.56,1.89-20,1.89-20-1.89-20-1.89v29.9A18.89,18.89,0,0,0,111,145.13Z" fill="#fff"></path><path d="M132,96.35v29.9a18.88,18.88,0,0,1-18.88,18.88H111a18.89,18.89,0,0,1-18.88-18.88V96.35s6.57,1.89,20,1.89,20-1.89,20-1.89m0-1a.9.9,0,0,0-.28,0c-.06,0-6.62,1.85-19.7,1.85s-19.63-1.83-19.69-1.85a1,1,0,0,0-.29,0,1,1,0,0,0-1,1v29.9A19.93,19.93,0,0,0,111,146.16h2.2a19.94,19.94,0,0,0,19.92-19.91V96.35a1,1,0,0,0-1-1Z" fill="#231f20"></path><path d="M70.63,215.93a.51.51,0,0,1-.51-.47l-4.11-40a.52.52,0,0,1,.46-.57.54.54,0,0,1,.57.46l4.1,40a.51.51,0,0,1-.46.56Z" fill="#231f20"></path><path d="M152.74,215.93h-.06a.51.51,0,0,1-.46-.56l4.11-40a.52.52,0,0,1,1,.11l-4.11,40A.52.52,0,0,1,152.74,215.93Z" fill="#231f20"></path><path d="M315.91,109.38c0,17.11,42.39,84.13-27,84.13s-27-67-27-84.13,1.14-31,27-31S315.91,92.26,315.91,109.38Z" fill="#fff"></path><path d="M288.88,194c-17.38,0-29.28-4.28-35.36-12.73-10.25-14.25-2.47-37.49,3.21-54.46,2.47-7.36,4.6-13.72,4.6-17.45,0-18.45,2-31.5,27.55-31.5s27.55,13.05,27.55,31.5c0,3.73,2.12,10.09,4.59,17.45,5.68,17,13.47,40.21,3.21,54.46C318.15,189.74,306.25,194,288.88,194Zm0-115.11c-24.68,0-26.52,12.06-26.52,30.47,0,3.9-2.15,10.33-4.65,17.78-5.61,16.75-13.3,39.7-3.35,53.52,5.88,8.17,17.49,12.31,34.52,12.31s28.64-4.14,34.51-12.31c9.95-13.82,2.26-36.77-3.35-53.52-2.49-7.45-4.65-13.88-4.65-17.78C315.39,91,313.55,78.91,288.88,78.91Z" fill="#231f20"></path><path d="M360.49,211.7a360.76,360.76,0,0,1-57.33,8.67c-4.9.3-9.88.48-14.84.48s-9.94-.18-14.83-.48a361,361,0,0,1-57.34-8.67s-.73-24.19,14.66-40.67,41.75-17.95,57.51-17.95,42.14,1.47,57.52,17.95S360.49,211.7,360.49,211.7Z" fill="#05c2ec"></path><path d="M303.16,161.12v59.25c-4.9.3-9.88.48-14.84.48s-9.94-.18-14.83-.48V161.12Z" fill="#231f20"></path><path d="M247.27,215.93a.51.51,0,0,1-.51-.47l-4.11-40a.52.52,0,0,1,.46-.57.54.54,0,0,1,.57.46l4.1,40a.5.5,0,0,1-.46.56Z" fill="#231f20"></path><path d="M329.38,215.93h-.06a.51.51,0,0,1-.46-.56l4.11-40a.53.53,0,0,1,.57-.46.52.52,0,0,1,.46.57l-4.11,40A.52.52,0,0,1,329.38,215.93Z" fill="#231f20"></path><path d="M305.94,120c1.32-8.25,15-10.28,14.34-.55a14.32,14.32,0,0,1-3.65,9.13c-2.34,2.39-6.13,3.52-9.19,2.15" fill="#fff"></path><path d="M310.3,131.85a7.5,7.5,0,0,1-3.07-.63.52.52,0,1,1,.43-.94c2.69,1.21,6.23.37,8.6-2,2.57-2.62,3.33-6.24,3.51-8.81.33-4.83-2.95-5.74-4.38-5.9-3.68-.41-8.23,2.18-8.94,6.58a.52.52,0,0,1-1-.17c.8-5,5.95-7.91,10.08-7.44,2.77.32,5.61,2.33,5.29,7-.19,2.75-1,6.62-3.8,9.46A9.55,9.55,0,0,1,310.3,131.85Z" fill="#231f20"></path><path d="M271.81,120c-1.32-8.25-15-10.28-14.34-.55a14.37,14.37,0,0,0,3.65,9.13c2.35,2.39,6.13,3.52,9.19,2.15" fill="#fff"></path><path d="M267.45,131.85a9.57,9.57,0,0,1-6.7-2.89c-2.79-2.84-3.6-6.71-3.79-9.46-.33-4.67,2.51-6.68,5.28-7,4.13-.47,9.29,2.47,10.08,7.44a.5.5,0,0,1-.43.59.52.52,0,0,1-.59-.42c-.7-4.4-5.29-7-8.94-6.58-1.43.16-4.71,1.07-4.37,5.9a13.89,13.89,0,0,0,3.5,8.81,7.92,7.92,0,0,0,8.61,2,.51.51,0,0,1,.42.94A7.47,7.47,0,0,1,267.45,131.85Z" fill="#231f20"></path><path d="M273.64,161.26s3.7,8.07,14.52,8.07c8.62,0,15.19-8.07,15.19-8.07l-1.44-31.71H275.08Z" fill="#fff"></path><path d="M288.16,169.84c-11,0-15-8.29-15-8.37a.49.49,0,0,1-.05-.24l1.45-31.71a.52.52,0,0,1,.51-.49h26.83a.52.52,0,0,1,.51.49l1.45,31.71a.55.55,0,0,1-.12.35C303.48,161.92,296.93,169.84,288.16,169.84Zm-14-8.69c.49,1,4.21,7.66,14,7.66,7.64,0,13.73-6.65,14.67-7.73l-1.42-31H275.57Z" fill="#231f20"></path><path d="M275.08,143.12a22,22,0,0,0,8.11,7.1c5.31,2.94,13.26,6.25,19.71,5.26l-1.06-13.4a60.88,60.88,0,0,1-14.23.09c-4.17-.37-8.46-.77-12.28-2.38C274.68,139.5,274.26,141.82,275.08,143.12Z" fill="#231f20"></path><path d="M300.44,156.16c-6.49,0-13.58-3.33-17.49-5.5a22.07,22.07,0,0,1-8.29-7.28,3.81,3.81,0,0,1-.06-3.8.8.8,0,0,1,.94-.24c3.81,1.61,8.22,2,12.11,2.33a59.13,59.13,0,0,0,14.12-.09.53.53,0,0,1,.38.11.5.5,0,0,1,.18.35l1.06,13.4a.5.5,0,0,1-.42.54A17.62,17.62,0,0,1,300.44,156.16Zm-25.15-15.84a3.22,3.22,0,0,0,.21,2.53h0a21.34,21.34,0,0,0,7.93,6.93c4.22,2.33,12.22,6.07,18.93,5.26l-1-12.41a62,62,0,0,1-13.82,0C283.65,142.32,279.22,141.93,275.29,140.32Zm-.15-.07h0Z" fill="#231f20"></path><path d="M308.89,104.57v21.76A18.9,18.9,0,0,1,290,145.23h-2.2a18.91,18.91,0,0,1-18.92-18.9V105.69l11.9-1,1.37-9.44,3,10.68,8.44-1.12c.87-3.77,0-11.92-.12-12.29L299.52,104Z" fill="#fff"></path><path d="M290,145.75h-2.2a19.45,19.45,0,0,1-19.44-19.42V105.69a.51.51,0,0,1,.48-.51l11.49-1,1.31-9a.51.51,0,0,1,.47-.44.48.48,0,0,1,.53.38l2.87,10.25,7.63-1c.71-3.79-.11-11.33-.19-11.72a.52.52,0,0,1,1-.36l5.95,11.18,9.08.6a.51.51,0,0,1,.48.51v21.76A19.44,19.44,0,0,1,290,145.75Zm-20.6-39.58v20.16a18.41,18.41,0,0,0,18.4,18.39H290a18.41,18.41,0,0,0,18.39-18.39V105.06l-8.89-.59a.53.53,0,0,1-.42-.27l-4.85-9.12c.23,2.86.43,7.31-.15,9.86a.5.5,0,0,1-.44.39l-8.44,1.12a.52.52,0,0,1-.57-.37l-2.32-8.33-1,7a.51.51,0,0,1-.47.44Z" fill="#231f20"></path><path d="M272.7,177.06c-19.45-20.84-52.77-22.69-72.7-22.69s-53.25,1.85-72.7,22.69-18.52,51.4-18.52,51.4S155.09,240,200,240s91.22-11.57,91.22-11.57S292.14,197.9,272.7,177.06Z" fill="#05c2ec"></path><path d="M218.75,164.53l-13.28,45.89L200,229.33l-5.48-18.94-13.27-45.86C190.24,161.86,209.76,161.86,218.75,164.53Z" fill="#231f20"></path><ellipse cx="200.48" cy="99.07" rx="34.11" ry="39.1" fill="#fff"></ellipse><path d="M200.48,138.68c-19.09,0-34.63-17.77-34.63-39.61,0-23.2,2.49-39.62,34.63-39.62s34.63,16.42,34.63,39.62C235.11,120.91,219.58,138.68,200.48,138.68Zm0-78.2c-31.26,0-33.6,15.28-33.6,38.59,0,21.27,15.08,38.58,33.6,38.58s33.6-17.31,33.6-38.58C234.08,75.76,231.74,60.48,200.48,60.48Z" fill="#231f20"></path><path d="M222,112.5c1.66-10.41,18.95-13,18.09-.7-.29,4.21-1.64,8.51-4.6,11.52s-7.74,4.44-11.6,2.72" fill="#fff"></path><path d="M227.52,127.3a9.37,9.37,0,0,1-3.82-.79.53.53,0,0,1-.26-.69.52.52,0,0,1,.68-.26c3.46,1.56,8,.48,11-2.6,3.27-3.33,4.23-7.93,4.46-11.2.3-4.31-1.81-7.15-5.64-7.59-4.69-.54-10.53,2.79-11.43,8.41a.53.53,0,0,1-.6.43.5.5,0,0,1-.42-.59c1-6.2,7.44-9.85,12.56-9.27,3.44.39,7,2.88,6.56,8.68-.24,3.45-1.26,8.3-4.75,11.85A11.93,11.93,0,0,1,227.52,127.3Z" fill="#231f20"></path><path d="M179,112.5c-1.67-10.41-18.95-13-18.1-.7.3,4.21,1.65,8.51,4.61,11.52s7.74,4.44,11.59,2.72" fill="#fff"></path><path d="M173.44,127.3a11.9,11.9,0,0,1-8.35-3.62c-3.49-3.55-4.51-8.4-4.75-11.85-.41-5.8,3.12-8.29,6.55-8.68,5.14-.58,11.57,3.07,12.57,9.27a.52.52,0,1,1-1,.16c-.9-5.62-6.74-9-11.43-8.41-3.84.44-5.94,3.28-5.64,7.59.22,3.27,1.18,7.87,4.46,11.2,3,3.08,7.56,4.15,11,2.6a.51.51,0,0,1,.68.26.52.52,0,0,1-.26.69A9.37,9.37,0,0,1,173.44,127.3Z" fill="#231f20"></path><path d="M181.25,164.53s4.68,10.19,18.32,10.19,19.18-10.19,19.18-10.19l-1.82-40H183.07Z" fill="#fff"></path><path d="M199.57,175.24c-13.81,0-18.74-10.39-18.79-10.49a.51.51,0,0,1,0-.24l1.82-40a.51.51,0,0,1,.51-.49h33.86a.51.51,0,0,1,.51.49l1.82,40a.43.43,0,0,1-.06.27A22.73,22.73,0,0,1,199.57,175.24Zm-17.8-10.82c.55,1.07,5.41,9.78,17.8,9.78a21.75,21.75,0,0,0,18.66-9.8L216.43,125H183.57Z" fill="#231f20"></path><path d="M183.07,141.65c2.35,3.78,6.25,6.75,10.23,9,6.71,3.71,16.74,7.88,24.87,6.64l-1.33-16.92a76.87,76.87,0,0,1-18,.12c-5.25-.46-10.67-1-15.49-3C182.56,137.08,182,140,183.07,141.65Z" fill="#231f20"></path><path d="M215.07,158c-8.16,0-17.08-4.2-22-6.92s-8.29-5.74-10.41-9.14c-.89-1.41-.8-3.81-.08-4.65a.85.85,0,0,1,1-.26c4.83,2,10.4,2.52,15.33,2.95a75.39,75.39,0,0,0,17.84-.11.52.52,0,0,1,.38.1.54.54,0,0,1,.18.35l1.34,16.92a.49.49,0,0,1-.42.53A20.89,20.89,0,0,1,215.07,158Zm-31.78-20a4,4,0,0,0,.2,3.43h0c2,3.26,5.41,6.22,10.06,8.8,5.37,3,15.55,7.72,24.09,6.64l-1.26-15.92a77.75,77.75,0,0,1-17.54,0C193.87,140.51,188.25,140,183.29,138Zm-.09,0Z" fill="#231f20"></path><path d="M199.09,144.32h2.78a23.87,23.87,0,0,0,23.87-23.87V82.67s-8.3,2.39-25.26,2.39-25.25-2.39-25.25-2.39v37.78A23.87,23.87,0,0,0,199.09,144.32Z" fill="#fff"></path><path d="M225.74,82.67v37.78a23.87,23.87,0,0,1-23.87,23.87h-2.78a23.87,23.87,0,0,1-23.86-23.87V82.67s8.3,2.39,25.25,2.39,25.26-2.39,25.26-2.39m-50.51-1a1.07,1.07,0,0,0-.62.2,1,1,0,0,0-.41.83v37.78a24.92,24.92,0,0,0,24.89,24.9h2.78a24.93,24.93,0,0,0,24.9-24.9V82.67a1,1,0,0,0-.41-.83,1.07,1.07,0,0,0-.62-.2,1,1,0,0,0-.29,0c-.08,0-8.39,2.34-25,2.34s-24.89-2.32-25-2.34a.9.9,0,0,0-.28,0Z" fill="#231f20"></path><polygon points="200 185.28 193.57 180.32 200 175.36 206.43 180.32 200 185.28" fill="#fff"></polygon><polygon points="205.47 210.42 200 229.33 194.53 210.39 197.83 182.59 197.9 182.01 202.1 182.01 202.16 182.61 205.47 210.42" fill="#fff"></polygon><path d="M148.11,233.67a.51.51,0,0,1-.51-.46l-5.19-50.57a.51.51,0,0,1,.46-.57.53.53,0,0,1,.56.46l5.19,50.57a.52.52,0,0,1-.46.57Z" fill="#231f20"></path><path d="M251.89,233.67h0a.52.52,0,0,1-.46-.57l5.19-50.57a.53.53,0,0,1,.56-.46.51.51,0,0,1,.46.57l-5.19,50.57A.51.51,0,0,1,251.89,233.67Z" fill="#231f20"></path><path d="M108.83,228.16h0a.51.51,0,0,1-.49-.54c0-.39,2-39.55,23.26-55.33,19.31-14.36,49.32-17.64,49.62-17.67a.52.52,0,0,1,.1,1c-.29,0-30,3.28-49.11,17.47-20.82,15.49-22.83,54.16-22.84,54.55A.52.52,0,0,1,108.83,228.16Z" fill="#231f20"></path><path d="M291.23,228.16a.52.52,0,0,1-.52-.49c0-.39-2-39.06-22.85-54.55-19.08-14.19-48.81-17.44-49.11-17.47a.52.52,0,1,1,.11-1c.3,0,30.31,3.31,49.62,17.67,21.22,15.78,23.24,54.94,23.26,55.33a.53.53,0,0,1-.49.54Z" fill="#231f20"></path></svg>