<?xml version="1.0" encoding="UTF-8"?>
<svg width="821px" height="600px" viewBox="0 0 821 600" version="1.1" xmlns="http://www.w3.org/2000/svg" xmlns:xlink="http://www.w3.org/1999/xlink">
    <!-- Generator: Sketch 59.1 (86144) - https://sketch.com -->
    <title>work from caffee shop</title>
    <desc>Created with Sketch.</desc>
    <defs>
        <polygon id="path-1" points="0 0.00268244576 817.321305 0.00268244576 817.321305 399.694201 0 399.694201"></polygon>
        <polygon id="path-3" points="0.731916001 0.373075862 17.4866235 0.373075862 17.4866235 23 0.731916001 23"></polygon>
        <polygon id="path-5" points="0 582 817 582 817 0 0 0"></polygon>
    </defs>
    <g id="work-from-caffee-shop" stroke="none" stroke-width="1" fill="none" fill-rule="evenodd">
        <g id="Group-205" transform="translate(13.000000, 0.000000)">
            <g id="Group-3" transform="translate(0.000000, 152.000000)">
                <mask id="mask-2" fill="white">
                    <use xlink:href="#path-1"></use>
                </mask>
                <g id="Clip-2"></g>
                <path d="M817.321305,348.078422 C816.549845,323.111953 814.939875,296.737988 811.740446,277.075661 C803.458689,226.190454 760.864317,163.472505 734.835036,143.354951 C708.805756,123.237396 706.439314,118.503669 704.072873,80.636213 C701.706431,42.7679684 659.393665,0.00268244576 659.393665,0.00268244576 L573.151065,0.00268244576 C568.494697,14.9754635 555.743521,25.7297041 540.731603,25.7297041 C525.720475,25.7297041 512.969299,14.9754635 508.31293,0.00268244576 L420.316797,0.00268244576 C416.142394,14.9754635 404.710115,25.7297041 391.251372,25.7297041 C377.793418,25.7297041 366.361139,14.9754635 362.186736,0.00268244576 L276.188668,0.00268244576 C276.188668,0.00268244576 258.020707,16.7340434 252.104603,34.4847337 C246.188498,52.2354241 242.639625,51.0519921 196.496379,75.9024852 C150.353133,100.753767 164.550994,144.538383 144.437029,176.489467 C124.323063,208.440552 55.7001994,191.873294 24.9380355,252.225168 C9.23827271,283.025168 3.71184262,319.365996 2.06006635,347.577436 C0.699362392,349.149034 -0.000315525555,350.743511 -0.000315525555,352.356923 C-0.000315525555,378.500513 182.939035,399.694201 408.605278,399.694201 C634.272309,399.694201 817.210871,378.500513 817.210871,352.356923 C817.210871,350.914714 816.65239,349.487495 815.563038,348.078422 L817.321305,348.078422 Z" id="Fill-1" fill="#F1F0FE" mask="url(#mask-2)"></path>
            </g>
            <path d="M436.7042,459.656555 C436.7042,454.703493 438.627783,450.688738 440.999241,450.688738 C443.372217,450.688738 445.29504,454.703493 445.29504,459.656555 L445.29504,549.344237 C445.29504,554.2973 443.372217,558.312054 440.999241,558.312054 C438.627783,558.312054 436.7042,554.2973 436.7042,549.344237 L436.7042,459.656555 Z M432,453.250066 L432,555.750726 C432,561.41069 436.029352,566 440.999241,566 C445.970648,566 450,561.41069 450,555.750726 L450,453.250066 C450,447.58931 445.970648,443 440.999241,443 C436.029352,443 432,447.58931 432,453.250066 L432,453.250066 Z" id="Fill-4" fill="#5B5959"></path>
            <path d="M344.70496,459.656555 C344.70496,454.703493 346.628543,450.688738 349,450.688738 C351.372976,450.688738 353.29504,454.703493 353.29504,459.656555 L353.29504,549.344237 C353.29504,554.2973 351.372976,558.312054 349,558.312054 C346.628543,558.312054 344.70496,554.2973 344.70496,549.344237 L344.70496,459.656555 Z M340,453.250066 L340,555.750726 C340,561.41069 344.030111,566 349,566 C353.971407,566 358,561.41069 358,555.750726 L358,453.250066 C358,447.58931 353.971407,443 349,443 C344.030111,443 340,447.58931 340,453.250066 L340,453.250066 Z" id="Fill-6" fill="#5B5959"></path>
            <path d="M338.198773,449 L453.184761,449 C453.184761,449 464,448.427652 464,437.560204 L464,387.796973 C464,387.796973 458.307977,372.924681 418.461442,371.209229 C378.614114,369.492981 355.276425,378.073425 355.276425,406.67172 C355.276425,406.67172 332.221555,405.24284 332.221555,419.256212 C332.221555,433.27038 330.228356,449 338.198773,449" id="Fill-8" fill="#D68F54"></path>
            <path d="M375.203059,562.371599 C376.109165,557.366758 377.83203,548.710551 377.83203,548.710551 L377.432743,518 L396,518 L389.053191,547.393613 C388.909289,548.75662 388.529769,554.052967 390.478765,559.669414 C390.478765,559.669414 392.263303,567.832365 384.262533,567.982486 C376.259392,568.13499 374.298535,567.374852 375.203059,562.371599" id="Fill-10" fill="#FD6062"></path>
            <g id="Group-14" transform="translate(374.000000, 559.000000)">
                <mask id="mask-4" fill="white">
                    <use xlink:href="#path-3"></use>
                </mask>
                <g id="Clip-13"></g>
                <path d="M16.6044522,0.580868966 C16.6044522,0.580868966 18.0953217,10.3289034 17.2008,14.4165586 C17.2008,14.4165586 14.648713,23.0003172 8.8941913,23.0003172 C3.4394087,23.0003172 0.737843478,14.4165586 0.737843478,14.4165586 C0.737843478,14.4165586 0.569582609,3.93173103 2.02601739,0.373075862 C2.02601739,0.373075862 7.63888696,8.90845517 16.6044522,0.580868966" id="Fill-12" fill="#231B41" mask="url(#mask-4)"></path>
            </g>
            <polygon id="Fill-15" fill="#FD6062" points="334 516.904003 331.341202 523 318 516.246908 320.77604 512"></polygon>
            <path d="M324.716004,537 L313.727324,532.176091 L314.095434,529.79186 C314.095434,529.79186 305.733397,530.578722 299.9038,528.973198 C294.074202,527.370936 282.673872,522.047187 283.00715,521.23831 C283.342012,520.431063 281.548959,520.279399 294.205614,518.830432 C306.86306,517.38065 315.583707,514 315.583707,514 L331,522.561705 L324.716004,537 Z" id="Fill-17" fill="#231B41"></path>
            <path d="M399.152807,451 L400,547.721523 L371.598177,549 C371.598177,549 361,462.929293 361,461.652397 L367.782267,451 L399.152807,451 Z" id="Fill-19" fill="#001E3A"></path>
            <path d="M341.400474,416.015363 C330.755109,424.099928 315,510.489806 315,510.489806 L337.141696,519 L367.800158,450.911342 C367.800158,450.911342 422.729705,452.613065 429.968048,447.931945 C437.207181,443.250826 441.465169,427.931371 441.465169,427.931371 L447,399.418234 L393.916977,398 C393.916977,398 393.257222,405.766332 383.129389,408.354846 C370.526092,411.576669 347.303504,411.531658 341.400474,416.015363" id="Fill-21" fill="#001E3A"></path>
            <path d="M460,399 C460,399 453.258699,439.579317 442.725758,441.714612 C432.1936,443.850699 414.497978,433.599065 411.548317,424.202659 C408.599437,414.803875 409.020817,399.427217 409.020817,399.427217 L460,399 Z" id="Fill-23" fill="#001940"></path>
            <path d="M397,399 C397,399 395.227415,407.62512 378.710329,410.589359 C367.996092,412.51149 362,411.911302 362,411.911302 L362.857266,399.137623 L397,399 Z" id="Fill-25" fill="#001940"></path>
            <path d="M366.758526,292 L362.413927,292.937967 C362.413927,292.937967 350.536991,343.626916 355.005084,355.660869 C359.47477,367.694032 366.65734,355.780979 368.900151,354.691294 C371.142165,353.603189 391,297.822983 391,297.822983 L366.758526,292 Z" id="Fill-27" fill="#E69376"></path>
            <path d="M343.096586,335.543588 L360.465241,289.882234 C365.083798,274.277815 382.130357,280.039716 382.130357,280.039716 C394.916067,284.810519 392.881401,294.930067 392.881401,294.930067 L375.37267,355.86627 C375.37267,355.86627 372.055951,365.117313 359.908102,363.887396 C359.908102,363.887396 341.513804,358.36511 343.096586,335.543588" id="Fill-29" fill="#001940"></path>
            <path d="M375.790804,370 L364.013575,297.842633 C364.013575,297.842633 359.9577,286.996499 368.072599,281.574616 L399.00209,267 L420.815504,267 L458,289.031579 L433.625395,370 L375.790804,370 Z" id="Fill-31" fill="#FD6062"></path>
            <path d="M421,250 L421,274 L397,274 C397,274 402.903084,264.484589 399.950393,250 L421,250 Z" id="Fill-33" fill="#FD6062"></path>
            <path d="M408.126278,270.768392 C405.836861,272.194004 400.978532,275.235416 398.202228,273.457723 C397.456911,272.979113 397.111797,272.351183 397,271.650951 C398.630785,267.96432 400.876456,260.61149 398.741772,251 L421,251 L421,253.110127 C418.220456,259.923833 414.658329,266.680954 408.126278,270.768392" id="Fill-35" fill="#AB2A41"></path>
            <path d="M437.629385,367.898016 C437.578225,370.295828 441.220079,395.411 439.689194,395.730919 C439.678961,395.734071 398.071936,405.334775 375.88,395.730919 L375.791059,369.853773 L364.013867,297.798846 C364.013867,297.798846 359.957218,286.968898 368.072878,281.554712 L399.002273,267 L396.912556,273.276232 L401.386362,286.008355 L420.81562,267 L458,289.000301 C455.921302,295.895095 453.855984,302.791465 451.778072,309.684682 C447.943381,322.393954 444.21416,335.138684 440.264555,347.814073 C440.264555,347.814073 436.996567,361.55717 437.629385,367.898016" id="Fill-37" fill="#FFFFFF"></path>
            <polygon id="Fill-39" fill="#A4C5C7" points="404 271 404.229485 282 408 278.03743"></polygon>
            <path d="M398,289.498571 C398,290.327143 398.671429,291 399.502143,291 C400.328571,291 401,290.327143 401,289.498571 C401,288.672857 400.328571,288 399.502143,288 C398.671429,288 398,288.672857 398,289.498571" id="Fill-41" fill="#CEE9E5"></path>
            <path d="M398,319.501429 C398,320.328571 398.671429,321 399.502143,321 C400.328571,321 401,320.328571 401,319.501429 C401,318.67 400.328571,318 399.502143,318 C398.671429,318 398,318.67 398,319.501429" id="Fill-43" fill="#CEE9E5"></path>
            <path d="M398,350.498216 C398,351.327229 398.671429,352 399.502143,352 C400.328571,352 401,351.327229 401,350.498216 C401,349.672057 400.328571,349 399.502143,349 C398.671429,349 398,349.672057 398,350.498216" id="Fill-45" fill="#CEE9E5"></path>
            <path d="M398,379.499286 C398,380.326035 398.671429,381 399.502143,381 C400.328571,381 401,380.326035 401,379.499286 C401,378.671109 400.328571,378 399.502143,378 C398.671429,378 398,378.671109 398,379.499286" id="Fill-47" fill="#CEE9E5"></path>
            <line x1="403.5" y1="284" x2="403.5" y2="398" id="Stroke-49" stroke="#CEE9E5" stroke-width="1.137"></line>
            <path d="M376.928902,397.665866 C376.928902,397.665866 398.132674,407.560522 441.524086,397.449235 C442.237841,397.279528 441.937106,395.435424 441.937106,395.435424 L441.524086,391.274851 C441.336421,389.941434 440.587332,390.005564 440.587332,390.005564 C440.580265,390.007128 399.069428,399.535778 376.928902,390.005564 C376.928902,390.005564 376.03612,389.849933 376,391.184914 L376,396.372335 C376,396.372335 376,397.407786 376.928902,397.665866" id="Fill-51" fill="#471F08"></path>
            <path d="M398,401.725715 C398,402.427447 398.488426,403 399.088222,403 L406.916145,403 C407.51303,403 408,402.427447 408,401.725715 L408,395.271784 C408,394.570053 407.51303,394 406.916145,394 L399.088222,394 C398.488426,394 398,394.570053 398,395.271784 L398,401.725715 Z" id="Stroke-53" stroke="#BBBDBF" stroke-width="1.86"></path>
            <line x1="408" y1="397.5" x2="404" y2="397.5" id="Stroke-55" stroke="#BBBDBF" stroke-width="1.86"></line>
            <path d="M404,270.833126 C404,270.833126 417.719873,265.406083 420.94766,260 L425,267.871308 L410.541035,282 L404,271.10077" id="Fill-57" fill="#BEE4E5"></path>
            <path d="M426.693676,270 L409.992307,328.222544 L408,399 C408,399 445.301524,394.613629 450.59898,393.561405 L441.76353,360.459727 L458,288.361864 L426.693676,270 Z" id="Fill-59" fill="#001940"></path>
            <path d="M390.389101,271 L371.739492,279.831021 C371.739492,279.831021 361.124436,282.654812 363.291871,293.7356 L369.428652,355.117715 L365.414103,393.604823 C365.414103,393.604823 371.430081,401.898727 388.796064,395.699894 L393,326.992884 L390.389101,271 Z" id="Fill-61" fill="#001940"></path>
            <polygon id="Fill-63" fill="#00010F" points="372 314.223803 368.199082 294 368 315"></polygon>
            <path d="M392,271.098287 C392,271.098287 393.355442,266.166416 400,262 L399.131803,279 C399.131803,279 395.441327,270.303237 392,271.098287" id="Fill-65" fill="#BEE4E5"></path>
            <path d="M392,279 L392.510907,271.054355 C394.22302,270.583037 395.75287,273.270996 397,275.47316 L392,279 Z" id="Fill-67" fill="#A4C5C7"></path>
            <polygon id="Fill-69" fill="#101A26" points="405 274.893458 405.513005 274 409 279.001121 406.0012 280"></polygon>
            <path d="M397,275.384046 L395.862998,274 C395.862998,274 391.530852,276.893848 396.078861,280 C396.078861,280 396.078861,277.439773 397,275.384046" id="Fill-71" fill="#101A26"></path>
            <path d="M404.96521,276 C404.96521,276 402.036599,278.405184 396.969587,276.431981 C395.863135,277.734515 395.865512,279.390687 396.184925,281.000732 L398.809975,286 L402.476485,286 L405.956737,281.000732 C405.956737,281.000732 406.315779,279.898082 404.96521,276" id="Fill-73" fill="#101A26"></path>
            <polygon id="Fill-75" fill="#101A26" points="403.100685 286 406 363.032103 399.944291 375 395 363.093598 399.507802 286"></polygon>
            <path d="M456.885952,297 L461.326117,297.180215 C461.326117,297.180215 479.098741,345.251964 476.793715,357.819006 C474.494273,370.384474 467.296053,360.015425 464.895317,359.331552 C462.491391,358.644532 434,306.859883 434,306.859883 L456.885952,297 Z" id="Fill-77" fill="#F6A382"></path>
            <path d="M458.8405,360.64934 L432.025438,305.732892 C431.291876,289.443227 446.667336,287.208265 446.667336,287.208265 C460.219596,285.468918 463.113399,295.195969 463.113399,295.195969 L477.367501,353.921 C477.367501,353.921 480.530937,363.797362 472.708391,364.962919 C472.708391,364.962919 461.304475,365.695399 458.8405,360.64934" id="Fill-79" fill="#001940"></path>
            <path d="M475.439109,349.462589 C481.043863,366.555007 469.752762,364.960583 469.752762,364.960583 L412.027086,356.001898 C411.680319,345.387681 414.777684,342.857347 414.777684,342.857347 L462.42045,341 C462.42045,341 471.621537,341.959227 475.439109,349.462589" id="Fill-81" fill="#002952"></path>
            <path d="M384.091777,237.859645 C385.126752,253.034508 396.194415,264.346377 405.375322,263.991894 C416.110258,263.575041 423.943817,250.342334 422.908059,235.165892 C421.873866,219.99103 412.343792,208.289151 401.625297,209.033643 C390.906018,209.777347 383.056018,222.683204 384.091777,237.859645" id="Fill-83" fill="#FD6062"></path>
            <path d="M412,249 C412,249 410.855833,256.301667 404.889545,256.963427 C400.040236,257.500436 397,251.946113 397,251.946113 C397,251.946113 408.020662,253.127532 412,249" id="Fill-85" fill="#FFFFFF"></path>
            <path d="M421.301722,234.415347 C421.301722,234.415347 428.061466,232.068369 426.856013,238.532456 C425.648049,244.998097 423.144223,248.90248 420,246.056294" id="Fill-87" fill="#FD6062"></path>
            <path d="M420.762729,237.521709 C420.488079,239.351845 420.366188,241 420.366188,241 L418.298789,240.887951 C418.298789,240.887951 417.317328,232.18388 415.817435,229.218155 C414.317541,226.251634 408.57204,221.203067 404.192668,221.579742 C399.81567,221.960392 390.194191,227.203654 384.936253,224.648776 C379.678316,222.098665 379,215.4679 379,215.4679 C379,215.4679 380.729428,218.035494 384.021279,214.713754 C387.313921,211.392014 395.588266,204.221665 405.431366,206.407021 C415.272882,208.592376 422.95756,212.305095 424.755058,221.261873 C426.55493,230.216266 425.873448,235.121792 425.873448,235.121792 C425.873448,235.121792 421.410968,233.228877 420.762729,237.521709" id="Fill-89" fill="#DE9341"></path>
            <polygon id="Fill-91" fill="#00010F" points="438.71357 331.333247 438 302 448 332"></polygon>
            <path d="M323,4.56151897 L323,103.993814 C323,105.064727 322.986058,106.115107 322.962578,107.136266 C322.75052,116.671822 321.589703,124 320.197016,124 L319.799315,124 C318.508622,124 317.416779,117.691401 317.096857,109.172266 C317.069708,108.47017 317.046961,107.754648 317.032286,107.021751 C317.032286,106.972786 317.027883,106.921452 317.027883,106.867748 C317.009539,105.931093 317,104.970746 317,103.993814 L317,4 C319.021524,4.13899766 321.020301,4.32853993 323,4.56151897" id="Fill-93" fill="#F99746"></path>
            <path d="M318.501183,107 C295.028956,107 276,127.147451 276,152 L361,152 C361,127.147451 341.971832,107 318.501183,107" id="Fill-95" fill="#F99746"></path>
            <path d="M322,108.399557 C320.795218,108.137832 319.566325,108 318.317987,108 C303.230599,108 291,127.699066 291,152 L298.364804,152 C298.364804,129.710012 308.654841,111.295567 322,108.399557" id="Fill-97" fill="#FFB278"></path>
            <path d="M469,4.56151897 L469,103.993814 C469,105.064727 468.986058,106.115107 468.963312,107.136266 C468.749786,116.671822 467.588969,124 466.19775,124 L465.799315,124 C464.507888,124 463.416779,117.691401 463.096857,109.172266 C463.069708,108.47017 463.046227,107.754648 463.032286,107.021751 C463.032286,106.972786 463.027883,106.921452 463.027883,106.867748 C463.008805,105.931093 463,104.970746 463,103.993814 L463,4 C465.021524,4.13899766 467.020301,4.32853993 469,4.56151897" id="Fill-99" fill="#F99746"></path>
            <path d="M464.5,107 C441.027556,107 422,127.147451 422,152 L507,152 C507,127.147451 487.971655,107 464.5,107" id="Fill-101" fill="#F99746"></path>
            <path d="M468,108.399557 C466.795248,108.137832 465.566386,108 464.317301,108 C449.230293,108 437,127.699066 437,152 L444.364619,152 C444.364619,129.710012 454.654398,111.295567 468,108.399557" id="Fill-103" fill="#FFB278"></path>
            <path d="M622,4.56151897 L622,103.993814 C622,105.064727 621.986058,106.115107 621.963312,107.136266 C621.749786,116.671822 620.588969,124 619.19775,124 L618.799315,124 C617.507888,124 616.416779,117.691401 616.096857,109.172266 C616.069708,108.47017 616.046227,107.754648 616.032286,107.021751 C616.032286,106.972786 616.027883,106.921452 616.027883,106.867748 C616.008805,105.931093 616,104.970746 616,103.993814 L616,4 C618.021524,4.13899766 620.020301,4.32853993 622,4.56151897" id="Fill-105" fill="#F99746"></path>
            <path d="M616.5,107 C593.027556,107 574,127.147451 574,152 L659,152 C659,127.147451 639.971655,107 616.5,107" id="Fill-107" fill="#F99746"></path>
            <path d="M620,108.399557 C618.795248,108.137832 617.566386,108 616.317301,108 C601.230293,108 589,127.699066 589,152 L596.364619,152 C596.364619,129.710012 606.654398,111.295567 620,108.399557" id="Fill-109" fill="#FFB278"></path>
            <mask id="mask-6" fill="white">
                <use xlink:href="#path-5"></use>
            </mask>
            <g id="Clip-112"></g>
            <polygon id="Fill-111" fill="#F99746" mask="url(#mask-6)" points="317 8 622 8 622 0 317 0"></polygon>
            <path d="M51.4862346,437 L16.2032591,542.35703 C16.2032591,542.35703 13.5696353,555 27.2622673,555 L110.467085,555 C110.467085,555 121,554.473736 121,539.724131 C121,524.972946 118.366376,437.526264 118.366376,437.526264 L112.574616,437.526264 L112.574616,537.089653 C112.574616,537.089653 115.337788,548.678515 95.7222671,548.678515 C76.7639675,548.678515 33.6614833,549.138403 31.4741695,548.678515 C26.4707582,547.625988 21.4689269,547.625988 26.7345946,533.92891 C32.0018422,520.231832 58.8594333,437.526264 58.8594333,437.526264 L51.4862346,437 Z" id="Fill-113" fill="#5B5959" mask="url(#mask-6)"></path>
            <path d="M62.4862346,458 L27.2032591,563.35703 C27.2032591,563.35703 24.5696353,576 38.2622673,576 L121.467085,576 C121.467085,576 132,575.473736 132,560.724131 C132,545.972946 129.366376,458.526264 129.366376,458.526264 L123.574616,458.526264 L123.574616,558.089653 C123.574616,558.089653 126.337788,569.678515 106.722267,569.678515 C87.7639675,569.678515 44.6614833,570.138403 42.4741695,569.678515 C37.4707582,568.625988 32.4689269,568.625988 37.7345946,554.92891 C43.0018422,541.231832 69.8594333,458.526264 69.8594333,458.526264 L62.4862346,458 Z" id="Fill-114" fill="#5B5959" mask="url(#mask-6)"></path>
            <path d="M148.271246,458 L41.995667,458 C41.995667,458 32,457.479858 32,447.587789 L32,402.290143 C32,402.290143 37.2606281,388.752394 74.088971,387.190406 C110.917314,385.628419 132.487783,393.438358 132.487783,419.472009 C132.487783,419.472009 153.795458,418.169311 153.795458,430.926065 C153.795458,443.68282 155.636599,458 148.271246,458" id="Fill-115" fill="#D68F54" mask="url(#mask-6)"></path>
            <path d="M525.2958,549.343445 C525.2958,554.296507 523.372217,558.311262 521.000759,558.311262 C518.627783,558.311262 516.70496,554.296507 516.70496,549.343445 L516.70496,459.655763 C516.70496,454.7027 518.627783,450.687946 521.000759,450.687946 C523.372217,450.687946 525.2958,454.7027 525.2958,459.655763 L525.2958,549.343445 Z M521.000759,443 C516.029352,443 512,447.58931 512,453.249274 L512,555.749934 C512,561.41069 516.029352,566 521.000759,566 C525.970648,566 530,561.41069 530,555.749934 L530,453.249274 C530,447.58931 525.970648,443 521.000759,443 L521.000759,443 Z" id="Fill-116" fill="#5B5959" mask="url(#mask-6)"></path>
            <path d="M619.29504,549.343445 C619.29504,554.296507 617.371457,558.311262 615,558.311262 C612.627024,558.311262 610.70496,554.296507 610.70496,549.343445 L610.70496,459.655763 C610.70496,454.7027 612.627024,450.687946 615,450.687946 C617.371457,450.687946 619.29504,454.7027 619.29504,459.655763 L619.29504,549.343445 Z M615,443 C610.028593,443 606,447.58931 606,453.249274 L606,555.749934 C606,561.41069 610.028593,566 615,566 C619.969889,566 624,561.41069 624,555.749934 L624,453.249274 C624,447.58931 619.969889,443 615,443 L615,443 Z" id="Fill-117" fill="#5B5959" mask="url(#mask-6)"></path>
            <path d="M624.801227,449 L509.815239,449 C509.815239,449 499,448.427652 499,437.560204 L499,387.796973 C499,387.796973 504.692023,372.924681 544.538558,371.209229 C584.385886,369.492981 607.723575,378.073425 607.723575,406.67172 C607.723575,406.67172 630.778445,405.24284 630.778445,419.256212 C630.778445,433.27038 632.771644,449 624.801227,449" id="Fill-118" fill="#D68F54" mask="url(#mask-6)"></path>
            <path d="M587.796941,562.371599 C586.890835,557.366758 585.16797,548.710551 585.16797,548.710551 L585.567257,518 L567,518 L573.946809,547.393613 C574.090711,548.75662 574.470231,554.052967 572.521235,559.669414 C572.521235,559.669414 570.736697,567.832365 578.737467,567.982486 C586.740608,568.13499 588.701465,567.374852 587.796941,562.371599" id="Fill-119" fill="#FD6062" mask="url(#mask-6)"></path>
            <path d="M571.895087,559.211216 C571.895087,559.211216 570.38239,569.119839 571.290008,573.274834 C571.290008,573.274834 573.879458,582 579.718227,582 C585.252869,582 587.993986,573.274834 587.993986,573.274834 C587.993986,573.274834 588.16471,562.61728 586.686953,559 C586.686953,559 580.99191,567.67599 571.895087,559.211216" id="Fill-120" fill="#231B41" mask="url(#mask-6)"></path>
            <polygon id="Fill-121" fill="#FD6062" mask="url(#mask-6)" points="630 516.904003 632.658798 523 646 516.246908 643.22396 512"></polygon>
            <path d="M638.283996,537 L649.272676,532.176091 L648.904566,529.79186 C648.904566,529.79186 657.266603,530.578722 663.0962,528.973198 C668.925798,527.370936 680.326128,522.047187 679.99285,521.23831 C679.657988,520.431063 681.451041,520.279399 668.794386,518.830432 C656.13694,517.38065 647.416293,514 647.416293,514 L632,522.561705 L638.283996,537 Z" id="Fill-122" fill="#231B41" mask="url(#mask-6)"></path>
            <path d="M564.847193,451 L564,547.721523 L592.401823,549 C592.401823,549 603,462.929293 603,461.652397 L596.217733,451 L564.847193,451 Z" id="Fill-123" fill="#231B41" mask="url(#mask-6)"></path>
            <path d="M621.599526,416.015363 C632.244891,424.099928 648,510.489806 648,510.489806 L625.858304,519 L595.199842,450.911342 C595.199842,450.911342 540.270295,452.613065 533.031952,447.931945 C525.792819,443.250826 521.534831,427.931371 521.534831,427.931371 L516,399.418234 L569.083023,398 C569.083023,398 569.742778,405.766332 579.870611,408.354846 C592.473908,411.576669 615.696496,411.531658 621.599526,416.015363" id="Fill-124" fill="#231B41" mask="url(#mask-6)"></path>
            <path d="M504,399 C504,399 510.741301,439.579317 521.274242,441.714612 C531.8064,443.850699 549.502022,433.599065 552.451683,424.202659 C555.400563,414.803875 554.979183,399.427217 554.979183,399.427217 L504,399 Z" id="Fill-125" fill="#3E3F62" mask="url(#mask-6)"></path>
            <path d="M566,399 C566,399 569.911774,407.346912 586.428065,410.327622 C597.142302,412.262469 601,411.986392 601,411.986392 L600.142734,399.138423 L566,399 Z" id="Fill-126" fill="#3E3F62" mask="url(#mask-6)"></path>
            <path d="M556.216847,285 C556.216847,285 522.761309,293.954571 514.715289,306.748624 C506.668483,319.541095 491,352.377687 491,363.039134 C491,373.702164 499.469578,379.246148 508.363498,380.524129 C517.255847,381.803693 610,380.097608 610,380.097608 C610,380.097608 610,319.967616 604.495325,311.439566 C598.989864,302.909933 598.142749,289.690942 556.216847,285" id="Fill-127" fill="#3E3F62" mask="url(#mask-6)"></path>
            <path d="M556.774574,360.79473 C556.774574,360.79473 571.554543,358.775087 575.229261,361.175004 C578.901663,363.578207 586.538405,375.08007 581.115144,374.99958 C575.690339,374.917447 572.309104,371.707701 570.037698,372.254705 C567.76552,372.803351 565.65862,374.545386 556.921316,371.338925 C548.184784,368.12918 556.774574,360.79473 556.774574,360.79473" id="Fill-128" fill="#FD6062" mask="url(#mask-6)"></path>
            <path d="M549.821787,357.045356 L549,374.721216 L555.299099,375 C555.299099,375 556.394562,358.447087 555.846449,357.605267 C555.299099,356.763448 549.821787,357.045356 549.821787,357.045356" id="Fill-129" fill="#FFFFFF" mask="url(#mask-6)"></path>
            <path d="M555.991566,285.012021 C555.991566,285.012021 543.684302,299.321298 545.115861,317.840886 C546.546623,336.358912 559.711866,356 559.711866,356 C559.711866,356 579.175331,333.834756 581.178079,320.646198 C583.181625,307.45764 580.892086,289.501144 580.892086,289.501144 C580.892086,289.501144 561.715411,284.730084 555.991566,285.012021" id="Fill-130" fill="#E8E8E8" mask="url(#mask-6)"></path>
            <path d="M558.586105,360 C556.888801,358.004509 547.272584,346.026003 541.050974,334.049879 C534.827003,322.072168 533.130486,314.656941 533.130486,314.656941 L539.918126,310.379413 L532,305.247015 C532,305.247015 542.180673,290.133192 545.00925,287.851156 C547.838614,285.56912 556.323558,285 556.323558,285 C556.323558,285 545.57528,297.831788 545.857902,313.801276 C546.141311,329.770765 560,357.147257 560,357.147257 L558.586105,360 Z" id="Fill-131" fill="#231B41" mask="url(#mask-6)"></path>
            <path d="M559,359 C559,359 568.000446,352.765157 577.56298,340.861844 C588.610583,327.109533 590.782214,320.173428 590.782214,320.173428 L585.719512,316.206446 L592.750303,315.072121 C592.750303,315.072121 593.876827,310.254789 591.344301,302.604012 C588.877536,295.147284 585.156642,290.131959 585.156642,290.131959 L581.21968,289 C581.21968,289 584.031684,317.339193 579.250025,327.25941 C574.469933,337.178048 560.406002,356.164976 560.406002,356.164976 L559,359 Z" id="Fill-132" fill="#231B41" mask="url(#mask-6)"></path>
            <polygon id="Fill-133" fill="#FFFFFF" mask="url(#mask-6)" points="551 293.181266 554.31987 303 564 296.180633 555.979035 285"></polygon>
            <path d="M581.428969,289 L566,296.245596 L572.857143,306 L582,299.033677 C582,299.033677 582,292.622798 581.428969,289" id="Fill-134" fill="#FFFFFF" mask="url(#mask-6)"></path>
            <polygon id="Fill-135" fill="#231B41" mask="url(#mask-6)" points="558.112494 301.094399 560.094533 304.208387 555 345.528398 560.376556 356 567.735938 345.528398 566.038286 304.774781 570 301.662369 564.904679 296"></polygon>
            <polygon id="Fill-136" fill="#FD6062" mask="url(#mask-6)" points="557 285.011535 562.793262 270 580.172281 276.928092 581 289.629727 565.552068 298"></polygon>
            <path d="M557,281.849135 C558.493625,286.628403 563.62457,294.938611 581,288.857503 L580.173447,276.88697 L561.85003,270 L557,281.849135 Z" id="Fill-137" fill="#AB2A41" mask="url(#mask-6)"></path>
            <path d="M552.45147,247.444904 C547.81793,263.363469 554.935883,279.145606 564.501343,282.27396 C575.685912,285.932249 588.703167,275.372183 593.337492,259.454407 C597.974172,243.535842 592.579762,227.94139 581.289974,224.625351 C569.999402,221.306946 557.088936,231.525551 552.45147,247.444904" id="Fill-138" fill="#FD6062" mask="url(#mask-6)"></path>
            <path d="M577,269.805224 C577,269.805224 573.09902,276.351004 566.525773,274.746918 C561.183651,273.442539 560,267 560,267 C560,267 571.258768,272.25681 577,269.805224" id="Fill-139" fill="#FFFFFF" mask="url(#mask-6)"></path>
            <path d="M592.446937,258 C592.446937,258 599.510395,257.965767 596.041706,264.038761 C592.573767,270.114038 588.848416,273.173361 587,269.238316" id="Fill-140" fill="#FD6062" mask="url(#mask-6)"></path>
            <path d="M590.63533,259.599419 C589.668348,261.362654 588.930326,263 588.930326,263 L586.866539,262.102943 C586.866539,262.102943 589.121519,252.851304 588.702939,249.258327 C588.285933,245.666142 584.325163,238.340839 579.725507,237.073242 C575.126639,235.80802 563.369429,237.521374 558.971195,232.93158 C554.572174,228.341785 556.359006,221.321307 556.359006,221.321307 C556.359006,221.321307 557.159972,224.593624 561.75412,222.445597 C566.349055,220.300737 577.453218,216.108403 586.655676,222.057638 C595.861281,228.00529 602.295763,234.699565 600.778018,244.515724 C599.262634,254.332675 596.73542,259.081612 596.73542,259.081612 C596.73542,259.081612 592.897391,255.464091 590.63533,259.599419" id="Fill-141" fill="#231B41" mask="url(#mask-6)"></path>
            <path d="M590,371.828587 C590,373.58043 591.343885,375 592.998985,375 L658.998657,375 C660.656115,375 662,373.58043 662,371.828587 L662,327.171413 C662,325.41957 660.656115,324 658.998657,324 L592.998985,324 C591.343885,324 590,325.41957 590,327.171413 L590,371.828587 Z" id="Fill-142" fill="#9292A8" mask="url(#mask-6)"></path>
            <path d="M555,377.500773 C555,378.88107 556.159328,380 557.588011,380 L659.411989,380 C660.843822,380 662,378.88107 662,377.500773 C662,376.11893 660.843822,375 659.411989,375 L557.588011,375 C556.159328,375 555,376.11893 555,377.500773" id="Fill-143" fill="#7A7A8C" mask="url(#mask-6)"></path>
            <polygon id="Fill-144" fill="#231B41" mask="url(#mask-6)" points="550 357 525 355.461152 527.917118 324 529.583269 352.524342"></polygon>
            <path d="M623,348.5 C623,346.015136 625.014353,344 627.5,344 C629.985647,344 632,346.015136 632,348.5 C632,350.984864 629.985647,353 627.5,353 C625.014353,353 623,350.984864 623,348.5" id="Fill-145" fill="#FFFFFF" mask="url(#mask-6)"></path>
            <path d="M661,325.407042 C660.465356,324.559219 659.55685,324 658.525026,324 L592.979179,324 C591.33466,324 590,325.423467 590,327.180901 L590,371.959882 C590,373.406812 590.910066,374.61363 592.148724,375 C598.64641,370.886025 644.564952,337.640253 661,325.407042" id="Fill-146" fill="#FFFFFF" mask="url(#mask-6)"></path>
            <path d="M185.506884,180.766145 C185.506884,180.766145 178.240401,187.538665 179.019064,209.541485 L179.019064,276.108023 C179.019064,276.108023 178.588464,282.926197 173,287.438849 C173,287.438849 220.744495,301.617535 224.818459,279.977585 L224.818459,210.929206 C224.818459,210.929206 227.036091,181.877581 215.969734,176.659655 C215.969734,176.659655 196.385583,168.499414 185.506884,180.766145" id="Fill-147" fill="#370900" mask="url(#mask-6)"></path>
            <path d="M181.103063,238.288657 C171.066733,243.081195 176.433036,254.40844 176.433036,254.40844 L189.482872,301.816226 C189.482872,301.816226 201.673626,306.793397 223.066127,304.301655 C226.037747,300.054333 232.144583,282.270496 234.189943,268.690584 C235.874124,257.505364 241.108442,246.484261 235.407833,240.248595 C233.221795,237.85706 216.572822,235.471837 216.489047,235.080481 L196.83605,235 L181.103063,238.288657 Z" id="Fill-148" fill="#FD6062" mask="url(#mask-6)"></path>
            <path d="M194.630438,359.026741 C194.630438,359.026741 200.9346,411.749311 221.081379,441.628792 C221.081379,441.628792 230.476771,457.579057 241.923823,445.445624 C241.923823,445.445624 243.757989,359.589113 229.426208,333.0331 C229.426208,333.0331 188.474674,330.989048 194.630438,359.026741" id="Fill-149" fill="#FD6062" mask="url(#mask-6)"></path>
            <path d="M221.088897,439 C224.451793,438.168433 235.369112,435.304667 243,431.417794 C242.982834,428.147588 242.93914,424.39308 242.852532,420.278071 C235.195896,418.868768 224.490026,419.003469 223.569326,419.003469 C222.727431,419.003469 217.57073,421.496612 213,423.792764 C215.389139,429.182375 218.077115,434.340735 221.088897,439" id="Fill-150" fill="#AB2A41" mask="url(#mask-6)"></path>
            <path d="M225.081292,236.004074 C231.834548,235.807908 240.80482,242.727965 240.993094,249.736537 C241.181367,256.743514 237.500428,274.821149 232.35864,270.276621 C222.247199,261.340672 217.203005,255.96762 217.0155,248.960642 C216.824921,241.95207 218.328036,236.197051 225.081292,236.004074" id="Fill-151" fill="#00B8C4" mask="url(#mask-6)"></path>
            <path d="M238.324512,247.555741 L225.626746,247 L219,258.200734 C219,258.200734 232.276449,297.636242 238.747243,304.887671 C245.643144,312.615224 246.326322,303.939365 247,300.503233 C247,300.503233 243.126548,254.068547 238.324512,247.555741" id="Fill-152" fill="#00B8C4" mask="url(#mask-6)"></path>
            <path d="M237.24142,562.675658 C243.75514,563.787255 250,561.684921 250,561.684921 L243.242799,557.698122 C243.242799,557.698122 235.905842,548.75605 234.536954,545.594599 C233.6582,543.572574 233.41234,537 233.41234,537 L225.061803,537.496958 L225.041975,542.186656 L222.002028,549.313438 C222.002028,549.313438 221.720478,552.674468 227.792442,553.349536 C227.792442,553.349536 232.064865,558.142601 237.24142,562.675658" id="Fill-153" fill="#FD6062" mask="url(#mask-6)"></path>
            <path d="M243.367822,558.28078 C241.124461,559.317881 237.172662,559.590472 235.123171,557.547604 C226.866651,549.318949 225.208067,543 225.208067,543 C221.026789,547.547105 222.132248,551.344584 222.132248,551.344584 L222.442441,552.911985 L224.822699,565 L225.680478,564.951435 L228.052823,554.962686 L233.845207,564.224525 C247.696284,566.022217 251,562.306202 251,562.306202 L243.367822,558.28078 Z" id="Fill-154" fill="#08101B" mask="url(#mask-6)"></path>
            <path d="M242,444.077229 C242,444.077229 233.650674,532.448079 232.760244,536.573893 C232.760244,536.573893 224.541545,539.423064 224.621931,537.067034 C224.8028,531.375793 216.69927,494.959902 216.167485,486.034446 C215.32034,471.702588 217.604386,462.16327 224.908693,442.896847 C224.908693,442.896847 238.344754,433.388302 242,444.077229" id="Fill-155" fill="#FD6062" mask="url(#mask-6)"></path>
            <path d="M215.286265,300.956594 C216.879756,300.668122 223.444024,304.06102 223.444024,304.06102 C223.444024,304.06102 231.647581,330.43995 231.996602,334.451679 C232.351939,338.460245 204.789596,359.225444 174,347.402859 C174,347.402859 188.255349,310.254066 189.1279,301.105967 C189.999662,291.955496 215.286265,300.956594 215.286265,300.956594" id="Fill-156" fill="#E69575" mask="url(#mask-6)"></path>
            <path d="M223.330908,304.918574 C223.330908,304.918574 231.176336,328.42176 231.865845,334.942095 C234.315768,358.031466 202.785911,367.713979 172.059825,356.034218 C172.059825,356.034218 170.066947,324.290628 189.085569,302 C189.085569,302 194.135925,306.563688 223.330908,304.918574" id="Fill-157" fill="#101A26" mask="url(#mask-6)"></path>
            <path d="M194.273731,373.21228 L172,361 C172,361 175.613814,431.381545 178.435353,451.152342 C178.435353,451.152342 190.897678,454.61801 194.756363,452.05643 C206.308718,424.99061 213,366.223353 213,366.223353 L194.273731,373.21228 Z" id="Fill-158" fill="#FD6062" mask="url(#mask-6)"></path>
            <path d="M175,420.066139 C175.436201,426.066154 175.885668,431.793933 176.335135,436.822125 C181.035808,437.221557 192.306032,438.383401 198.227132,439 C199.575532,434.541872 200.834976,429.743256 202,424.808912 C201.825207,421.965575 201.480304,419.876894 200.833415,420.005643 C199.580214,420.255385 185.272189,419.862933 175,420.066139" id="Fill-159" fill="#AB2A41" mask="url(#mask-6)"></path>
            <path d="M180.814048,339.788783 C180.814048,339.788783 170.081163,342.867125 172.302772,362.637429 C174.47124,381.948032 210.192267,383.780529 213.52587,363.983416 C217.117246,342.67946 199.731432,331.391155 180.814048,339.788783" id="Fill-160" fill="#F6A382" mask="url(#mask-6)"></path>
            <path d="M195.091469,236 L216.869215,236 C215.878296,232.969039 213.827455,225.129924 217,219.795279 L195,206 C195,206 198.911521,229.153323 195.091469,236" id="Fill-161" fill="#FD6062" mask="url(#mask-6)"></path>
            <path d="M215.303804,227.871019 C215.244429,225.445717 215.644006,222.820777 217,220.433157 L195,206 C195,206 196.594296,215.869579 196.757176,224.874067 C204.700573,227.397985 207.969401,228.376925 215.303804,227.871019" id="Fill-162" fill="#AB2A41" mask="url(#mask-6)"></path>
            <path d="M220.456423,221.315888 L221.759354,218.158971 L225.021429,208.839677 C225.482916,207.355879 225.767091,205.311219 225.325393,203.817955 C224.794247,202.023355 224.460203,199.123599 225.284231,195.943806 C227.491931,187.425179 223.887895,182.735556 223.887895,182.735556 C219.245315,174.563228 207.345588,174 207.345588,174 C192.593819,174.016566 190.668712,188.152485 190.668712,188.152485 C187.823005,197.479667 194.979623,205.702481 194.994663,205.718258 C195.902598,206.756364 195.921595,208.371109 196.320549,209.622201 C196.745624,210.959276 197.428752,212.219834 198.296317,213.31947 C200.243588,215.787734 202.827285,218.188158 205.530509,219.735063 C208.09125,221.204662 213.117743,222.828873 216.73761,222.975596 C218.236851,223.035547 219.710761,223.127841 220.456423,221.315888" id="Fill-163" fill="#FD6062" mask="url(#mask-6)"></path>
            <path d="M196.121482,212.140055 C196.383768,205.532345 196.532187,205.943966 196.532187,205.943966 C196.787405,204.021256 200.393442,208.374003 200.445271,205.857595 C200.673004,194.331454 205.173482,189.067541 206.868916,188.264531 C211.473838,186.089714 216.234246,185.63452 219.948652,186.483438 C225.769198,187.811671 225.148036,195.54764 225.148036,195.54764 C231.607019,167.439977 199.221009,174.895825 199.221009,174.895825 C183.468156,178.156884 184.32569,192.754225 184.32569,192.754225 C181.621162,208.24328 196.649195,218 196.649195,218 L196.121482,212.140055 Z" id="Fill-164" fill="#370900" mask="url(#mask-6)"></path>
            <path d="M197.160889,209.441051 C196.603896,209.8419 195.906851,210.051988 195.04963,209.988962 C192.73473,209.833496 190.92209,207.464538 191.00258,204.709017 C191.082266,201.960219 193.018861,199.852611 195.33215,200.008077 C196.429233,200.083709 197.411214,200.65683 198.134016,201.528277 C199.189243,202.803935 199.112777,205.04852 198.777938,206.577124 C198.509101,207.799839 197.991548,208.836836 197.160889,209.441051" id="Fill-165" fill="#FD6062" mask="url(#mask-6)"></path>
            <path d="M196.997912,209.576321 C196.957922,210.403508 196.251722,211.042815 195.420449,210.997757 C194.595131,210.9578 193.958701,210.252183 194.002094,209.424996 C194.042934,208.596958 194.746581,207.961052 195.575302,208.001859 C196.403172,208.043516 197.041305,208.749133 196.997912,209.576321" id="Fill-166" fill="#FFFFFF" mask="url(#mask-6)"></path>
            <path d="M238.908556,264.246897 C237.433134,258.207671 228.980834,246.483304 228.980834,246.483304 C228.966624,246.486465 228.953994,246.492788 228.939784,246.49595 C226.655998,240.425899 224.601142,236.444799 224.601142,236.444799 L220.435383,235.803017 C212.320164,246.798662 196.245243,235 196.245243,235 L191.702931,236.089922 C191.702931,236.089922 202.637951,260.850672 181,269.282353 L189.055223,301.486819 C189.055223,301.486819 206.640301,309.327302 223.484115,304.340059 C227.772235,303.070723 231.409084,287.569172 233.63919,274.602341 C236.99106,271.236941 239.519566,266.752374 238.908556,264.246897" id="Fill-167" fill="#00B8C4" mask="url(#mask-6)"></path>
            <path d="M189.313886,564.399422 C195.69509,565.871773 202,564.173687 202,564.173687 L195.544075,559.869892 C195.544075,559.869892 188.806567,550.67258 187.636195,547.495895 C186.886622,545.459598 187.028986,539 187.028986,539 L178.730195,539 L178.436029,543.599828 L175.009072,550.408572 C175.009072,550.408572 174.531642,553.689923 180.503845,554.707681 C180.503845,554.707681 184.453065,559.655093 189.313886,564.399422" id="Fill-168" fill="#FD6062" mask="url(#mask-6)"></path>
            <path d="M195.680878,559.565133 C193.399196,560.484446 189.472379,560.525004 187.562736,558.333285 C179.880209,549.500403 178.608684,543 178.608684,543 C174.199943,547.35799 175.069604,551.270638 175.069604,551.270638 L175.283095,552.880231 L176.922735,565.271873 L177.775913,565.271873 L180.715335,555.290645 L185.902689,565.021368 C199.508799,567.671153 203,564.100464 203,564.100464 L195.680878,559.565133 Z" id="Fill-169" fill="#08101B" mask="url(#mask-6)"></path>
            <path d="M176.635089,443 L195,448.375879 C195,448.375879 187.930442,533.814066 187.115091,537.953115 C187.115091,537.953115 178.685022,540.308607 178.706541,537.953115 C178.751971,532.267634 171.34368,497.334663 170.696501,488.430273 C169.579877,473.126665 165.372414,462.862549 176.635089,443" id="Fill-170" fill="#FD6062" mask="url(#mask-6)"></path>
            <path d="M171.586433,346.357689 L168,431.233584 C168,431.233584 214.034957,441.935671 246,427.259676 C246,427.259676 243.077108,354.649789 230.079735,330.568905 C230.079735,330.568905 174.194104,325.377736 171.586433,346.357689" id="Fill-171" fill="#101A26" mask="url(#mask-6)"></path>
            <path d="M191.946129,243.436845 C195.783819,249.204794 193.623715,254.803426 190.516386,260.894113 C187.359489,267.085756 168.117595,271.369587 169.031516,264.445027 C170.826827,250.830409 172.182217,243.079925 178.090943,239.608504 C183.102789,236.664115 188.109988,237.660946 191.946129,243.436845" id="Fill-172" fill="#FD6062" mask="url(#mask-6)"></path>
            <path d="M193,254.953091 L183.065952,247 L171.007892,252.104588 C171.007892,252.104588 158.151738,291.723318 159.044427,301.391349 C159.996734,311.692819 165.740788,305.105999 168.338569,302.736322 C168.338569,302.736322 192.984897,263.038707 193,254.953091" id="Fill-173" fill="#FD6062" mask="url(#mask-6)"></path>
            <path d="M167.360791,360.090673 C167.360791,360.090673 167.431313,361.07525 167.641346,362.488041 C167.46964,361.568321 167.357725,360.728304 167.360791,360.090673 M179,358.910743 L171.265568,347.408377 L168.5589,345.461883 C169.262587,338.872246 174.691254,306.418696 173.311474,294.908517 C172.867645,291.190564 160.269489,300.085363 160.269489,300.085363 C160.269489,300.085363 158.757097,327.706669 162.89797,346.167497 L162.241041,352.995464 C162.241041,352.995464 161.838605,360.143809 163.921306,366.853001 C163.921306,366.853001 164.466319,368.558039 165.34018,368.769802 C165.34018,368.769802 166.752155,369.473853 165.798573,366.100503 L165.793974,366.076279 C166.444004,368.28142 167.40525,370.514692 168.743637,371.273442 C168.743637,371.273442 169.271786,371.764168 169.839795,370.601428 C169.839795,370.601428 169.612131,369.916131 169.296315,368.887795 C169.825231,370.122424 170.489825,371.195301 171.323058,371.854811 C171.323058,371.854811 173.002557,372.582305 172.980327,370.780372 C172.980327,370.780372 170.4354,364.313416 170.201604,359.170171 C170.201604,359.170171 172.181588,368.100133 174.014396,370.575642 C174.014396,370.575642 175.880931,370.971036 175.481561,368.851068 C175.481561,368.851068 174.055789,363.499968 172.972662,357.339326 C172.972662,357.339326 176.393749,360.290714 179,358.910743" id="Fill-174" fill="#FD6062" mask="url(#mask-6)"></path>
            <polygon id="Fill-175" fill="#D2E7F1" mask="url(#mask-6)" points="230.268256 276.567682 213 315 248.151322 311.719649 264 274"></polygon>
            <path d="M258.748331,285 C258.023103,286.272395 257.24656,287.425044 256.077471,288.306434 C254.7476,289.310013 252.52402,289.00617 251.666232,289.737675 C250.174724,291.012513 251.233489,294.459872 254.381564,297.915377 C257.111435,300.916338 259.124629,296.991628 260.04656,294.576359 C261.403798,291.007626 261.314,289.415096 259.764336,286.537138 L258.748331,285 Z" id="Fill-176" fill="#FD6062" mask="url(#mask-6)"></path>
            <path d="M158,299.163535 L173.842282,301 L174.647808,292.863483 C174.647808,292.863483 193.443955,260.049661 194.785961,250.86261 C196.127968,241.675559 190.720471,236 190.720471,236 C190.720471,236 178.675439,237.475 175.989815,239.837519 C173.304996,242.200039 169.009126,256.112129 166.055261,265.037728 C163.101397,273.963326 159.342812,289.713457 159.342812,289.713457 L158,299.163535 Z" id="Fill-177" fill="#00B8C4" mask="url(#mask-6)"></path>
            <path d="M238.365818,263.491069 C238.993352,265.940764 236.396465,270.325487 232.953948,273.615961 C232.872061,274.072671 232.78612,274.53479 232.699368,275 L241,273.986893 C241,273.986893 241,267.546589 239.648451,263.940823 C238.296903,260.333512 231,249 231,249 L232.640182,252.502987 C235.015729,256.124209 237.602076,260.512795 238.365818,263.491069" id="Fill-178" fill="#0C9093" mask="url(#mask-6)"></path>
            <path d="M261,290.537234 C259.717299,292.588011 258.121202,294.930786 255.766444,294.788182 C252.832844,294.610776 252.423545,291.504053 252.361893,289 C252.088741,289.086581 251.844702,289.190987 251.667453,289.34887 C250.173252,290.676442 251.234178,294.268697 254.385272,297.870289 C257.119359,300.996536 259.135032,296.906865 260.057241,294.39008 C260.630089,292.824835 260.94263,291.626285 261,290.537234" id="Fill-179" fill="#AB2A41" mask="url(#mask-6)"></path>
            <polygon id="Fill-180" fill="#D2E7F1" mask="url(#mask-6)" points="159.791667 288 178 291.82995 175.09775 300 159 299.23401"></polygon>
            <path d="M212,215.188059 C212,215.188059 214.659091,219.513423 217.522727,218.949245 C220.386364,218.385067 221,215 221,215 C221,215 216.295455,216.504474 212,215.188059" id="Fill-181" fill="#FFFFFF" mask="url(#mask-6)"></path>
            <path d="M249,389.307799 L244.286517,416.470093 L244.286517,416.473258 L231.266659,491.50031 L219.626528,572.241034 C219.451436,573.257009 218.561189,574 217.519974,574 C216.601712,574 215.892783,573.202412 216.013402,572.302752 L226.051245,482.600244 L236.786344,401.270824 L238.408087,389 L249,389.307799 Z" id="Fill-182" fill="#C69D7F" mask="url(#mask-6)"></path>
            <path d="M301,389.307799 L296.285848,416.470093 L296.285848,416.473258 L283.267071,491.50031 L271.62721,572.241034 C271.451343,573.257009 270.561896,574 269.519926,574 C268.602464,574 267.892774,573.202412 268.01339,572.302752 L278.051778,482.600244 L288.786628,401.270824 L290.407555,389 L301,389.307799 Z" id="Fill-183" fill="#C69D7F" mask="url(#mask-6)"></path>
            <path d="M245.369266,416 C245.977064,404.527119 238,401.060835 238,401.060835 L239.593272,389 L250,389.302532 L245.369266,416 Z" id="Fill-184" fill="#A0795F" mask="url(#mask-6)"></path>
            <path d="M700.480628,574 C699.440197,574 698.549955,573.257009 698.370973,572.241034 L688.032029,498.978486 L673.15939,413.274203 L669,389.307799 L679.593409,389 L681.431478,402.911892 L694.336092,500.682064 L701.987191,572.302752 C702.104696,573.202412 701.398884,574 700.480628,574" id="Fill-185" fill="#C69D7F" mask="url(#mask-6)"></path>
            <path d="M681,403.754743 C674.375814,406.800313 673.014772,414 673.014772,414 L669,390.304322 L679.225839,390 L681,403.754743 Z" id="Fill-186" fill="#A0795F" mask="url(#mask-6)"></path>
            <path d="M760.480592,574 C759.439358,574 758.549874,573.257009 758.370887,572.241034 L748.030922,498.978486 L733.15871,413.274203 L729,389.307799 L739.592103,389 L741.430993,402.911892 L754.335912,500.682064 L761.98719,572.302752 C762.104699,573.202412 761.39887,574 760.480592,574" id="Fill-187" fill="#C69D7F" mask="url(#mask-6)"></path>
            <path d="M741,403.754743 C734.374984,406.800313 733.014524,414 733.014524,414 L729,390.304322 L739.225617,390 L741,403.754743 Z" id="Fill-188" fill="#A0795F" mask="url(#mask-6)"></path>
            <path d="M758.729088,399 L199.270124,399 C194.171516,399 190,394.769878 190,389.597065 L190,389.403734 C190,384.23172 194.171516,380 199.270124,380 L758.729088,380 C763.828484,380 768,384.23172 768,389.403734 L768,389.597065 C768,394.769878 763.828484,399 758.729088,399" id="Fill-189" fill="#543639" mask="url(#mask-6)"></path>
            <polygon id="Fill-190" fill="#231B41" mask="url(#mask-6)" points="673 380 748 380 748 369 673 369"></polygon>
            <polygon id="Fill-191" fill="#FFFFFF" mask="url(#mask-6)" points="676 378 733 378 733 370 676 370"></polygon>
            <polygon id="Fill-192" fill="#FFFFFF" mask="url(#mask-6)" points="739 380 744 380 744 369 739 369"></polygon>
            <polygon id="Fill-193" fill="#547241" mask="url(#mask-6)" points="673 357 748 357 748 346 673 346"></polygon>
            <polygon id="Fill-194" fill="#FFFFFF" mask="url(#mask-6)" points="676 356 733 356 733 348 676 348"></polygon>
            <polygon id="Fill-195" fill="#FFFFFF" mask="url(#mask-6)" points="739 357 744 357 744 346 739 346"></polygon>
            <polygon id="Fill-196" fill="#E33E1D" mask="url(#mask-6)" points="668 368 743 368 743 357 668 357"></polygon>
            <path d="M733,363.499197 C733,361.014997 734.567459,359 736.49962,359 C738.432541,359 740,361.014997 740,363.499197 C740,365.985003 738.432541,368 736.49962,368 C734.567459,368 733,365.985003 733,363.499197" id="Fill-197" fill="#FFFFFF" mask="url(#mask-6)"></path>
            <polygon id="Fill-198" fill="#FFFFFF" mask="url(#mask-6)" points="671 367 728 367 728 359 671 359"></polygon>
            <polygon id="Fill-199" fill="#D2E7F1" mask="url(#mask-6)" points="347 317.559344 364.386179 372 406 366.32966 389.960459 312"></polygon>
            <path d="M418.991436,356.706548 L409.599659,351.047089 L398.657768,347 C397.337329,350.738019 403.396867,352.736727 403.396867,352.736727 C394.652074,352.767476 386.382203,350.58506 386.382203,350.58506 C383.191661,350.366661 384.11737,353.127796 384.11737,353.127796 C388.095815,355.451344 398.51607,357.057407 398.51607,357.057407 C392.532053,356.988023 382.631876,355.434786 382.631876,355.434786 C379.978542,355.735184 381.35893,358.149403 381.35893,358.149403 C385.829425,362.695578 397.691574,361.535775 397.691574,361.535775 C393.226529,362.114494 383.465715,360.949172 383.465715,360.949172 C381.860323,362.022246 382.680147,362.738154 382.680147,362.738154 C385.673713,366.888529 397.086633,365.738188 397.086633,365.738188 L392.802992,366.05672 C386.901503,365.966048 389.195142,369.066215 389.195142,369.066215 L392.277464,369.600781 C401.694154,371.072808 409.067902,368.000237 409.067902,368.000237 L419,365.421233 L418.991436,356.706548 Z" id="Fill-200" fill="#FD6062" mask="url(#mask-6)"></path>
            <path d="M417,371.828587 C417,373.58043 418.343885,375 419.998985,375 L485.998657,375 C487.656115,375 489,373.58043 489,371.828587 L489,327.171413 C489,325.41957 487.656115,324 485.998657,324 L419.998985,324 C418.343885,324 417,325.41957 417,327.171413 L417,371.828587 Z" id="Fill-201" fill="#9292A8" mask="url(#mask-6)"></path>
            <path d="M383,377.500773 C383,378.88107 384.159328,380 385.588011,380 L487.411989,380 C488.843822,380 490,378.88107 490,377.500773 C490,376.11893 488.843822,375 487.411989,375 L385.588011,375 C384.159328,375 383,376.11893 383,377.500773" id="Fill-202" fill="#7A7A8C" mask="url(#mask-6)"></path>
            <path d="M450,348.5 C450,346.015136 452.014353,344 454.5,344 C456.985647,344 459,346.015136 459,348.5 C459,350.984864 456.985647,353 454.5,353 C452.014353,353 450,350.984864 450,348.5" id="Fill-203" fill="#FFFFFF" mask="url(#mask-6)"></path>
            <path d="M488,325.407042 C487.465356,324.559219 486.55685,324 485.525026,324 L419.979179,324 C418.33466,324 417,325.423467 417,327.180901 L417,371.959882 C417,373.406812 417.910066,374.61363 419.148724,375 C425.64641,370.886025 471.564952,337.640253 488,325.407042" id="Fill-204" fill="#FFFFFF" mask="url(#mask-6)"></path>
        </g>
    </g>
</svg>