<svg xmlns="http://www.w3.org/2000/svg" viewBox="0 0 400 300" width="406" height="306" class="illustration styles_illustrationTablet__1DWOa"><g id="_115_team_meeting_flatline" data-name="#115_team_meeting_flatline"><path d="M244.79,149.65V78.33A11.42,11.42,0,0,0,233,66.91l-62.51,1.88a11.43,11.43,0,0,0-11.05,12.37l6.19,74.12Z" fill="#231f20"></path><path d="M165.66,155.77a.49.49,0,0,1-.5-.45L159,81.2A11.93,11.93,0,0,1,170.5,68.29L233,66.42a11.92,11.92,0,0,1,12.28,11.91v71.32a.5.5,0,0,1-.46.5l-79.14,5.62Zm67.72-88.36H233l-62.51,1.88A10.92,10.92,0,0,0,160,81.12l6.14,73.63,78.19-5.56V78.33a10.92,10.92,0,0,0-10.92-10.92Zm11.41,82.24h0Z" fill="#231f20"></path><path d="M306.15,103.79s-9.1,3.42-8.53,15.48-2.52,25.1,7.9,24.11l.63,7.1,22,2.34s2.3-36.88-1.83-43S306.15,103.79,306.15,103.79Z" fill="#fff"></path><path d="M328.17,153.31h-.05l-22-2.34a.5.5,0,0,1-.45-.45l-.58-6.6a6.7,6.7,0,0,1-5.17-1.56c-3-2.76-2.87-8.59-2.75-15.34,0-2.53.09-5.15,0-7.72-.3-6.41,2.11-10.4,4.19-12.63a13.87,13.87,0,0,1,4.66-3.35.57.57,0,0,1,.18,0c.67,0,16.37.07,20.6,6.29s2,41.75,1.92,43.27a.5.5,0,0,1-.18.35A.52.52,0,0,1,328.17,153.31ZM306.61,150l21.1,2.24c.25-4.5,1.94-36.64-1.79-42.13s-18.36-5.84-19.68-5.85c-.94.38-8.64,3.9-8.13,15,.13,2.61.08,5.24,0,7.79-.11,6.24-.21,12.14,2.44,14.59,1.13,1.05,2.73,1.46,4.89,1.26a.53.53,0,0,1,.37.11.52.52,0,0,1,.18.34Z" fill="#231f20"></path><ellipse cx="321.28" cy="119.27" rx="21.27" ry="23.37" fill="#fff"></ellipse><path d="M321.28,143.14c-12,0-21.77-10.71-21.77-23.87s9.77-23.86,21.77-23.86S343,106.11,343,119.27,333.28,143.14,321.28,143.14Zm0-46.74c-11.45,0-20.77,10.26-20.77,22.87s9.32,22.88,20.77,22.88,20.77-10.26,20.77-22.88S332.73,96.4,321.28,96.4Z" fill="#231f20"></path><path d="M220.94,41.21c-9.36-13.13-29.31-10.19-38.65,1.62-4.92,6.22-7.06,14.53-13,19.8-3.15,2.81-7.12,4.51-10.84,6.52s-7.4,4.56-9.27,8.35-1.28,9.08,2.29,11.35c3.14,2,7.46,1.17,10.64,3.12-4,.53-6.67,5.58-4.83,9.19,1.56,3.07,5.22,4.33,8.56,5.16,11.78,3,24.35,4.06,36,.58,8.7-2.59,17.58-8.36,22.46-16.2,4.63-7.44,2.95-21.47,2.3-30-.47-6.21-1.46-12.55-4.62-17.91C221.66,42.26,221.31,41.72,220.94,41.21Z" fill="#fff"></path><path d="M186.25,109.54a84.65,84.65,0,0,1-20.51-2.74c-3.47-.86-7.24-2.19-8.88-5.41a6.8,6.8,0,0,1,.22-6.21,7.09,7.09,0,0,1,3.64-3.36,18.59,18.59,0,0,0-3.94-.88,13.92,13.92,0,0,1-5.56-1.67c-3.94-2.51-4.35-8.18-2.47-12,2.06-4.15,6.15-6.76,9.49-8.56.84-.46,1.69-.9,2.55-1.34A38.7,38.7,0,0,0,169,62.26c3.37-3,5.55-7.13,7.66-11.12a56.93,56.93,0,0,1,5.26-8.62A28,28,0,0,1,204.23,32.1a21.12,21.12,0,0,1,17.12,8.82c.37.52.73,1.08,1.07,1.65,3.35,5.68,4.25,12.35,4.69,18.12.06.78.13,1.61.2,2.48C228,72,229,84.07,224.73,91c-4.6,7.41-13.1,13.54-22.74,16.42A54.94,54.94,0,0,1,186.25,109.54Zm17.33-76.45a27.07,27.07,0,0,0-20.9,10,54.88,54.88,0,0,0-5.16,8.47c-2.15,4.07-4.38,8.27-7.88,11.39a39.06,39.06,0,0,1-8.4,5.26c-.85.44-1.7.88-2.53,1.33-3.21,1.74-7.14,4.23-9.06,8.13-1.7,3.43-1.37,8.5,2.1,10.72A13.2,13.2,0,0,0,156.93,90a14.51,14.51,0,0,1,5.46,1.59.5.5,0,0,1-.19.92,6.17,6.17,0,0,0-4.45,8.47c1.46,2.88,5,4.1,8.23,4.91,13.61,3.4,25.63,3.6,35.73.59,9.41-2.81,17.7-8.79,22.18-16,4.11-6.62,3.14-18.51,2.43-27.19-.07-.87-.14-1.7-.2-2.48-.43-5.66-1.31-12.19-4.56-17.7-.32-.54-.67-1.07-1-1.57h0a20.15,20.15,0,0,0-16.34-8.4Z" fill="#231f20"></path><path d="M233.2,79.55c-.24-1.51-38.26-8-57.36,1C169,106.74,172.78,158,172.78,158l67.92-.52S241.33,129.24,233.2,79.55Z" fill="#05c2ec"></path><path d="M191.25,81.22s-1.19,75.55-1.2,76.08,20.45,0,21-.89,0-65.81,0-65.81L194.16,87" fill="#231f20"></path><path d="M193.92,158a25,25,0,0,1-3.91-.17.55.55,0,0,1-.46-.55c0-.52,1.19-75.32,1.2-76.08a.49.49,0,0,1,.5-.49.5.5,0,0,1,.49.51c0,.72-1.1,69.91-1.19,75.7,2.52.29,18.24-.16,20-.84.33-2.58.06-47.33-.08-65.08l-16.47-3.58a.5.5,0,1,1,.21-1l16.86,3.66a.49.49,0,0,1,.39.48c.16,19.56.46,65.15-.06,66.06-.17.29-.49.84-10.46,1.21C198.6,158,196,158,193.92,158Zm16.77-2Z" fill="#231f20"></path><path d="M210.45,80.06l.5,12.42s-1.39,5.74-9.78,4.14-9.89-7.26-9.89-7.26l-.09-23.2s12.67-7.54,10.21-20.8c0,0,5.54,10.26,17.79,8.09,0,0,.75,11.91.06,18.38S210.45,80.06,210.45,80.06Z" fill="#fff"></path><path d="M203.93,97.4a15.29,15.29,0,0,1-2.85-.29c-8.61-1.64-10.22-7.38-10.29-7.62a.53.53,0,0,1,0-.13l-.09-23.2a.51.51,0,0,1,.24-.43c.12-.07,12.34-7.52,10-20.28a.5.5,0,0,1,.93-.33A16.39,16.39,0,0,0,219.11,53a.46.46,0,0,1,.39.1.48.48,0,0,1,.19.36c0,.12.74,12,.06,18.47-.64,6-7.06,8.09-8.78,8.55l.48,12a.59.59,0,0,1,0,.13C211.42,92.65,210.19,97.4,203.93,97.4Zm-12.15-8.11c.18.61,1.88,5.38,9.48,6.83,7.39,1.42,9-3.13,9.18-3.7L210,80.08a.5.5,0,0,1,.4-.51c.07,0,7.76-1.76,8.4-7.79.59-5.57.11-15.33,0-17.75a17.34,17.34,0,0,1-16.57-6.69c.84,11.18-8.8,18-10.47,19.1Z" fill="#231f20"></path><path d="M195.08,65.31a5.42,5.42,0,0,0-2-2.81,9.62,9.62,0,0,0-3-1.32,3.94,3.94,0,0,0-1.76-.23,3.3,3.3,0,0,0-1.16.49,4.19,4.19,0,0,0-1.9,2.19,4.92,4.92,0,0,0,0,2.38,9.83,9.83,0,0,0,.76,2.49,6.57,6.57,0,0,0,8.87,3" fill="#fff"></path><path d="M192,72.7a7,7,0,0,1-6.36-4,10.16,10.16,0,0,1-.8-2.62,5.48,5.48,0,0,1,0-2.61A4.65,4.65,0,0,1,186.94,61a3.76,3.76,0,0,1,1.34-.55,4.4,4.4,0,0,1,2,.24,10.12,10.12,0,0,1,3.14,1.4,5.91,5.91,0,0,1,2.16,3.07.5.5,0,0,1-1,.28,4.93,4.93,0,0,0-1.8-2.55A9.38,9.38,0,0,0,190,61.66a3.56,3.56,0,0,0-1.54-.22,2.79,2.79,0,0,0-1,.42,3.81,3.81,0,0,0-1.68,1.92,4.56,4.56,0,0,0,0,2.14,9.05,9.05,0,0,0,.72,2.36,6.09,6.09,0,0,0,8.19,2.78.5.5,0,0,1,.45.89A7.08,7.08,0,0,1,192,72.7Z" fill="#231f20"></path><path d="M210.9,60.59s4.88,6.11,3.94,7.32-3.88.71-3.88.71" fill="#fff"></path><path d="M212.31,69.23a9.69,9.69,0,0,1-1.43-.11.51.51,0,0,1-.41-.58.49.49,0,0,1,.57-.41c.69.12,2.8.27,3.41-.52.31-.55-1.53-3.69-3.94-6.7a.5.5,0,0,1,.08-.71.5.5,0,0,1,.7.08c1.54,1.93,5,6.56,4,7.94A3.71,3.71,0,0,1,212.31,69.23Z" fill="#231f20"></path><ellipse cx="206.19" cy="58.17" rx="1.51" ry="1.07" transform="translate(139.56 261.78) rotate(-87.64)" fill="#231f20"></ellipse><ellipse cx="214.01" cy="57.94" rx="1.51" ry="1.07" transform="translate(124.37 260.72) rotate(-81.3)" fill="#231f20"></ellipse><path d="M214.82,71.31s-10.58,6.41-12.46-3.43" fill="#fff"></path><path d="M208.16,73.86a6.65,6.65,0,0,1-2.67-.52c-1.88-.84-3.1-2.64-3.62-5.37a.49.49,0,0,1,.4-.58.5.5,0,0,1,.58.39c.46,2.39,1.48,4,3.05,4.64,3.49,1.56,8.61-1.5,8.66-1.54a.5.5,0,0,1,.52.86A15.44,15.44,0,0,1,208.16,73.86Z" fill="#231f20"></path><path d="M210.45,80.06s-6.45.11-9.49-1.6c0,0,2.62,7.33,9.67,9.07Z" fill="#231f20"></path><path d="M210.63,88h-.12c-7.22-1.79-9.9-9.08-10-9.39a.49.49,0,0,1,.71-.6c2.88,1.62,9.17,1.53,9.23,1.53A.53.53,0,0,1,211,80l.18,7.48a.5.5,0,0,1-.5.51ZM202,79.45c1,2,3.54,6,8.17,7.42L210,80.55A27.46,27.46,0,0,1,202,79.45Z" fill="#231f20"></path><path d="M295.07,85.8c-1.87-1.67-14,6-14,6,.52-4.79,1.15-8.43,0-8.54s-5.83,12.78-5.83,12.78-15.52,22.66-16.77,23.29S233.2,79.55,233.2,79.55c-13.66,14.9-3.43,35.83-3.43,35.83s25.31,31.87,30.62,31.56c4.29-.25,18.59-25.84,23.91-35.63h0s3.69-6,5.19-8.22,6.41-6.87,8.6-9.48S297,87.47,295.07,85.8Z" fill="#fff"></path><path d="M260.32,147.4c-5.55,0-28.32-28.47-30.91-31.73-.16-.3-10.26-21.48,3.46-36.43a.45.45,0,0,1,.38-.14.42.42,0,0,1,.34.22c8.95,15,22.69,37.52,24.87,39.51,1.56-1.55,10.52-14.37,16.41-23,4.79-13.15,5.9-13.06,6.29-13a.92.92,0,0,1,.65.35c.64.79.45,2.71,0,6.64,0,.36-.08.73-.13,1.11,3.57-2.23,11.88-7.11,13.71-5.49h0c3.75,3.34,4.83,6.34,3.06,8.45-.92,1.1-2.29,2.53-3.74,4a59.77,59.77,0,0,0-4.83,5.4c-1.48,2.15-5.14,8.14-5.18,8.2-7.21,13.26-20,35.59-24.28,35.85ZM233.13,80.32c-12.67,14.46-3,34.66-2.95,34.86,10,12.58,26.27,31.31,30.11,31.31h.07c2.75-.17,11.77-13.73,23.54-35.4.05-.08,3.72-6.08,5.22-8.26A59.59,59.59,0,0,1,294,97.32c1.44-1.5,2.8-2.92,3.7-4,1.9-2.26-1.05-5.47-3-7.18-1-.89-7.74,2.47-13.41,6.09a.48.48,0,0,1-.49,0,.45.45,0,0,1-.21-.44c.08-.71.16-1.4.23-2.05.27-2.33.64-5.5.24-5.94-.85.78-3.38,6.83-5.42,12.43a1.17,1.17,0,0,1,0,.11c-2.61,3.8-15.65,22.79-16.94,23.43-.56.29-1.15.59-13.72-19.84C239.7,91.31,234.45,82.54,233.13,80.32Z" fill="#231f20"></path><path d="M284.13,99.49a.38.38,0,0,1-.17,0,.46.46,0,0,1-.25-.59c1.5-3.76-2.67-6.52-2.84-6.63a.46.46,0,1,1,.49-.77c.05,0,5,3.28,3.2,7.74A.46.46,0,0,1,284.13,99.49Z" fill="#231f20"></path><rect x="118.47" y="139.58" width="163.05" height="127.83" fill="#fff"></rect><path d="M281.52,267.87h-163a.46.46,0,0,1-.46-.46V139.58a.45.45,0,0,1,.46-.45h163a.46.46,0,0,1,.46.45V267.41A.47.47,0,0,1,281.52,267.87ZM118.92,267H281.06V140H118.92Z" fill="#231f20"></path><path d="M194.35,233.52h0l-52.18-2.08a.5.5,0,0,1-.48-.52l1.42-35.63a.54.54,0,0,1,.16-.35.53.53,0,0,1,.36-.13l52.18,2.07a.51.51,0,0,1,.48.52L194.85,233a.5.5,0,0,1-.16.34A.48.48,0,0,1,194.35,233.52Zm-51.66-3.06,51.18,2,1.38-34.64-51.18-2Z" fill="#d1d3d4"></path><path d="M202.08,187.3h0l-35.53-.85a.51.51,0,0,1-.35-.15.54.54,0,0,1-.14-.36l.83-34.32a.5.5,0,0,1,.51-.49l35.53.85a.5.5,0,0,1,.48.52l-.82,34.32a.53.53,0,0,1-.15.35A.56.56,0,0,1,202.08,187.3Zm-35-1.84,34.52.83.8-33.32-34.52-.82Z" fill="#d1d3d4"></path><path d="M237.34,188.15h0l-35.53-.85a.5.5,0,0,1-.48-.52l.82-34.31a.49.49,0,0,1,.15-.35.48.48,0,0,1,.36-.14l35.53.85a.5.5,0,0,1,.35.16.45.45,0,0,1,.13.35l-.82,34.32A.51.51,0,0,1,237.34,188.15Zm-35-1.84,34.52.83.8-33.32L203.13,153Z" fill="#d1d3d4"></path><path d="M196.29,181.27h0l-21-.5a.5.5,0,0,1,0-1l21,.5a.51.51,0,0,1,.49.51A.5.5,0,0,1,196.29,181.27Z" fill="#d1d3d4"></path><path d="M196.43,175.47h0l-21-.51a.49.49,0,0,1-.49-.51.5.5,0,0,1,.51-.49l21,.51a.5.5,0,0,1,0,1Z" fill="#d1d3d4"></path><path d="M196.57,169.66h0l-21-.5a.5.5,0,0,1-.49-.51.53.53,0,0,1,.51-.49l21,.5a.52.52,0,0,1,.49.52A.5.5,0,0,1,196.57,169.66Z" fill="#d1d3d4"></path><path d="M196.7,163.86h0l-21-.51a.49.49,0,0,1-.49-.51.54.54,0,0,1,.51-.49l21,.51a.49.49,0,0,1,.48.51A.5.5,0,0,1,196.7,163.86Z" fill="#d1d3d4"></path><path d="M196.84,158.05h0l-21-.5a.5.5,0,0,1-.48-.51.53.53,0,0,1,.51-.49l21,.5a.5.5,0,0,1,.48.52A.49.49,0,0,1,196.84,158.05Z" fill="#d1d3d4"></path><path d="M230.23,164.66h0l-21-.5a.5.5,0,0,1-.49-.51.48.48,0,0,1,.51-.49l21,.5a.5.5,0,0,1,.48.51A.49.49,0,0,1,230.23,164.66Z" fill="#d1d3d4"></path><path d="M230.37,158.86h0l-21-.51a.49.49,0,0,1-.48-.51.5.5,0,0,1,.51-.49l21,.51a.5.5,0,0,1,0,1Z" fill="#d1d3d4"></path><path d="M229.78,183.48h0L208.19,183a.51.51,0,0,1-.49-.52l.33-13.6a.51.51,0,0,1,.15-.35.54.54,0,0,1,.36-.14l21.58.52a.5.5,0,0,1,.49.51L230.28,183a.53.53,0,0,1-.15.35A.56.56,0,0,1,229.78,183.48ZM208.71,182l20.58.49.31-12.6-20.58-.5Z" fill="#d1d3d4"></path><path d="M176.54,81S148.59,114.52,145,125.79s22.9,46.61,22.9,46.61,8.64,11.24,12.77,8.85,0-14.79,0-14.79,7.27,4.13,5.7.75-11.15-6.15-11.15-6.15l-11.83-35.37L173,113.78" fill="#fff"></path><path d="M179.39,182c-4.48,0-11-8.31-11.82-9.37-1.09-1.45-26.57-35.67-23-47s30.46-43.54,31.6-44.91a.46.46,0,1,1,.7.59c-.28.33-27.93,33.55-31.43,44.59s22.58,45.85,22.84,46.2c2.33,3,9.07,10.54,12.17,8.73s.91-10.9-.21-14.24a.47.47,0,0,1,.15-.5.46.46,0,0,1,.51-.05c2.36,1.34,4.86,2.29,5.24,2h0s.05-.16-.18-.64c-1.21-2.62-8.25-5.15-10.86-5.91a.44.44,0,0,1-.3-.29L163,125.84a.45.45,0,0,1,.08-.43l9.54-11.91a.45.45,0,0,1,.64-.07.46.46,0,0,1,.07.64l-9.38,11.71,11.67,34.91c1.52.46,9.68,3.07,11.2,6.33.36.78.35,1.35,0,1.7-.86.79-3.53-.39-5.31-1.32.92,3.15,3.15,12.1-.54,14.24A3,3,0,0,1,179.39,182Z" fill="#231f20"></path><path d="M125.18,109.86s-1.19-8.23-7.83-10.29-25.76-1.68-27.79,13,5.17,25.16,11.18,28.25l14.67-1.51Z" fill="#fff"></path><path d="M100.74,141.35a.59.59,0,0,1-.23,0c-5.56-2.86-13.59-13.2-11.44-28.77A14.54,14.54,0,0,1,96,101.78c6.77-4.3,16.86-4.15,21.54-2.69,6.86,2.14,8.12,10.35,8.17,10.7a.46.46,0,0,1,0,.23l-9.77,29.48a.5.5,0,0,1-.42.34l-14.67,1.51Zm9.47-42.2c-4.47,0-9.7.92-13.71,3.47a13.61,13.61,0,0,0-6.44,10c-2.06,14.93,5.47,24.84,10.78,27.67L115,138.88l9.63-29.06c-.17-1-1.62-8-7.45-9.77A24.66,24.66,0,0,0,110.21,99.15Z" fill="#231f20"></path><path d="M115.51,113.08l1.29,7.69s-2.89-5.85-5.74-.83,5.34,11.6,5.34,11.6l-1.71,7.12-15.12,1.51-2,15s22.44,3.27,22.07,2.7c-.13-.19,1.52-14.81,1.52-14.81s4.1,1.65,6.38-4.87-2.33-28.37-2.33-28.37Z" fill="#fff"></path><path d="M119.12,158.43c-1.66,0-6.55-.53-21.65-2.73a.5.5,0,0,1-.42-.56l2-15a.49.49,0,0,1,.44-.43l14.77-1.47,1.56-6.47c-1.41-1.19-8-7.16-5.23-12,.88-1.55,1.93-2.31,3-2.28a3.4,3.4,0,0,1,2.31,1.26l-.92-5.5a.5.5,0,0,1,.33-.56l9.67-3.22a.46.46,0,0,1,.41,0,.51.51,0,0,1,.24.33c.19.89,4.61,22,2.31,28.63-.89,2.56-2.18,4.24-3.81,5a4.5,4.5,0,0,1-2.61.35c-.62,5.51-1.47,13.39-1.46,14.11a.53.53,0,0,1-.07.37C120,158.31,119.89,158.43,119.12,158.43Zm-21-3.64c7.45,1.08,18.83,2.63,21,2.69,0-1.19.37-4.53,1.49-14.44a.52.52,0,0,1,.24-.37.49.49,0,0,1,.44,0,3.32,3.32,0,0,0,2.46-.18c1.37-.63,2.47-2.11,3.27-4.39,2-5.75-1.55-24.13-2.24-27.55l-8.73,2.91,1.23,7.27a.5.5,0,0,1-.94.3c-.35-.71-1.53-2.55-2.76-2.58-.72,0-1.43.57-2.11,1.78-2.61,4.59,5.15,10.9,5.23,11a.49.49,0,0,1,.17.51l-1.71,7.12a.51.51,0,0,1-.44.38L100,140.63Z" fill="#231f20"></path><path d="M125.87,121.29s5.74,7.47,4.88,8.6-3.82,1.17-3.82,1.17" fill="#fff"></path><path d="M126.93,131.56a.5.5,0,0,1-.5-.49.52.52,0,0,1,.49-.51c1,0,2.91-.3,3.43-1,.19-.7-2.36-4.71-4.88-8a.51.51,0,0,1,.1-.7.52.52,0,0,1,.7.09c2.72,3.55,5.78,8,4.87,9.21s-3.87,1.37-4.2,1.37Z" fill="#231f20"></path><ellipse cx="122.13" cy="118.51" rx="0.75" ry="2.16" transform="translate(-24.99 32.98) rotate(-13.96)" fill="#231f20"></ellipse><path d="M126.13,138.52a1.85,1.85,0,0,1-.46-.05c-1.53-.37-1.56-3.58-1.53-4.55a.48.48,0,0,1,.2-.38.46.46,0,0,1,.42-.09l3.42.82a.51.51,0,0,1,.37.61.5.5,0,0,1-.61.37l-2.8-.68c0,1.41.34,2.82.77,2.93a.8.8,0,0,0,.63-.09,2.55,2.55,0,0,0,.82-1.38.5.5,0,0,1,.6-.38.51.51,0,0,1,.37.6,3.43,3.43,0,0,1-1.26,2A1.73,1.73,0,0,1,126.13,138.52Z" fill="#231f20"></path><path d="M152.29,211.06s5.58,4.78,9.83,2.52,5.44-4.65,5.44-4.65,1.46,6.25,3.06,4.52a2.3,2.3,0,0,0-.14-3.32s2.92,4.65,3.19,2.12-1.73-5.18-1.73-5.18,8.64,6.38,8.24,2.53-8-8.77-13.68-8.77-16.34,3.06-16.34,3.06" fill="#fff"></path><path d="M159.57,214.69c-3.76,0-7.42-3.09-7.61-3.25a.51.51,0,0,1-.05-.71.49.49,0,0,1,.7,0c.06,0,5.37,4.53,9.27,2.46s5.22-4.41,5.23-4.43a.51.51,0,0,1,.51-.27.49.49,0,0,1,.43.38c.47,2,1.37,4.27,2,4.43,0,0,.13,0,.23-.14a1.66,1.66,0,0,0,.44-1.77c-.23-.33-.45-.66-.63-1a.5.5,0,0,1,.76-.63,3.16,3.16,0,0,1,.75,1.08,6.14,6.14,0,0,0,1.55,1.64,1,1,0,0,0,0-.28c.24-2.29-1.61-4.8-1.63-4.83a.49.49,0,0,1,.05-.65.51.51,0,0,1,.65-.05c2.85,2.11,6.45,4.09,7.3,3.6.16-.09.17-.39.14-.62-.38-3.65-7.77-8.32-13.18-8.32-5.58,0-16.09,3-16.2,3a.51.51,0,0,1-.62-.35.5.5,0,0,1,.34-.61c.44-.13,10.76-3.08,16.48-3.08,5.93,0,13.75,5.08,14.17,9.22a1.48,1.48,0,0,1-.63,1.59c-1.32.75-4.42-1-6.57-2.39a7.2,7.2,0,0,1,.7,3.56c-.07.67-.34,1.07-.78,1.17s-1.11-.3-1.69-.9a3.12,3.12,0,0,1-.72,1.21,1.18,1.18,0,0,1-1.22.42c-1.13-.3-2-2.57-2.41-4.09a15.92,15.92,0,0,1-5,3.9A5.81,5.81,0,0,1,159.57,214.69Z" fill="#231f20"></path><path d="M118.47,250s0-19.14,1.17-40.26,9.14-29.58,2.37-50.3-26.36-18.12-36.08-10.06c-19.77,16.39-38,66.44-27.67,101.91C58.26,251.24,80.85,260.8,118.47,250Z" fill="#05c2ec"></path><path d="M98,164.84c0,1.06-10.89,52.59-3.72,57.37s59.76-6.1,59.76-6.1l-.53-14.35-31.08-3.45s8.77-39-6.63-49.39S98,164.84,98,164.84Z" fill="#05c2ec"></path><path d="M102.67,225.19c-5.73,0-11.38-1.26-13.65-5.67-5.07-9.88,8.67-62.15,9.26-64.37a.5.5,0,1,1,1,.25c-.15.54-14.24,54.12-9.34,63.66,4.8,9.36,27.61,3,27.84,2.94a.5.5,0,0,1,.28,1A63.56,63.56,0,0,1,102.67,225.19Z" fill="#231f20"></path><path d="M122.4,198.81h0c-1.31-.05-7.85-.4-8.44-2.77-.54-2.16,6.55-23,8-27.11a.5.5,0,0,1,.95.32c-3.27,9.5-8.32,25.1-8,26.55.3,1.21,4.57,1.9,7.5,2a.5.5,0,0,1,0,1Z" fill="#231f20"></path><path d="M51.86,168.44c7.44.31,16.55.74,23.32,1.07A11.21,11.21,0,0,1,85.8,179.64l5.59,57.55h27.08V259.9l-68.89-2.06L40.26,181A11.23,11.23,0,0,1,51.86,168.44Z" fill="#231f20"></path><path d="M118.47,260.4h0l-68.89-2.07a.49.49,0,0,1-.48-.43l-9.32-76.82A11.73,11.73,0,0,1,51.88,168c7.56.31,16.86.75,23.32,1.06a11.79,11.79,0,0,1,11.1,10.58l5.54,57.1h26.63a.49.49,0,0,1,.49.5V259.9a.48.48,0,0,1-.15.36A.49.49,0,0,1,118.47,260.4Zm-68.45-3,67.95,2v-21.7H91.39a.5.5,0,0,1-.49-.45l-5.59-57.55A10.78,10.78,0,0,0,75.16,170c-6.47-.32-15.76-.76-23.32-1.07h0a10.73,10.73,0,0,0-11.09,12Z" fill="#231f20"></path><path d="M289.8,153.1c-10.56,3.75-45,58.37-39,68.11S282,225.34,282,225.34l-.47,17.57,65-1.07s14.63-64.28,5-80.58C341.86,145.15,300.35,149.34,289.8,153.1Z" fill="#05c2ec"></path><path d="M348.45,168.43c-7.59.31-17,.75-23.93,1.09a10.92,10.92,0,0,0-10.34,9.86l-5.61,57.81H281.49V259.9l68.89-2.06,9.36-77.17A10.93,10.93,0,0,0,348.45,168.43Z" fill="#231f20"></path><path d="M281.49,260.4a.49.49,0,0,1-.34-.14.48.48,0,0,1-.15-.36V237.19a.49.49,0,0,1,.49-.5h26.63l5.56-57.35A11.51,11.51,0,0,1,324.5,169c6.7-.32,16.29-.78,23.93-1.09h0a11.44,11.44,0,0,1,11.81,12.8l-9.36,77.17a.49.49,0,0,1-.48.43l-68.89,2.07Zm.5-22.71v21.7l67.95-2,9.31-76.74a10.42,10.42,0,0,0-10.78-11.68h0c-7.63.31-17.22.76-23.92,1.09a10.5,10.5,0,0,0-9.88,9.41l-5.61,57.81a.5.5,0,0,1-.49.45Zm66.46-69.26h0Z" fill="#231f20"></path><path d="M282,225.84h0a.5.5,0,0,1-.44-.56c.41-3.62,4.74-43.68,4.78-44.08a.5.5,0,0,1,1,.11c-.05.4-4.37,40.46-4.79,44.09A.51.51,0,0,1,282,225.84Z" fill="#231f20"></path><path d="M300.16,127.5a5.52,5.52,0,0,1,1.53-5.13,2.22,2.22,0,0,1,1.35-.7,1.83,1.83,0,0,1,1.54.84,4.61,4.61,0,0,1,.64,1.7,12.24,12.24,0,0,1,.16,5,7.31,7.31,0,0,1-2.48,4.31" fill="#fff"></path><path d="M302.9,134.06a.47.47,0,0,1-.39-.19.5.5,0,0,1,.07-.7,6.72,6.72,0,0,0,2.31-4,11.79,11.79,0,0,0-.15-4.84,4.23,4.23,0,0,0-.57-1.51,1.34,1.34,0,0,0-1.1-.63,1.66,1.66,0,0,0-1,.56,5,5,0,0,0-1.4,4.66.48.48,0,0,1-.37.59.5.5,0,0,1-.6-.37,6,6,0,0,1,1.68-5.6,2.7,2.7,0,0,1,1.66-.84,2.32,2.32,0,0,1,2,1,5,5,0,0,1,.73,1.88,12.73,12.73,0,0,1,.16,5.25,7.8,7.8,0,0,1-2.66,4.6A.49.49,0,0,1,302.9,134.06Z" fill="#231f20"></path><path d="M317.84,105.71a15.84,15.84,0,0,0,5,7.27,14.56,14.56,0,0,0,9.36,3.69c2.7,0,5.75-1.51,6.19-4.18.3-1.78-.65-3.53-1.72-5a24.79,24.79,0,0,0-13.23-9.42c-1.62-.42-3.89-.85-5.22.47C316.58,100.23,317.22,103.73,317.84,105.71Z" fill="#231f20"></path><path d="M332.08,117.17a15.05,15.05,0,0,1-9.52-3.81,16.26,16.26,0,0,1-5.2-7.5h0c-.4-1.27-1.54-5.58.55-7.66,1.47-1.46,3.81-1.09,5.7-.6a25.45,25.45,0,0,1,13.51,9.6c.94,1.3,2.16,3.26,1.8,5.38-.49,3-3.73,4.55-6.68,4.59Zm-11.29-19a3,3,0,0,0-2.18.75c-1.34,1.34-1,4.31-.3,6.65h0a15.37,15.37,0,0,0,4.89,7,14.09,14.09,0,0,0,9,3.57c2.47,0,5.31-1.36,5.71-3.76.22-1.32-.29-2.79-1.63-4.62a24.48,24.48,0,0,0-12.95-9.23A10.59,10.59,0,0,0,320.79,98.16Z" fill="#231f20"></path><ellipse cx="333.14" cy="100.97" rx="13.56" ry="15.25" transform="translate(79.13 338.99) rotate(-60)" fill="#fff"></ellipse><path d="M334.61,115.48a17.08,17.08,0,0,1-8.5-2.33,16.7,16.7,0,0,1-7.58-9.11,13.3,13.3,0,0,1,1-10.94c3.88-6.71,13.15-8.64,20.67-4.3s10.48,13.33,6.61,20a13.29,13.29,0,0,1-9,6.31A16,16,0,0,1,334.61,115.48Zm-2.95-28a12.79,12.79,0,0,0-11.3,6.13,12.26,12.26,0,0,0-.88,10.13,16.11,16.11,0,0,0,18.1,10.45,12.29,12.29,0,0,0,8.33-5.83c3.61-6.24.81-14.63-6.24-18.69A16,16,0,0,0,331.66,87.47Z" fill="#231f20"></path><path d="M258.5,253.15H214.63a.5.5,0,0,1-.5-.5V227.24a.5.5,0,0,1,.5-.5H258.5a.5.5,0,0,1,.5.5v25.41A.5.5,0,0,1,258.5,253.15Zm-43.37-1H258V227.74H215.13Z" fill="#d1d3d4"></path><path d="M258.5,257.65H214.63a.5.5,0,0,1-.5-.5v-4.5a.5.5,0,0,1,.5-.5H258.5a.5.5,0,0,1,.5.5v4.5A.5.5,0,0,1,258.5,257.65Zm-43.37-1H258v-3.5H215.13Z" fill="#d1d3d4"></path><path d="M227.34,248H220a.5.5,0,0,1-.5-.5V231.56a.5.5,0,0,1,.5-.5h7.35a.5.5,0,0,1,.5.5v15.95A.5.5,0,0,1,227.34,248Zm-6.85-1h6.35V232.06h-6.35Z" fill="#d1d3d4"></path><path d="M233.16,214.69H217a.51.51,0,0,1-.5-.5V203.3a.5.5,0,0,1,.5-.5h16.15a.5.5,0,0,1,.5.5v10.89A.51.51,0,0,1,233.16,214.69Zm-15.65-1h15.15V203.8H217.51Z" fill="#d1d3d4"></path></g></svg>