<?xml version="1.0" standalone="no"?>
<!DOCTYPE svg PUBLIC "-//W3C//DTD SVG 20010904//EN"
 "http://www.w3.org/TR/2001/REC-SVG-20010904/DTD/svg10.dtd">
<svg version="1.0" xmlns="http://www.w3.org/2000/svg"
 width="3000.000000pt" height="3000.000000pt" viewBox="0 0 3000.000000 3000.000000"
 preserveAspectRatio="xMidYMid meet">
<metadata>
Created by potrace 1.14, written by Peter Selinger 2001-2017
</metadata>
<g transform="translate(0.000000,3000.000000) scale(0.100000,-0.100000)"
fill="#000000" stroke="none">
<path d="M23654 24362 c4 -7 1 -12 -8 -12 -8 0 -22 -7 -30 -16 -9 -8 -16 -12
-16 -7 0 4 -7 -1 -15 -11 -8 -11 -15 -16 -15 -12 0 9 -82 -34 -92 -49 -4 -5
-8 -6 -8 -1 0 5 -8 3 -17 -5 -10 -8 -31 -21 -48 -29 -16 -8 -42 -23 -57 -33
-16 -10 -28 -15 -28 -12 0 4 -7 -1 -16 -9 -8 -9 -21 -16 -29 -16 -7 0 -15 -5
-17 -10 -2 -6 -13 -12 -25 -13 -12 0 -20 -4 -17 -8 4 -8 -23 -19 -40 -18 -5 0
-13 -6 -18 -15 -5 -9 -13 -14 -17 -11 -5 2 -14 -2 -21 -10 -7 -8 -16 -12 -21
-9 -5 3 -9 0 -9 -6 0 -6 -4 -9 -9 -6 -5 4 -11 2 -13 -3 -1 -5 -9 -11 -17 -13
-8 -2 -23 -11 -33 -21 -10 -10 -23 -15 -28 -12 -6 4 -10 3 -10 -2 0 -4 -23
-19 -50 -32 -28 -14 -50 -29 -50 -34 0 -4 -4 -6 -9 -3 -5 3 -14 -1 -21 -10 -7
-8 -19 -13 -27 -10 -7 3 -13 1 -13 -4 0 -10 -90 -55 -102 -52 -5 1 -8 -5 -8
-13 0 -9 -6 -12 -15 -9 -8 4 -15 1 -15 -5 0 -6 -5 -11 -10 -11 -6 0 -28 -11
-49 -24 -21 -14 -42 -22 -45 -19 -3 4 -6 2 -6 -4 0 -6 -11 -14 -25 -17 -14 -4
-23 -11 -20 -17 4 -5 3 -9 -2 -8 -16 4 -63 -13 -63 -23 0 -5 -4 -6 -10 -3 -5
3 -10 2 -10 -3 0 -6 -11 -13 -25 -16 -14 -4 -23 -11 -20 -15 3 -5 -3 -8 -12
-7 -10 2 -26 -5 -37 -15 -10 -10 -34 -23 -53 -30 -18 -6 -31 -15 -28 -20 5 -8
-8 -11 -31 -8 -4 0 -10 -4 -14 -11 -4 -6 -16 -12 -27 -13 -14 -1 -19 -6 -15
-17 3 -8 2 -12 -3 -8 -11 10 -165 -74 -158 -86 3 -5 1 -6 -5 -2 -10 6 -69 -22
-99 -46 -7 -6 -13 -7 -13 -4 0 4 -7 0 -16 -8 -8 -9 -20 -14 -25 -10 -5 3 -7
-5 -5 -18 2 -13 0 -31 -5 -40 -6 -10 -5 -19 1 -23 5 -3 10 -11 10 -16 0 -6 -5
-7 -12 -3 -7 5 -8 3 -2 -7 13 -21 14 -39 2 -39 -6 0 -5 -6 2 -15 10 -12 10
-15 -1 -15 -9 0 -10 -3 -4 -8 12 -8 13 -27 3 -37 -4 -4 -3 -18 2 -31 7 -17 6
-24 -3 -24 -7 0 -8 -3 -2 -8 13 -9 14 -75 0 -84 -7 -5 -7 -8 1 -8 11 0 11 -90
0 -108 -3 -6 -2 -13 3 -16 10 -7 9 -25 -2 -43 -4 -6 -3 -14 3 -18 5 -3 10 -11
10 -16 0 -6 -5 -7 -12 -3 -7 5 -8 3 -2 -7 13 -21 14 -39 2 -39 -6 0 -5 -6 2
-15 10 -12 10 -15 -1 -15 -9 0 -10 -3 -4 -8 12 -8 13 -27 3 -37 -4 -4 -3 -18
2 -31 7 -17 6 -24 -3 -24 -7 0 -8 -3 -2 -8 13 -9 14 -75 0 -84 -7 -5 -7 -8 1
-8 9 0 12 -72 4 -105 -1 -5 -1 -12 0 -15 7 -19 7 -41 -1 -46 -5 -3 -6 -11 -2
-17 11 -18 11 -47 0 -47 -6 0 -6 -5 0 -12 10 -14 10 -64 0 -74 -4 -4 -1 -16 4
-27 8 -15 8 -22 -2 -28 -9 -6 -10 -9 -2 -9 11 0 12 -24 1 -36 -4 -3 -3 -17 2
-30 6 -16 6 -24 -1 -24 -6 0 -7 -6 -2 -12 12 -20 11 -58 -1 -58 -7 0 -7 -3 -1
-8 13 -9 14 -75 0 -84 -7 -5 -7 -8 1 -8 11 0 11 -90 0 -108 -3 -6 -2 -13 3
-16 10 -7 9 -25 -2 -43 -4 -6 -3 -14 3 -18 5 -3 10 -11 10 -16 0 -6 -5 -7 -12
-3 -7 5 -8 3 -2 -7 13 -21 14 -39 2 -39 -6 0 -5 -6 2 -15 10 -12 10 -15 -1
-15 -9 0 -10 -3 -4 -8 12 -8 13 -27 3 -37 -4 -4 -3 -18 2 -31 7 -17 6 -24 -3
-24 -7 0 -8 -3 -2 -8 13 -9 14 -75 0 -84 -7 -5 -7 -8 1 -8 11 0 11 -90 0 -108
-3 -6 -2 -13 3 -16 10 -7 9 -25 -2 -43 -4 -6 -3 -14 3 -18 5 -3 10 -11 10 -16
0 -6 -5 -7 -12 -3 -7 5 -8 3 -2 -7 13 -21 14 -39 2 -39 -6 0 -5 -6 2 -15 10
-12 10 -15 -1 -15 -9 0 -10 -3 -4 -8 12 -8 13 -27 3 -37 -4 -4 -3 -18 2 -31 7
-17 6 -24 -3 -24 -7 0 -8 -3 -2 -8 13 -9 14 -75 0 -84 -7 -5 -7 -8 1 -8 11 0
11 -90 0 -108 -3 -6 -2 -13 3 -16 10 -7 9 -25 -2 -43 -4 -6 -3 -14 3 -18 5 -3
10 -11 10 -16 0 -6 -5 -7 -12 -3 -7 5 -8 3 -2 -7 13 -21 14 -39 2 -39 -6 0 -5
-6 2 -15 10 -12 10 -15 -1 -15 -9 0 -10 -3 -4 -8 12 -8 13 -27 3 -37 -4 -4 -3
-18 2 -31 7 -17 6 -24 -3 -24 -7 0 -8 -3 -2 -8 13 -9 14 -75 0 -84 -7 -5 -7
-8 1 -8 11 0 11 -90 0 -108 -3 -6 -2 -13 3 -16 10 -7 9 -25 -2 -43 -4 -6 -3
-14 3 -18 5 -3 10 -11 10 -16 0 -6 -5 -7 -12 -3 -7 5 -8 3 -2 -7 13 -21 14
-39 2 -39 -6 0 -5 -6 2 -15 10 -12 10 -15 -1 -15 -9 0 -10 -3 -4 -8 12 -8 13
-27 3 -37 -4 -4 -3 -18 2 -31 7 -17 6 -24 -3 -24 -7 0 -8 -3 -2 -8 13 -9 14
-75 0 -84 -7 -5 -7 -8 1 -8 9 0 12 -72 4 -105 -1 -5 -1 -12 0 -15 7 -19 7 -41
-1 -46 -5 -3 -6 -11 -2 -17 11 -18 11 -47 0 -47 -6 0 -6 -5 0 -12 10 -14 10
-64 0 -74 -4 -4 -1 -16 4 -27 8 -15 8 -22 -2 -28 -9 -6 -10 -9 -2 -9 11 0 12
-24 1 -36 -4 -3 -3 -17 2 -30 6 -16 6 -24 -1 -24 -6 0 -7 -6 -2 -12 12 -20 11
-58 -1 -58 -7 0 -7 -3 -1 -8 13 -9 14 -75 0 -84 -7 -5 -7 -8 1 -8 11 0 11 -90
0 -108 -3 -6 -2 -13 3 -16 10 -7 9 -25 -2 -43 -4 -6 -3 -14 3 -18 5 -3 10 -11
10 -16 0 -6 -5 -7 -12 -3 -7 5 -8 3 -2 -7 13 -21 14 -39 2 -39 -6 0 -5 -6 2
-15 10 -12 10 -15 -1 -15 -9 0 -10 -3 -4 -8 12 -8 13 -27 3 -37 -4 -4 -3 -18
2 -31 7 -17 6 -24 -3 -24 -7 0 -8 -3 -2 -8 13 -9 14 -75 0 -84 -7 -5 -7 -8 1
-8 11 0 11 -90 0 -108 -3 -6 -2 -13 3 -16 10 -7 9 -25 -2 -43 -4 -6 -3 -14 3
-18 5 -3 10 -11 10 -16 0 -6 -5 -7 -12 -3 -7 5 -8 3 -2 -7 13 -21 14 -39 2
-39 -6 0 -5 -6 2 -15 10 -12 10 -15 -1 -15 -9 0 -10 -3 -4 -8 12 -8 13 -27 3
-37 -4 -4 -3 -18 2 -31 7 -17 6 -24 -3 -24 -7 0 -8 -3 -2 -8 13 -9 14 -75 0
-84 -7 -5 -7 -8 1 -8 11 0 11 -90 0 -108 -3 -6 -2 -13 3 -16 10 -7 9 -25 -2
-43 -4 -6 -3 -14 3 -18 5 -3 10 -11 10 -16 0 -6 -5 -7 -12 -3 -7 5 -8 3 -2 -7
13 -21 14 -39 2 -39 -6 0 -5 -6 2 -15 10 -12 10 -15 -1 -15 -9 0 -10 -3 -4 -8
12 -8 13 -27 3 -37 -4 -4 -3 -18 2 -31 6 -15 6 -26 -1 -30 -7 -4 -6 -10 1 -19
15 -18 -11 -43 -42 -41 -13 1 -25 -2 -29 -6 -3 -4 -18 -9 -35 -11 -16 -2 -35
-6 -41 -10 -6 -4 -23 -8 -37 -9 -14 -1 -26 -5 -26 -8 0 -3 -8 -6 -17 -7 -10
-1 -31 -4 -48 -8 -16 -4 -35 -8 -42 -9 -7 -1 -16 -5 -19 -9 -4 -4 -17 -7 -29
-7 -11 0 -26 -5 -33 -12 -9 -9 -12 -9 -12 1 0 10 -3 11 -14 2 -14 -12 -55 -23
-88 -25 -10 0 -18 -3 -18 -7 0 -7 -78 -29 -112 -32 -10 -1 -18 -4 -18 -8 0 -4
-11 -6 -25 -5 -14 2 -30 -2 -35 -9 -6 -7 -19 -12 -28 -10 -9 1 -20 -3 -24 -9
-4 -6 -10 -7 -14 -3 -4 4 -8 1179 -8 2611 0 2146 -2 2603 -13 2603 -7 0 -13
-4 -13 -8 0 -4 -11 -10 -25 -13 -14 -4 -25 -11 -25 -17 0 -6 -4 -8 -9 -4 -5 3
-12 1 -16 -5 -4 -6 -11 -8 -16 -5 -5 4 -9 -2 -9 -11 0 -10 -3 -15 -6 -11 -8 8
-64 -21 -64 -33 0 -5 -6 -7 -13 -4 -8 3 -20 -2 -27 -10 -7 -9 -16 -13 -21 -10
-5 3 -9 1 -9 -5 0 -5 -10 -13 -22 -17 -13 -3 -35 -15 -49 -25 -14 -10 -29 -16
-33 -12 -3 3 -6 2 -6 -3 0 -6 -16 -16 -35 -24 -19 -8 -35 -18 -35 -23 0 -5 -6
-7 -12 -4 -7 2 -21 -5 -30 -15 -9 -11 -19 -19 -22 -19 -13 1 -108 -48 -126
-64 -11 -10 -20 -14 -20 -10 0 4 -10 0 -22 -11 -14 -13 -19 -14 -14 -4 5 11 4
10 -6 -1 -8 -9 -36 -28 -63 -41 -78 -39 -119 -62 -126 -72 -4 -5 -14 -6 -23
-3 -9 4 -15 1 -13 -6 1 -7 -6 -11 -17 -9 -10 2 -15 -1 -12 -6 5 -9 -11 -21
-25 -18 -4 0 -16 -7 -26 -17 -11 -9 -23 -14 -26 -10 -4 3 -7 1 -7 -5 0 -6 -10
-14 -22 -18 -13 -3 -35 -15 -50 -26 -16 -11 -28 -16 -28 -11 0 4 -4 4 -8 -2
-8 -11 -22 -19 -157 -90 -49 -26 -93 -52 -97 -58 -4 -6 -10 -8 -14 -4 -4 3
-15 -3 -25 -15 -13 -14 -19 -16 -19 -7 0 9 -3 10 -8 4 -8 -11 -67 -51 -67 -45
0 2 -19 -9 -42 -23 -24 -15 -47 -27 -53 -27 -5 0 -10 -5 -10 -11 0 -5 -4 -7
-10 -4 -5 3 -10 1 -10 -5 0 -6 -5 -8 -10 -5 -6 3 -13 0 -16 -9 -3 -8 -11 -13
-18 -10 -7 3 -20 -4 -30 -15 -10 -11 -23 -18 -27 -15 -5 3 -9 0 -9 -6 0 -6 -4
-8 -10 -5 -5 3 -10 1 -10 -6 0 -7 -3 -10 -6 -6 -3 3 -14 -2 -24 -11 -16 -13
-17 -19 -7 -31 7 -8 7 -12 1 -8 -7 4 -10 -8 -10 -33 1 -22 6 -40 11 -40 6 0 4
-4 -4 -9 -13 -8 -13 -12 0 -27 8 -10 9 -15 3 -11 -7 4 -10 -8 -10 -33 1 -22 6
-40 11 -40 6 0 4 -4 -4 -9 -13 -8 -13 -12 0 -27 8 -10 9 -15 3 -11 -7 4 -10
-8 -10 -33 1 -22 6 -40 11 -40 6 0 4 -4 -4 -9 -13 -8 -13 -12 0 -27 8 -10 9
-15 3 -11 -7 4 -10 -8 -10 -33 1 -22 6 -40 11 -40 6 0 4 -4 -4 -9 -13 -8 -13
-12 0 -27 8 -10 9 -15 3 -11 -7 4 -10 -8 -10 -33 1 -22 6 -40 11 -40 6 0 4 -4
-4 -9 -13 -8 -13 -12 0 -27 8 -10 9 -15 3 -11 -7 4 -10 -8 -10 -33 1 -22 6
-40 11 -40 6 0 4 -4 -4 -9 -13 -8 -13 -12 0 -27 8 -10 9 -15 3 -11 -7 4 -10
-8 -10 -33 1 -22 6 -40 11 -40 6 0 4 -4 -4 -9 -13 -8 -13 -12 0 -27 8 -10 9
-15 3 -11 -7 4 -10 -8 -10 -33 0 -22 4 -36 10 -33 5 4 6 1 1 -7 -10 -16 -15
-111 -5 -105 3 2 7 -2 7 -10 0 -8 -3 -12 -7 -10 -4 2 -6 -14 -6 -35 1 -22 6
-40 11 -40 6 0 4 -4 -4 -9 -13 -8 -13 -12 0 -27 8 -10 9 -15 3 -11 -7 4 -10
-8 -10 -33 1 -22 6 -40 11 -40 6 0 4 -4 -4 -9 -13 -8 -13 -12 0 -27 8 -10 9
-15 3 -11 -7 4 -10 -8 -10 -33 1 -22 6 -40 11 -40 6 0 4 -4 -4 -9 -13 -8 -13
-12 0 -27 8 -10 9 -15 3 -11 -7 4 -10 -8 -10 -33 1 -22 6 -40 11 -40 6 0 4 -4
-4 -9 -13 -8 -13 -12 0 -27 8 -10 9 -15 3 -11 -7 4 -10 -8 -10 -33 1 -22 6
-40 11 -40 6 0 4 -4 -4 -9 -13 -8 -13 -12 0 -27 8 -10 9 -15 3 -11 -7 4 -10
-8 -10 -33 1 -22 6 -40 11 -40 6 0 4 -4 -4 -9 -13 -8 -13 -12 0 -27 8 -10 9
-15 3 -11 -7 4 -10 -8 -10 -33 1 -22 6 -40 11 -40 6 0 4 -4 -4 -9 -13 -8 -13
-12 0 -27 8 -10 9 -15 3 -11 -7 4 -10 -8 -10 -33 1 -22 6 -40 11 -40 6 0 4 -4
-4 -9 -13 -8 -13 -12 0 -27 8 -10 9 -15 3 -11 -7 4 -10 -8 -10 -33 1 -22 6
-40 11 -40 6 0 4 -4 -4 -9 -13 -8 -13 -12 0 -27 8 -10 9 -15 3 -11 -14 8 -12
-62 1 -83 6 -9 4 -11 -4 -5 -15 9 -11 -36 4 -47 6 -5 6 -8 -1 -8 -12 0 -12
-29 1 -49 5 -9 4 -12 -2 -8 -6 4 -9 -10 -9 -33 1 -22 6 -40 11 -40 6 0 4 -4
-4 -9 -13 -8 -13 -12 0 -27 8 -10 9 -15 3 -11 -7 4 -10 -8 -10 -33 1 -22 6
-40 11 -40 6 0 4 -4 -4 -9 -13 -8 -13 -12 0 -27 8 -10 9 -15 3 -11 -7 4 -10
-8 -10 -33 1 -22 6 -40 11 -40 6 0 4 -4 -4 -9 -13 -8 -13 -12 0 -27 8 -10 9
-15 3 -11 -7 4 -10 -8 -10 -33 1 -22 6 -40 11 -40 6 0 4 -4 -4 -9 -13 -8 -13
-12 0 -27 8 -10 9 -15 3 -11 -7 4 -10 -8 -10 -33 1 -22 6 -40 11 -40 6 0 4 -4
-4 -9 -13 -8 -13 -12 0 -27 8 -10 9 -15 3 -11 -7 4 -10 -8 -10 -33 1 -22 6
-40 11 -40 6 0 4 -4 -4 -9 -13 -8 -13 -12 0 -27 8 -10 9 -15 3 -11 -7 4 -10
-8 -10 -33 1 -22 6 -40 11 -40 6 0 4 -4 -4 -9 -13 -8 -13 -12 0 -27 8 -10 9
-15 3 -11 -7 4 -10 -8 -10 -33 1 -22 6 -40 11 -40 6 0 4 -4 -4 -9 -13 -8 -13
-12 0 -27 8 -10 9 -15 3 -11 -7 4 -10 -8 -10 -33 1 -22 6 -40 11 -40 6 0 4 -4
-4 -9 -13 -8 -13 -12 0 -27 8 -10 9 -15 3 -11 -7 4 -10 -8 -10 -33 0 -22 4
-36 10 -33 5 4 6 1 1 -7 -10 -16 -15 -111 -5 -105 3 2 7 -2 7 -10 0 -8 -3 -12
-7 -10 -4 2 -6 -14 -6 -35 1 -22 6 -40 11 -40 6 0 4 -4 -4 -9 -13 -8 -13 -12
0 -27 8 -10 9 -15 3 -11 -7 4 -10 -8 -10 -33 1 -22 6 -40 11 -40 6 0 4 -4 -4
-9 -13 -8 -13 -12 0 -27 8 -10 9 -15 3 -11 -7 4 -10 -8 -10 -33 1 -22 6 -40
11 -40 6 0 4 -4 -4 -9 -13 -8 -13 -12 0 -27 8 -10 9 -15 3 -11 -7 4 -10 -8
-10 -33 1 -22 6 -40 11 -40 6 0 4 -4 -4 -9 -13 -8 -13 -12 0 -27 8 -10 9 -15
3 -11 -7 4 -10 -8 -10 -33 1 -22 6 -40 11 -40 6 0 4 -4 -4 -9 -13 -8 -13 -12
0 -27 8 -10 9 -15 3 -11 -7 4 -10 -8 -10 -33 1 -22 6 -40 11 -40 6 0 4 -4 -4
-9 -13 -8 -13 -12 0 -27 8 -10 9 -15 3 -11 -7 4 -10 -8 -10 -33 1 -22 6 -40
11 -40 6 0 4 -4 -4 -9 -13 -8 -13 -12 0 -27 8 -10 9 -15 3 -11 -7 4 -10 -8
-10 -33 1 -22 6 -40 11 -40 6 0 4 -4 -4 -9 -13 -8 -13 -12 0 -27 8 -10 9 -15
3 -11 -7 4 -10 -8 -10 -33 1 -22 6 -40 11 -40 6 0 4 -4 -4 -9 -13 -8 -13 -12
0 -27 8 -10 9 -15 2 -11 -13 8 -11 -62 3 -84 5 -8 3 -10 -5 -4 -15 9 -11 -36
4 -47 6 -5 6 -8 -1 -8 -7 0 -10 -13 -8 -30 3 -27 -3 -35 -28 -31 -4 0 -4 -7
-1 -16 4 -9 2 -14 -4 -10 -5 3 -21 0 -36 -8 -14 -7 -28 -11 -31 -7 -3 3 -6 1
-6 -5 0 -10 -46 -28 -63 -25 -4 1 -6 -3 -5 -10 2 -7 -4 -13 -12 -14 -27 -2
-60 -16 -56 -23 3 -4 -5 -8 -16 -8 -12 -1 -24 -6 -27 -11 -3 -5 -23 -15 -43
-23 -21 -7 -38 -16 -38 -20 0 -4 -13 -10 -30 -14 -16 -4 -30 -11 -30 -16 0 -6
-4 -7 -10 -4 -5 3 -10 1 -10 -4 0 -6 -8 -11 -19 -11 -10 0 -24 -7 -31 -15 -7
-8 -16 -12 -21 -9 -5 3 -9 0 -9 -6 0 -6 -4 -8 -10 -5 -5 3 -10 2 -10 -3 0 -7
-44 -34 -60 -36 -3 -1 -26 -13 -52 -29 -26 -15 -51 -27 -57 -27 -6 0 -11 -5
-11 -11 0 -5 -4 -7 -10 -4 -5 3 -10 2 -10 -3 0 -16 -39 -21 -51 -6 -8 10 -8
14 -1 14 13 0 11 138 -2 159 -6 9 -5 12 2 7 8 -4 10 16 9 69 -1 42 -6 75 -12
75 -5 0 -5 4 2 8 14 9 13 138 -1 161 -6 9 -5 12 2 7 8 -4 10 16 9 69 -1 42 -6
75 -12 75 -5 0 -5 4 2 8 14 9 13 138 -1 161 -6 9 -5 12 2 7 8 -4 10 16 9 69
-1 42 -6 75 -12 75 -5 0 -5 4 2 8 14 9 13 138 -1 161 -6 9 -5 12 2 8 7 -5 10
29 9 108 -1 69 -6 115 -12 115 -6 0 -5 3 1 8 15 9 14 472 -1 472 -6 0 -6 3 1
8 15 9 14 464 -1 474 -6 5 -6 8 2 8 15 0 13 230 -2 230 -5 0 -5 4 2 8 14 9 13
138 -1 161 -6 9 -5 12 2 7 8 -4 10 16 9 69 -1 42 -6 75 -12 75 -5 0 -5 4 2 8
14 9 13 138 -1 161 -6 9 -5 12 2 7 8 -4 10 16 9 69 -1 42 -6 75 -12 75 -5 0
-5 4 2 8 14 9 13 138 -1 161 -6 9 -5 12 2 7 8 -4 10 16 9 69 -1 42 -6 75 -12
75 -5 0 -5 4 2 8 14 9 13 138 -1 161 -6 9 -5 12 2 8 7 -5 10 29 9 108 -1 69
-6 115 -12 115 -6 0 -5 3 1 8 15 9 14 464 -1 474 -7 5 -6 8 1 8 7 0 11 68 10
220 0 121 -4 220 -9 220 -4 0 -5 6 -2 13 4 6 -2 2 -13 -10 -11 -12 -23 -19
-26 -15 -4 3 -10 1 -14 -5 -4 -6 -14 -13 -22 -15 -8 -2 -21 -9 -28 -16 -8 -7
-17 -10 -22 -7 -4 3 -11 -2 -14 -11 -3 -8 -10 -12 -16 -9 -5 3 -10 2 -10 -4 0
-5 -10 -13 -22 -17 -13 -3 -35 -15 -50 -26 -15 -11 -37 -20 -47 -21 -11 0 -18
-4 -15 -8 2 -4 -12 -13 -31 -19 -19 -6 -33 -16 -30 -21 4 -5 -1 -6 -9 -3 -9 3
-16 1 -16 -5 0 -6 -7 -11 -15 -11 -8 0 -15 -5 -15 -11 0 -5 -4 -8 -9 -5 -4 3
-19 -3 -31 -14 -12 -11 -27 -17 -31 -14 -5 3 -9 0 -9 -7 0 -7 -3 -9 -7 -6 -3
4 -13 1 -22 -7 -9 -7 -45 -28 -81 -47 -36 -19 -66 -37 -68 -41 -2 -5 -10 -8
-18 -8 -8 0 -14 -5 -14 -11 0 -5 -5 -7 -12 -3 -6 4 -17 -1 -24 -10 -7 -10 -15
-17 -18 -18 -18 0 -46 -11 -46 -18 0 -7 -28 -18 -46 -18 -3 -1 -12 -9 -21 -19
-9 -11 -12 -12 -8 -3 4 10 2 9 -8 -2 -8 -10 -20 -18 -26 -18 -7 0 -19 -7 -28
-15 -8 -8 -19 -13 -24 -10 -5 4 -9 2 -9 -3 0 -6 -13 -15 -30 -21 -16 -5 -30
-15 -30 -22 0 -7 -3 -10 -6 -6 -3 3 -34 -10 -69 -28 -34 -19 -66 -31 -70 -27
-5 4 -5 2 -2 -4 4 -7 -7 -17 -26 -25 -17 -7 -34 -15 -37 -18 -7 -8 -79 -41
-86 -40 -4 0 -10 -4 -13 -9 -3 -6 -40 -28 -82 -50 -104 -55 -123 -66 -130 -75
-3 -5 -8 -8 -10 -7 -9 4 -59 -24 -59 -32 0 -5 -4 -7 -9 -3 -5 3 -16 -1 -24 -9
-8 -8 -17 -12 -21 -9 -3 3 -8 -1 -12 -10 -3 -9 -12 -13 -20 -10 -8 3 -14 0
-14 -6 0 -6 -5 -11 -11 -11 -6 0 -23 -9 -39 -20 -15 -11 -30 -17 -34 -13 -8 8
-8 5 -10 -99 -1 -58 1 -85 8 -80 6 3 5 -2 -3 -12 -13 -15 -13 -19 0 -27 8 -5
9 -9 2 -9 -13 0 -12 -18 1 -39 6 -9 5 -12 -1 -8 -6 4 -9 -23 -9 -73 0 -45 5
-76 10 -73 5 4 6 1 1 -6 -13 -23 -15 -82 -2 -74 7 4 6 -1 -2 -11 -13 -15 -13
-19 0 -27 8 -5 9 -9 2 -9 -13 0 -12 -18 1 -39 6 -9 5 -12 -1 -8 -6 4 -9 -23
-9 -73 0 -45 5 -76 10 -73 5 4 6 1 1 -6 -13 -23 -15 -82 -2 -74 7 4 6 -1 -2
-11 -13 -15 -13 -19 0 -27 8 -5 9 -9 2 -9 -13 0 -12 -18 1 -39 6 -9 5 -12 -1
-8 -6 4 -9 -23 -9 -73 0 -45 5 -76 10 -73 5 4 6 1 1 -6 -13 -23 -15 -82 -2
-74 7 4 6 -1 -2 -11 -13 -15 -13 -19 0 -27 8 -5 9 -9 2 -9 -13 0 -12 -18 1
-39 6 -9 5 -12 -1 -8 -6 4 -9 -23 -9 -73 0 -45 5 -76 10 -73 5 4 6 1 1 -6 -13
-23 -15 -82 -2 -74 7 4 6 -1 -2 -11 -13 -15 -13 -19 0 -27 8 -5 9 -9 2 -9 -13
0 -12 -18 1 -39 6 -9 5 -12 -1 -8 -6 4 -9 -23 -9 -73 0 -45 5 -76 10 -73 5 4
6 1 1 -6 -13 -23 -15 -82 -2 -74 7 4 6 -1 -2 -11 -13 -15 -13 -19 0 -27 8 -5
9 -9 2 -9 -13 0 -12 -18 1 -39 6 -9 5 -12 -1 -8 -6 4 -9 -23 -9 -73 0 -45 5
-76 10 -73 5 4 6 0 0 -8 -13 -22 -14 -69 -1 -69 8 0 8 -3 2 -8 -16 -11 -17
-34 -3 -43 10 -7 10 -9 -1 -9 -11 0 -11 -3 0 -17 8 -9 9 -14 3 -10 -7 4 -11
-3 -11 -18 0 -14 4 -28 8 -31 5 -3 7 -9 4 -14 -13 -20 -14 -90 -2 -90 7 0 8
-3 2 -8 -16 -11 -17 -34 -3 -43 10 -7 10 -9 -1 -9 -11 0 -11 -3 0 -17 8 -9 9
-14 3 -10 -7 4 -11 -3 -11 -18 0 -14 4 -28 8 -31 5 -3 7 -9 4 -14 -13 -20 -14
-90 -2 -90 7 0 8 -3 2 -8 -16 -11 -17 -34 -3 -43 10 -7 10 -9 -1 -9 -11 0 -11
-3 0 -17 8 -9 9 -14 3 -10 -7 4 -11 -3 -11 -18 0 -14 4 -28 8 -31 5 -3 7 -9 4
-14 -13 -20 -14 -90 -2 -90 7 0 8 -3 2 -8 -16 -11 -17 -34 -3 -43 10 -7 10 -9
-1 -9 -11 0 -11 -3 0 -17 8 -9 9 -14 3 -10 -7 4 -11 -3 -11 -18 0 -14 4 -28 8
-31 5 -3 7 -9 4 -14 -13 -20 -14 -90 -2 -90 7 0 8 -3 2 -8 -16 -11 -17 -34 -3
-43 10 -7 10 -9 -1 -9 -11 0 -11 -3 0 -17 8 -9 9 -14 3 -10 -7 4 -11 -3 -11
-18 0 -14 4 -28 8 -31 5 -3 7 -9 4 -14 -13 -20 -14 -90 -2 -90 7 0 8 -3 2 -8
-16 -11 -17 -34 -3 -43 10 -7 10 -9 -1 -9 -11 0 -11 -3 0 -17 8 -9 9 -14 3
-10 -7 4 -11 -3 -11 -18 0 -14 4 -28 8 -31 5 -3 7 -9 4 -14 -13 -20 -14 -90
-2 -90 7 0 8 -3 2 -8 -16 -11 -17 -34 -3 -43 10 -7 10 -9 -1 -9 -11 0 -11 -3
0 -17 8 -9 9 -14 3 -10 -7 4 -11 -3 -11 -18 0 -14 4 -28 8 -31 5 -3 7 -9 4
-14 -13 -20 -14 -90 -2 -90 7 0 8 -3 2 -8 -16 -11 -17 -34 -3 -43 10 -7 10 -9
-1 -9 -11 0 -11 -3 0 -17 8 -9 9 -14 3 -10 -7 4 -11 -3 -11 -18 0 -14 4 -28 8
-31 5 -3 7 -9 4 -14 -13 -20 -14 -90 -2 -90 7 0 8 -3 2 -8 -16 -11 -17 -34 -3
-43 10 -7 10 -9 -1 -9 -11 0 -11 -3 0 -17 8 -9 9 -14 3 -10 -7 4 -11 -3 -11
-18 0 -14 4 -28 8 -31 5 -3 7 -9 4 -14 -13 -20 -14 -90 -2 -90 7 0 8 -3 2 -8
-16 -11 -17 -34 -3 -43 10 -7 10 -9 -1 -9 -11 0 -11 -3 0 -17 8 -9 9 -14 3
-10 -8 4 -11 -10 -10 -48 0 -30 6 -55 11 -55 6 0 4 -4 -3 -9 -8 -4 -13 -11
-13 -15 1 -3 1 -8 1 -11 0 -2 -20 4 -45 15 -25 11 -45 17 -45 15 0 -3 -16 4
-37 15 -20 10 -40 17 -45 14 -4 -3 -8 -2 -8 3 0 8 -62 33 -87 35 -7 1 -13 6
-13 11 0 5 -7 7 -15 3 -8 -3 -15 -1 -15 5 0 6 -4 7 -10 4 -5 -3 -10 -1 -10 4
0 6 -3 10 -7 10 -5 -1 -10 0 -13 1 -10 3 -45 11 -57 12 -7 1 -13 5 -13 10 0 4
-3 7 -7 6 -8 -1 -57 17 -76 29 -6 3 -7 1 -3 -6 4 -6 -7 -3 -26 7 -18 10 -46
22 -63 27 -16 5 -33 9 -37 10 -5 2 -10 4 -13 5 -3 1 -8 3 -12 4 -5 1 -12 4
-18 7 -16 10 -75 25 -103 28 -7 0 -11 5 -7 10 3 6 -4 8 -15 6 -11 -2 -20 1
-20 6 0 6 -4 7 -10 4 -5 -3 -10 0 -10 7 0 8 -3 9 -8 3 -9 -12 -36 -19 -28 -7
2 4 -8 13 -25 19 -22 9 -28 8 -23 0 5 -8 2 -8 -7 1 -7 6 -21 12 -31 12 -10 0
-18 4 -18 8 0 7 -16 11 -57 14 -7 1 -13 6 -13 11 0 6 -3 7 -7 4 -3 -4 -13 -1
-21 6 -11 8 -14 8 -9 0 5 -7 -4 -6 -23 3 -16 9 -43 16 -60 16 -17 1 -35 7 -41
14 -6 8 -15 11 -20 8 -5 -3 -15 -2 -21 3 -7 4 -21 9 -30 10 -36 6 -43 8 -50
18 -5 6 -8 5 -8 -3 0 -7 -5 -10 -10 -7 -6 4 -8 10 -6 14 3 4 -7 6 -22 6 -15
-1 -32 2 -38 7 -6 4 -24 9 -40 11 -17 2 -35 7 -42 11 -7 4 -16 5 -21 1 -6 -3
-13 0 -18 7 -4 7 -19 14 -33 15 -25 1 -75 10 -75 13 0 1 -11 4 -25 7 -39 7
-55 11 -55 13 0 3 -50 11 -82 13 -17 1 -29 6 -25 11 3 5 -2 7 -11 3 -10 -3
-17 -2 -17 3 0 5 -13 8 -30 6 -16 -2 -30 1 -30 6 0 6 -9 8 -20 5 -11 -3 -22
-1 -25 4 -3 4 -13 5 -22 2 -10 -4 -14 -2 -10 4 4 6 -7 9 -28 8 -19 -1 -35 2
-35 6 0 5 -7 6 -15 3 -8 -4 -15 -2 -15 3 0 5 -15 8 -32 8 -18 0 -37 3 -43 6
-5 4 -26 9 -46 12 -20 2 -42 8 -48 11 -6 4 -11 1 -11 -6 0 -10 -2 -10 -8 0 -5
7 -29 13 -55 15 -26 1 -47 5 -47 9 0 4 -14 6 -30 4 -17 -2 -33 1 -36 6 -3 5
-12 7 -20 4 -8 -3 -14 -2 -14 2 0 4 -17 8 -38 9 -59 4 -77 7 -84 18 -5 6 -8 5
-8 -2 0 -9 -7 -10 -27 -2 -14 5 -32 8 -40 5 -7 -3 -13 -1 -13 4 0 6 -3 9 -7 9
-5 -1 -12 0 -18 1 -5 1 -27 1 -47 0 -24 -1 -38 3 -38 10 0 9 -4 9 -16 -1 -11
-9 -17 -10 -23 -1 -3 6 -15 11 -26 11 -58 0 -95 4 -95 10 0 3 -27 6 -60 6 -33
0 -60 4 -60 9 0 5 -6 3 -14 -3 -10 -9 -16 -8 -26 4 -10 12 -16 13 -26 4 -8 -6
-14 -7 -14 -2 0 5 -22 9 -50 9 -27 -1 -50 2 -50 6 0 4 -12 3 -26 -2 -19 -7
-23 -7 -18 2 5 8 2 9 -9 5 -10 -3 -17 -2 -17 4 0 6 -7 6 -20 -1 -14 -8 -20 -8
-20 0 0 7 -6 8 -19 0 -13 -6 -22 -7 -26 0 -3 5 -19 8 -35 6 -17 -2 -30 1 -30
5 0 5 -5 9 -11 9 -5 0 -7 -5 -3 -11 4 -8 1 -8 -12 -1 -11 5 -28 8 -38 6 -11
-1 -27 1 -36 6 -9 5 -23 4 -32 -1 -11 -6 -19 -5 -24 2 -4 8 -9 7 -15 -2 -5 -8
-9 -9 -9 -3 0 6 -12 10 -27 8 -15 -1 -34 3 -42 9 -12 9 -13 9 -7 -1 6 -9 0
-11 -25 -7 -18 3 -36 8 -41 11 -4 3 -8 0 -8 -6 0 -6 -5 -8 -12 -4 -7 5 -40 8
-74 9 -34 0 -66 3 -69 7 -4 4 -16 3 -26 -3 -14 -7 -19 -6 -19 2 0 8 -4 8 -15
-1 -12 -10 -15 -10 -15 0 0 10 -3 10 -15 0 -12 -10 -15 -10 -15 0 0 10 -3 10
-15 0 -12 -10 -15 -10 -15 0 0 9 -3 10 -13 1 -10 -8 -17 -7 -25 1 -9 9 -12 9
-12 -1 0 -10 -3 -11 -14 -2 -10 9 -16 9 -21 1 -5 -8 -11 -8 -19 -1 -9 7 -17 7
-26 -2 -8 -7 -10 -8 -7 -1 7 13 -50 14 -69 2 -6 -4 -14 -4 -18 -1 -12 13 -48
14 -40 1 5 -7 3 -8 -7 -2 -20 13 -99 13 -99 0 0 -7 -3 -8 -8 -1 -8 12 -27 13
-38 3 -4 -4 -14 -3 -21 4 -11 9 -17 9 -24 -3 -5 -8 -9 -9 -9 -2 0 12 -17 12
-37 0 -8 -5 -13 -4 -13 2 0 13 -22 10 -32 -4 -5 -6 -8 -5 -8 3 0 9 -5 10 -18
3 -11 -6 -24 -6 -32 -1 -8 5 -19 5 -25 1 -12 -9 -26 -8 -42 2 -7 5 -13 4 -13
-1 0 -10 -50 -9 -67 1 -6 4 -14 3 -17 -2 -3 -4 -27 -9 -53 -9 -27 -1 -63 -3
-80 -5 -19 -2 -33 2 -33 7 0 8 -3 8 -8 0 -4 -6 -32 -11 -62 -12 -30 -1 -91 -4
-135 -8 -44 -4 -91 -7 -105 -8 -14 0 -28 -5 -32 -11 -5 -7 -11 -7 -15 0 -9 11
-32 13 -48 4 -5 -3 -20 -4 -32 -3 -13 0 -23 -4 -23 -10 0 -6 -5 -4 -10 4 -5 8
-10 10 -10 5 0 -6 -24 -10 -55 -10 -30 1 -55 -2 -55 -6 0 -3 -14 -5 -31 -3
-16 2 -28 0 -25 -4 2 -4 -17 -7 -42 -6 -26 1 -53 -3 -59 -9 -9 -6 -13 -6 -13
2 0 7 -5 9 -12 4 -15 -9 -30 -12 -83 -14 -22 -1 -46 -7 -52 -12 -9 -6 -13 -5
-13 4 0 9 -3 10 -8 4 -4 -6 -27 -11 -51 -12 -25 -2 -48 -8 -51 -14 -6 -8 -9
-8 -14 0 -5 7 -13 8 -25 2 -9 -6 -26 -8 -37 -7 -10 2 -23 1 -29 -2 -5 -4 -19
-7 -30 -9 -41 -4 -101 -13 -130 -20 -34 -8 -55 -11 -107 -16 -20 -2 -45 -10
-54 -18 -12 -9 -15 -10 -10 -1 4 6 2 12 -3 12 -6 0 -11 -4 -11 -8 0 -5 -14 -7
-30 -6 -17 1 -30 -1 -30 -5 0 -7 -9 -8 -78 -14 -17 -1 -32 -5 -32 -9 0 -4 -10
-7 -22 -7 -21 0 -63 -7 -63 -11 0 -1 -13 -4 -30 -6 -31 -3 -70 -11 -70 -14 0
-1 -16 -4 -35 -7 -19 -2 -38 -10 -42 -16 -6 -9 -8 -8 -8 2 0 10 -4 11 -12 3
-14 -11 -18 -12 -44 -12 -8 0 -13 -4 -10 -8 2 -4 -4 -8 -15 -8 -10 0 -19 4
-19 9 0 5 -6 4 -13 -2 -8 -6 -17 -8 -20 -4 -4 3 -7 0 -7 -7 0 -7 -3 -11 -6 -7
-3 3 -17 2 -29 -3 -16 -6 -25 -5 -29 3 -2 7 -5 6 -5 -4 -1 -10 -9 -15 -23 -14
-21 2 -72 -13 -95 -28 -8 -5 -13 -3 -13 5 0 8 -3 9 -8 3 -4 -5 -14 -12 -22
-13 -8 -2 -24 -6 -35 -9 -11 -3 -31 -7 -45 -10 -14 -3 -31 -11 -39 -17 -12 -9
-13 -8 -7 3 6 9 1 8 -16 -3 -14 -9 -28 -13 -31 -10 -4 4 -13 2 -20 -5 -8 -6
-26 -12 -41 -13 -14 -1 -26 -6 -26 -10 0 -4 -9 -5 -20 -3 -11 2 -20 1 -20 -3
0 -7 -16 -11 -57 -14 -7 -1 -13 -4 -13 -8 0 -4 -10 -7 -23 -6 -12 1 -28 -4
-35 -11 -8 -7 -18 -11 -23 -8 -5 4 -18 -1 -30 -9 -12 -8 -28 -12 -35 -9 -8 3
-14 1 -14 -5 0 -6 -8 -9 -17 -8 -10 2 -20 0 -23 -5 -3 -4 -21 -11 -40 -14 -19
-3 -41 -11 -49 -18 -12 -10 -13 -9 -7 2 6 8 0 7 -18 -4 -14 -9 -33 -15 -41
-11 -8 3 -14 0 -12 -6 1 -7 -5 -12 -13 -13 -31 -1 -80 -17 -80 -25 0 -5 -7 -7
-15 -4 -8 4 -15 2 -15 -3 0 -5 -8 -9 -17 -9 -26 -1 -47 -8 -54 -17 -3 -4 -17
-9 -30 -10 -13 0 -26 -4 -29 -8 -3 -4 -14 -9 -25 -11 -11 -1 -26 -9 -34 -16
-11 -10 -16 -11 -21 -2 -6 9 -9 9 -11 1 -4 -10 -22 -17 -52 -20 -5 -1 -5 -6
-1 -13 4 -7 3 -8 -4 -4 -6 4 -27 0 -47 -8 -19 -8 -35 -12 -35 -8 0 4 -4 1 -9
-6 -4 -7 -18 -14 -29 -15 -12 -1 -22 -5 -22 -9 0 -4 -9 -5 -20 -3 -11 2 -18 0
-15 -5 5 -8 -70 -36 -87 -32 -5 1 -8 -3 -8 -8 0 -6 -9 -10 -20 -10 -11 0 -20
-5 -20 -11 0 -5 -4 -8 -9 -4 -5 3 -12 1 -16 -5 -4 -6 -10 -8 -15 -5 -5 3 -11
1 -15 -5 -4 -6 -11 -8 -16 -5 -5 4 -9 1 -9 -5 0 -7 -6 -10 -14 -7 -8 3 -16 1
-18 -4 -2 -6 -10 -11 -18 -13 -8 -1 -25 -7 -37 -14 -12 -7 -29 -12 -37 -12 -9
0 -16 -4 -16 -10 0 -5 -9 -10 -19 -10 -11 0 -23 -5 -26 -10 -4 -6 -11 -8 -16
-5 -5 4 -9 1 -9 -4 0 -6 -8 -11 -18 -11 -10 0 -27 -7 -38 -15 -12 -8 -24 -12
-26 -9 -3 2 -11 -2 -18 -11 -7 -8 -21 -15 -31 -15 -10 0 -21 -5 -24 -10 -4 -6
-11 -8 -16 -5 -5 4 -9 1 -9 -5 0 -6 -4 -9 -9 -5 -6 3 -14 -3 -20 -12 -6 -10
-11 -15 -11 -10 0 4 -18 -2 -40 -13 -22 -11 -40 -18 -40 -14 0 3 -7 -2 -16
-10 -8 -9 -24 -16 -35 -16 -10 0 -19 -4 -19 -10 0 -5 -6 -10 -14 -10 -22 0
-66 -26 -58 -35 4 -5 1 -5 -6 -1 -8 5 -21 1 -33 -10 -10 -9 -19 -14 -19 -9 0
4 -7 2 -15 -5 -8 -7 -15 -9 -15 -4 0 5 -5 2 -10 -6 -5 -8 -13 -16 -17 -16 -26
-5 -53 -18 -53 -26 0 -5 -4 -6 -10 -3 -5 3 -10 1 -10 -6 0 -7 -3 -9 -7 -6 -3
4 -11 3 -17 -2 -25 -20 -224 -120 -230 -116 -3 3 -4 2 -1 -1 5 -7 -65 -50 -97
-61 -10 -3 -18 -10 -18 -16 0 -6 -3 -7 -6 -4 -4 4 -19 -1 -33 -11 -14 -10 -38
-24 -53 -32 -16 -7 -28 -17 -28 -22 0 -5 -4 -7 -9 -3 -5 3 -17 -2 -25 -11 -9
-8 -16 -13 -16 -9 0 4 -7 -1 -16 -9 -8 -9 -20 -14 -25 -11 -5 4 -9 1 -9 -5 0
-6 -8 -13 -18 -17 -9 -3 -29 -15 -45 -25 -15 -11 -27 -16 -27 -12 0 4 -7 -1
-15 -12 -8 -10 -15 -15 -15 -11 0 4 -10 -1 -22 -12 -11 -11 -25 -18 -30 -15
-4 3 -11 -2 -14 -10 -3 -9 -12 -16 -20 -16 -8 0 -14 -5 -14 -11 0 -5 -4 -8 -9
-5 -5 3 -20 -5 -35 -19 -14 -13 -26 -22 -26 -19 0 3 -13 -4 -29 -15 -16 -12
-34 -21 -40 -21 -6 0 -11 -4 -11 -9 0 -5 -23 -21 -52 -35 -29 -14 -48 -26 -42
-26 5 0 -15 -14 -43 -31 -29 -17 -53 -35 -53 -40 0 -6 -4 -7 -10 -4 -6 3 -10
1 -10 -4 0 -6 -6 -11 -12 -11 -7 0 -28 -13 -47 -29 -19 -17 -38 -28 -41 -26
-4 2 -12 -5 -20 -15 -8 -10 -17 -17 -22 -14 -4 3 -8 1 -8 -3 0 -5 -18 -19 -40
-33 -22 -14 -40 -28 -40 -33 0 -4 -4 -5 -10 -2 -6 3 -10 3 -10 -2 0 -4 -17
-19 -38 -33 -20 -14 -41 -31 -45 -38 -5 -7 -12 -10 -18 -7 -5 4 -9 1 -9 -4 0
-6 -6 -11 -13 -11 -7 0 -19 -9 -27 -20 -8 -11 -20 -20 -28 -20 -7 0 -15 -7
-18 -15 -4 -8 -12 -15 -20 -15 -8 0 -14 -4 -14 -10 0 -5 -4 -10 -10 -10 -6 0
-18 -8 -28 -17 -11 -10 -32 -27 -47 -38 -16 -11 -41 -30 -56 -42 -15 -13 -32
-23 -39 -23 -6 0 -9 -4 -6 -8 2 -4 -15 -20 -40 -36 -24 -15 -44 -33 -44 -39 0
-5 -3 -8 -6 -5 -3 3 -18 -6 -33 -20 -35 -34 -75 -67 -78 -65 -3 3 -66 -52
-117 -101 -23 -21 -41 -37 -42 -35 -1 4 -73 -56 -127 -106 -13 -11 -41 -37
-64 -57 -23 -20 -39 -39 -35 -42 3 -3 0 -6 -7 -6 -19 0 -81 -53 -81 -69 0 -8
-3 -12 -6 -8 -3 3 -22 -10 -42 -29 -20 -19 -40 -34 -45 -34 -4 0 -5 -4 -2 -10
3 -5 2 -10 -4 -10 -5 0 -40 -30 -77 -67 -38 -38 -72 -67 -76 -66 -4 2 -10 -6
-13 -17 -4 -11 -14 -20 -22 -20 -9 0 -13 -3 -10 -6 7 -7 -42 -54 -55 -54 -5 0
-7 -6 -5 -12 1 -7 -3 -12 -10 -11 -6 2 -15 -6 -18 -17 -3 -10 -14 -22 -24 -25
-11 -3 -21 -15 -24 -25 -3 -11 -12 -20 -21 -20 -9 0 -16 -4 -16 -9 0 -13 -111
-126 -121 -124 -5 2 -9 -3 -9 -11 0 -8 -14 -26 -31 -40 -17 -14 -28 -26 -26
-26 3 0 -11 -17 -31 -38 -58 -59 -150 -162 -147 -162 2 0 -12 -15 -30 -34 -19
-18 -35 -38 -35 -45 0 -7 -5 -9 -10 -6 -9 6 -14 -8 -11 -27 0 -5 -5 -7 -12 -5
-6 1 -11 -3 -10 -9 1 -6 -9 -17 -22 -24 -14 -7 -25 -18 -25 -24 0 -7 -9 -18
-20 -26 -11 -8 -20 -18 -20 -22 0 -4 -14 -21 -31 -38 -18 -16 -28 -30 -24 -30
4 0 -3 -10 -17 -22 -33 -31 -98 -113 -98 -124 0 -5 5 -1 11 9 6 9 15 14 21 11
6 -4 9 -3 6 2 -3 5 5 19 18 32 13 12 24 20 24 18 0 -3 25 19 55 49 30 30 55
52 55 49 0 -3 15 9 34 28 18 18 50 47 70 63 20 17 52 44 70 60 76 68 111 95
125 95 8 0 12 3 8 6 -7 7 17 34 30 34 4 0 19 14 32 30 13 16 27 28 31 25 4 -2
26 13 48 34 22 22 43 37 46 34 3 -3 8 2 12 11 3 9 10 14 14 11 4 -3 10 1 13 9
3 8 22 22 42 32 20 9 34 19 31 21 -3 3 18 21 47 41 29 19 55 40 59 46 5 7 8 7
8 1 0 -6 3 -6 8 0 16 23 65 54 75 48 5 -3 7 -2 4 4 -3 5 21 27 53 48 33 21 60
42 60 47 0 4 7 8 15 8 8 0 15 5 15 10 0 6 7 10 15 10 8 0 15 4 15 10 0 5 11
12 25 16 14 4 23 9 20 12 -3 3 12 14 33 23 20 10 50 29 65 43 15 14 27 22 27
18 0 -4 4 -2 8 3 4 6 24 19 44 30 20 10 35 23 32 27 -3 4 4 8 15 8 12 0 21 5
21 11 0 6 7 9 15 5 9 -3 15 0 15 9 0 8 7 15 15 15 8 0 15 5 15 11 0 5 4 8 8 5
5 -3 18 2 29 12 27 24 53 40 95 58 21 9 35 20 32 25 -3 5 0 9 6 9 22 0 80 32
74 41 -3 5 -2 8 3 7 11 -3 104 42 121 59 8 7 18 11 23 8 5 -4 9 -1 9 4 0 6 16
18 36 26 21 8 43 23 51 33 8 9 12 11 8 4 -3 -7 16 1 44 18 28 16 51 27 51 24
0 -3 7 2 16 10 8 9 19 14 23 12 4 -3 13 4 21 14 8 10 17 17 21 14 10 -6 51 16
62 33 4 7 13 10 20 7 7 -2 22 3 32 13 11 10 29 20 40 21 11 2 22 8 23 13 2 5
8 9 14 9 6 0 58 23 117 52 58 28 112 51 119 51 6 0 12 4 12 8 0 4 10 11 23 15
12 4 25 12 29 18 5 7 8 6 8 -3 0 -11 4 -10 16 5 8 10 13 12 9 4 -4 -8 1 -6 9
4 9 11 16 16 16 12 0 -5 6 -4 13 1 6 6 29 16 49 22 21 7 58 23 83 36 25 14 45
22 45 18 0 -3 6 -1 12 4 7 6 25 13 41 17 15 3 27 11 27 16 0 5 9 7 20 5 11 -2
20 0 20 6 0 5 9 9 21 9 13 0 18 4 13 12 -4 7 -3 8 5 4 6 -4 18 -2 26 4 8 7 15
9 15 5 0 -4 7 -2 15 5 8 6 18 9 24 6 5 -3 12 1 15 10 4 9 9 14 13 11 3 -4 12
-2 20 4 7 6 13 8 13 4 0 -4 7 -2 15 5 8 6 19 9 25 5 5 -3 10 -1 10 5 0 6 4 9
9 6 5 -3 12 1 15 10 5 13 9 14 21 4 12 -10 16 -9 21 4 3 9 9 14 13 11 4 -2 18
2 32 9 13 7 31 10 38 8 8 -3 11 0 7 7 -4 7 -2 9 7 5 8 -3 18 -1 22 5 3 6 17
11 30 11 13 0 27 5 30 10 4 6 12 9 18 8 7 -1 22 3 35 10 12 7 27 10 32 7 6 -3
10 -1 10 4 0 6 11 11 25 11 14 0 25 4 25 8 0 5 7 9 15 10 8 1 22 3 30 4 8 1
15 6 15 11 0 6 3 7 7 4 3 -4 13 -1 21 6 13 10 14 9 8 -1 -6 -11 -4 -11 13 -3
12 6 30 16 42 22 16 8 19 8 14 -1 -4 -7 5 -4 21 6 15 11 29 18 31 16 5 -4 57
10 70 20 7 6 13 4 16 -4 4 -11 6 -10 6 0 1 7 6 10 11 7 6 -3 10 -1 10 5 0 6 5
8 10 5 6 -3 10 0 10 7 0 9 3 9 10 -2 5 -8 10 -10 10 -4 0 6 6 11 13 12 19 1
49 9 82 22 17 6 31 11 33 11 1 -1 3 -1 5 0 16 5 47 11 67 13 14 1 33 6 42 10
9 4 25 9 35 11 10 2 18 4 18 5 0 1 11 3 25 6 14 2 32 7 40 11 8 3 24 7 35 8
11 1 29 5 40 8 11 3 36 9 55 12 19 3 37 11 41 17 4 7 13 7 27 -1 17 -9 23 -8
31 6 8 14 10 15 11 3 0 -11 2 -12 8 -3 4 7 22 13 40 15 18 1 32 5 32 9 0 3 14
5 30 4 17 -1 30 1 30 5 0 3 10 7 23 7 32 2 71 9 82 14 6 3 26 6 45 8 19 2 41
8 49 14 12 10 13 9 6 -3 -7 -12 -6 -13 6 -4 8 6 24 10 37 9 12 -1 22 1 22 5 0
3 10 7 23 8 22 1 83 9 124 17 13 2 28 7 34 11 8 5 9 3 4 -5 -6 -10 -3 -11 15
-1 12 6 28 9 36 6 8 -3 14 -2 14 2 0 4 12 8 28 9 15 1 43 4 62 7 19 3 49 7 65
8 17 1 36 6 43 11 8 6 12 5 12 -2 0 -7 5 -9 12 -5 15 9 36 13 103 17 28 1 56
7 64 11 8 5 16 3 22 -5 5 -8 9 -9 9 -4 0 6 24 12 53 13 56 2 97 8 105 16 2 3
13 1 23 -4 10 -6 20 -6 23 -1 3 5 19 7 36 6 16 -1 30 2 30 7 0 7 5 6 13 -1 8
-6 17 -8 20 -5 3 4 21 7 39 8 18 1 39 5 47 10 10 6 12 6 7 -3 -6 -8 0 -11 18
-9 14 2 28 7 32 10 3 4 17 3 31 -3 13 -5 22 -5 19 -1 -3 5 29 8 70 8 42 -1 80
2 86 5 6 4 24 3 39 -1 16 -5 29 -5 29 0 0 4 16 6 35 3 22 -3 35 0 35 7 0 6 5
8 10 5 6 -4 7 -11 4 -17 -5 -7 -1 -7 12 0 11 6 27 7 42 1 23 -9 24 -8 11 7
-13 16 -12 16 7 6 16 -8 24 -8 34 1 10 9 11 9 6 0 -4 -7 -3 -13 1 -13 5 0 15
6 22 13 9 8 12 8 7 0 -4 -8 8 -10 45 -8 28 2 53 6 56 9 4 3 12 1 19 -4 14 -12
36 -10 46 5 5 6 8 5 8 -2 0 -7 7 -13 16 -13 9 0 12 5 8 12 -5 7 -3 8 7 2 21
-13 39 -14 39 -1 0 8 3 8 9 -1 8 -13 46 -13 68 1 6 4 15 2 19 -4 5 -8 3 -9 -6
-4 -9 5 -11 4 -6 -3 5 -8 13 -9 25 -2 12 6 22 5 31 -3 10 -9 11 -9 6 1 -4 6
-2 12 3 12 6 0 11 -6 11 -12 0 -9 4 -8 10 2 9 13 10 13 10 0 0 -12 2 -13 9 -1
7 11 9 11 14 0 5 -12 6 -12 6 0 1 11 4 11 16 1 9 -7 15 -8 15 -2 0 6 13 7 33
3 17 -4 58 -7 89 -7 32 1 58 -3 58 -8 0 -5 6 -4 13 2 7 5 21 6 32 1 32 -12 57
-11 49 4 -6 9 -4 9 7 1 12 -10 35 -13 129 -17 14 -1 28 -6 32 -12 5 -6 8 -5 8
4 0 11 3 11 17 0 15 -12 16 -12 8 1 -7 13 -6 13 7 2 12 -9 18 -10 23 -2 5 8
11 8 19 0 7 -5 24 -10 37 -10 46 0 64 -3 78 -14 12 -9 13 -8 7 3 -7 10 -3 11
15 6 13 -5 42 -9 64 -10 23 -1 45 -4 50 -6 6 -3 25 -5 43 -4 18 1 35 -2 38 -6
3 -5 10 -9 15 -9 6 0 7 6 3 13 -6 9 -4 9 7 1 8 -6 21 -11 29 -11 8 -1 24 -4
34 -9 15 -5 17 -4 11 6 -6 10 -4 11 6 4 17 -11 44 -16 86 -18 18 0 33 -4 33
-8 0 -3 8 -5 18 -3 9 1 23 -2 30 -8 8 -6 12 -6 12 2 0 7 5 9 13 4 14 -9 31
-12 74 -16 18 -1 33 -5 33 -9 0 -4 6 -5 14 -2 8 3 17 0 21 -6 5 -8 11 -8 21 1
8 6 14 7 14 2 0 -6 11 -9 25 -8 14 2 25 0 25 -4 0 -6 41 -12 98 -14 12 -1 22
-4 22 -7 0 -4 17 -7 37 -8 20 -1 39 -5 42 -9 3 -5 20 -9 36 -10 30 -3 70 -10
70 -13 0 -1 9 -3 20 -5 11 -1 32 -5 48 -9 15 -3 39 -8 55 -11 15 -3 36 -9 47
-12 11 -4 27 -8 35 -9 31 -5 45 -10 59 -18 11 -7 12 -6 6 5 -8 12 -6 12 8 0 9
-7 31 -14 49 -16 18 -1 44 -7 58 -12 14 -6 30 -8 36 -6 7 2 15 0 18 -5 3 -5
35 -16 70 -23 36 -7 63 -15 61 -18 -1 -3 8 -7 21 -7 13 -1 32 -5 42 -9 9 -4
24 -9 32 -10 30 -5 45 -10 52 -20 5 -6 8 -4 8 5 0 11 2 12 8 2 5 -7 18 -15 30
-17 12 -3 32 -8 45 -11 12 -3 28 -6 35 -6 6 -1 12 -5 12 -10 0 -4 14 -8 30 -8
17 0 30 -4 30 -8 0 -4 11 -9 26 -10 14 -1 34 -7 45 -12 11 -6 25 -8 31 -4 6 4
8 3 5 -4 -5 -6 8 -13 33 -17 22 -4 40 -10 40 -14 0 -4 12 -8 27 -9 15 -1 29
-5 32 -10 3 -4 17 -9 31 -11 14 -1 27 -6 30 -10 5 -7 28 -13 48 -14 6 0 12 -5
12 -10 0 -6 3 -7 7 -4 3 4 17 0 31 -9 13 -9 22 -11 18 -6 -3 6 7 4 24 -4 16
-9 34 -12 40 -9 6 4 9 1 8 -7 -2 -8 6 -13 20 -12 12 1 22 -3 22 -7 0 -5 3 -8
8 -8 4 1 23 -4 42 -12 19 -7 38 -12 43 -11 4 1 7 -3 7 -9 0 -5 4 -8 9 -4 5 3
12 1 16 -5 4 -6 11 -8 16 -5 5 4 9 1 9 -4 0 -6 10 -11 23 -11 12 0 31 -7 41
-15 10 -8 23 -12 27 -9 5 3 9 0 9 -5 0 -6 3 -10 8 -9 4 1 20 -4 35 -10 16 -7
33 -12 38 -12 6 0 17 -7 26 -16 9 -8 22 -13 29 -10 8 3 14 2 14 -3 0 -4 18
-14 40 -21 22 -7 40 -17 40 -22 0 -5 4 -7 9 -3 5 3 15 -1 23 -8 7 -7 22 -13
33 -13 11 0 19 -5 18 -12 -2 -7 0 -11 5 -10 12 5 92 -25 92 -34 0 -4 9 -8 20
-8 11 0 20 -5 20 -12 0 -6 3 -9 6 -5 3 3 22 -3 41 -14 19 -11 39 -17 44 -14 5
4 12 -1 15 -9 3 -9 10 -14 14 -11 4 3 13 -2 20 -10 7 -8 16 -12 21 -9 5 3 9 0
9 -5 0 -6 6 -11 13 -11 15 0 97 -41 115 -58 8 -7 17 -10 22 -7 5 3 11 1 15 -5
4 -6 11 -8 16 -4 5 3 8 0 7 -7 -2 -7 2 -13 9 -14 6 0 15 -3 19 -7 4 -5 16 -8
26 -8 10 0 21 -7 24 -15 4 -8 15 -15 25 -15 10 0 19 -5 19 -11 0 -5 4 -8 9 -4
5 3 12 1 16 -5 3 -6 21 -17 38 -25 35 -17 106 -56 177 -99 25 -15 60 -33 78
-41 17 -9 32 -19 32 -23 0 -4 16 -14 35 -21 19 -7 35 -17 35 -22 0 -5 9 -9 20
-9 11 0 20 -4 20 -10 0 -5 7 -10 15 -10 8 0 15 -4 15 -10 0 -5 7 -10 15 -10 8
0 15 -4 15 -10 0 -5 7 -10 15 -10 8 0 15 -4 15 -10 0 -5 4 -10 10 -10 9 0 123
-69 147 -90 7 -5 17 -10 23 -10 5 0 10 -4 10 -10 0 -5 5 -10 10 -10 12 0 73
-41 78 -52 2 -5 10 -8 18 -8 8 0 14 -4 14 -10 0 -5 6 -10 14 -10 8 0 17 -7 20
-16 3 -8 10 -12 16 -9 6 3 13 -1 16 -9 3 -9 10 -13 15 -10 5 3 9 0 9 -5 0 -6
5 -11 11 -11 7 0 19 -8 28 -18 9 -9 28 -23 44 -31 15 -8 27 -18 27 -23 0 -4 6
-8 13 -8 6 0 30 -17 52 -37 22 -20 42 -35 43 -34 2 2 14 -6 27 -17 13 -11 26
-18 29 -15 3 4 6 -1 6 -11 0 -9 4 -15 8 -12 5 3 23 -8 40 -24 18 -16 32 -26
32 -22 0 4 7 -2 15 -12 8 -11 15 -16 15 -11 0 4 13 -6 29 -23 16 -16 32 -28
35 -24 3 3 6 0 6 -7 0 -6 12 -16 26 -21 14 -6 22 -14 19 -20 -3 -5 1 -10 9
-10 8 0 19 -8 25 -17 5 -10 13 -16 16 -15 4 2 25 -12 47 -32 22 -20 44 -36 49
-36 5 0 9 -5 9 -11 0 -5 5 -7 12 -3 6 4 8 3 5 -3 -3 -5 3 -17 14 -26 10 -9 19
-14 19 -10 0 4 6 0 13 -8 6 -9 41 -40 77 -70 36 -30 67 -57 68 -61 2 -5 10 -8
18 -8 9 0 13 -4 10 -8 -3 -5 5 -15 16 -23 12 -8 39 -31 60 -51 21 -21 40 -38
42 -38 3 0 42 -36 87 -80 45 -44 83 -80 84 -80 9 0 272 -269 268 -274 -4 -3 1
-6 10 -6 10 0 17 -4 17 -8 0 -5 20 -28 44 -52 25 -24 42 -48 39 -54 -3 -5 -2
-7 3 -4 11 6 45 -28 37 -36 -4 -3 1 -6 10 -6 10 0 17 -3 17 -7 0 -5 20 -29 45
-55 25 -27 45 -52 45 -57 0 -5 9 -13 21 -16 11 -4 18 -9 15 -12 -2 -3 10 -20
29 -38 18 -19 31 -36 29 -38 -3 -2 7 -12 21 -21 14 -9 25 -21 25 -27 0 -5 14
-23 30 -39 17 -16 30 -33 30 -37 0 -5 9 -14 20 -21 11 -7 20 -19 20 -28 0 -8
5 -12 10 -9 6 3 10 2 10 -3 0 -5 8 -18 18 -30 9 -11 27 -34 39 -49 12 -15 31
-38 42 -50 12 -12 21 -25 21 -28 0 -5 32 -44 58 -71 7 -8 11 -14 7 -14 -3 0 4
-11 17 -24 24 -25 43 -49 68 -87 8 -12 23 -31 33 -41 9 -10 17 -22 17 -28 0
-5 5 -10 12 -10 6 0 9 -3 5 -6 -3 -3 4 -15 14 -27 45 -50 84 -107 74 -107 -3
0 6 -11 21 -25 15 -14 24 -25 20 -25 -4 0 -1 -6 6 -14 7 -7 20 -24 28 -36 8
-12 20 -28 25 -34 6 -6 11 -18 13 -26 2 -8 10 -19 18 -23 8 -4 14 -15 14 -23
0 -8 6 -17 14 -20 8 -3 17 -15 20 -27 3 -12 16 -33 28 -47 13 -14 24 -32 26
-40 2 -8 7 -17 10 -20 13 -9 51 -68 54 -82 2 -7 10 -20 18 -28 8 -8 22 -28 30
-45 8 -16 17 -32 20 -35 9 -9 29 -44 51 -87 12 -24 25 -43 30 -43 5 0 9 -9 9
-20 0 -11 3 -20 8 -20 4 0 16 -18 26 -40 11 -22 23 -40 28 -40 4 0 7 -3 6 -7
-1 -5 4 -19 12 -33 8 -14 15 -31 16 -37 1 -7 9 -20 18 -28 9 -9 19 -27 22 -41
3 -13 10 -24 16 -24 5 0 6 -4 3 -10 -3 -5 1 -10 10 -10 9 0 13 -4 10 -10 -6
-10 22 -69 40 -82 6 -4 6 -8 1 -8 -5 0 -1 -9 9 -20 10 -11 15 -20 11 -20 -4 0
2 -14 14 -30 12 -17 18 -30 13 -30 -4 0 -3 -4 2 -8 6 -4 17 -16 25 -26 13 -17
13 -18 1 -11 -9 5 -5 -5 7 -22 12 -17 22 -38 22 -47 0 -9 5 -16 10 -16 6 0 10
-9 10 -20 0 -11 5 -20 11 -20 5 0 7 -4 4 -10 -3 -5 -1 -10 5 -10 7 0 10 -7 6
-15 -3 -8 1 -18 9 -22 7 -5 13 -10 13 -13 -1 -5 11 -34 53 -126 11 -22 19 -46
19 -52 0 -7 5 -12 11 -12 5 0 7 -4 4 -10 -3 -5 -1 -10 5 -10 6 0 8 -5 5 -10
-3 -6 -2 -10 2 -10 5 0 9 -10 10 -22 1 -11 7 -24 13 -28 6 -4 10 -13 8 -21 -2
-8 3 -13 10 -11 8 1 11 -2 7 -8 -3 -5 1 -24 9 -42 8 -18 16 -40 18 -48 2 -8 7
-18 12 -22 5 -3 11 -17 13 -30 2 -13 8 -24 13 -26 5 -2 6 -10 3 -18 -3 -8 0
-14 6 -14 6 0 11 -10 11 -23 0 -13 4 -27 9 -32 5 -6 16 -34 26 -62 9 -29 21
-53 25 -53 5 0 7 -7 4 -15 -4 -8 -1 -15 5 -15 6 0 8 -6 5 -14 -3 -8 -1 -17 5
-20 6 -4 7 -14 4 -23 -5 -12 -3 -14 7 -8 10 6 12 4 7 -8 -3 -10 -2 -17 3 -17
5 0 7 -9 5 -20 -2 -11 0 -18 6 -15 5 4 9 -5 9 -19 0 -14 5 -28 10 -31 6 -3 10
-17 10 -31 0 -13 5 -24 11 -24 5 0 7 -4 4 -10 -3 -6 -1 -10 5 -10 6 0 9 -4 5
-10 -3 -5 1 -25 9 -44 8 -19 12 -37 8 -40 -3 -3 -1 -6 4 -6 5 0 11 -10 11 -22
2 -21 11 -45 34 -90 12 -24 11 -31 -2 -22 -6 3 -3 -5 6 -19 9 -15 14 -31 10
-37 -3 -5 -1 -10 4 -10 6 0 11 -9 11 -19 0 -11 4 -22 10 -26 5 -3 7 -12 4 -19
-3 -8 -1 -17 5 -20 6 -4 8 -13 4 -21 -3 -8 -1 -15 4 -15 10 0 12 -8 15 -55 1
-14 6 -25 11 -25 4 0 5 -4 2 -10 -3 -5 -2 -10 4 -10 6 0 8 -7 5 -15 -4 -9 0
-15 7 -15 11 0 11 -3 -1 -10 -13 -9 -13 -11 -1 -19 8 -5 15 -20 15 -33 1 -12
5 -28 9 -34 3 -6 8 -25 9 -43 1 -17 6 -31 11 -31 5 0 7 -6 4 -14 -3 -8 -3 -17
1 -20 3 -4 8 -17 10 -29 2 -12 5 -27 6 -34 1 -7 5 -15 8 -19 4 -3 4 -12 1 -20
-3 -8 -1 -14 5 -14 6 0 9 -8 8 -17 -2 -10 2 -21 8 -25 8 -6 7 -8 -1 -8 -7 0
-10 -7 -7 -15 4 -8 10 -13 14 -10 5 3 6 -3 3 -13 -2 -10 2 -37 10 -60 9 -25
11 -42 5 -42 -7 0 -7 -5 0 -13 11 -12 18 -41 27 -102 5 -32 11 -61 21 -98 3
-12 5 -34 5 -49 -1 -16 2 -28 7 -28 4 0 8 -8 9 -17 2 -52 8 -93 13 -93 3 0 6
-26 8 -57 2 -32 6 -60 10 -63 4 -3 7 -21 7 -40 -1 -19 2 -42 7 -51 4 -9 2 -22
-5 -29 -9 -10 -9 -11 1 -6 6 4 12 6 13 4 0 -2 3 -32 5 -68 3 -36 11 -68 17
-72 9 -6 8 -8 -2 -8 -9 0 -10 -4 -5 -12 11 -16 11 -39 0 -57 -7 -10 -6 -12 4
-6 9 6 12 -1 8 -28 -2 -20 0 -33 4 -30 5 2 7 -7 4 -21 -3 -14 -2 -26 2 -26 4
0 7 -13 7 -30 1 -17 -4 -30 -10 -30 -5 0 -4 -4 2 -8 7 -5 14 -36 15 -75 2 -37
7 -67 12 -67 5 0 3 -7 -4 -15 -7 -8 -8 -15 -3 -15 5 0 8 -14 7 -32 -1 -17 2
-42 7 -55 6 -15 5 -23 -2 -23 -7 0 -8 -5 -2 -12 5 -7 8 -39 8 -70 0 -32 3 -58
8 -58 4 0 3 -9 -3 -20 -8 -14 -8 -20 0 -20 7 0 7 -7 -1 -22 -10 -18 -9 -20 7
-14 17 7 17 6 0 -13 -9 -10 -13 -22 -8 -25 9 -5 13 -91 14 -308 l1 -118 1968
0 1969 0 0 41 c0 29 4 38 13 34 6 -4 3 1 -7 9 -11 9 -16 16 -10 16 5 0 9 38 9
85 0 47 -4 85 -8 85 -5 0 -5 5 -1 11 11 18 10 109 -1 109 -5 0 -1 7 9 15 12 9
15 15 7 15 -9 0 -12 13 -9 45 2 25 -1 45 -5 45 -5 0 -5 5 -1 11 9 16 11 109 1
109 -5 0 -5 5 -1 11 9 16 11 109 1 109 -5 0 -5 5 -1 11 9 16 11 109 1 109 -5
0 -5 5 -1 11 9 16 11 109 1 109 -5 0 -5 5 -1 12 5 7 7 30 5 51 -1 21 3 45 10
53 10 12 9 13 -6 8 -13 -5 -16 -4 -10 5 10 17 12 111 2 111 -5 0 -5 5 -1 11 9
16 11 229 1 229 -5 0 -5 5 -1 11 9 16 11 109 1 109 -5 0 -5 5 -1 11 9 16 11
109 1 109 -5 0 -5 5 -1 11 9 16 11 109 1 109 -5 0 -5 5 -1 11 9 16 11 109 1
109 -5 0 -5 5 -1 11 10 16 11 149 1 149 -5 0 -5 5 -1 11 9 16 11 109 1 109 -5
0 -5 5 -1 11 9 16 11 109 1 109 -5 0 -5 5 -1 11 9 16 11 109 1 109 -5 0 -5 5
-1 11 9 16 11 109 1 109 -5 0 -5 5 -1 11 10 16 11 149 1 149 -5 0 -5 5 -1 11
9 16 11 109 1 109 -5 0 -5 5 -1 11 9 16 11 109 1 109 -5 0 -5 5 -1 11 9 16 11
109 1 109 -5 0 -5 5 -1 11 9 16 11 109 1 109 -5 0 -5 5 -1 11 10 16 11 149 1
149 -5 0 -5 5 -1 11 9 16 11 109 1 109 -5 0 -5 5 -1 11 9 16 11 109 1 109 -5
0 -5 5 -1 11 9 16 11 109 1 109 -5 0 -5 5 -1 11 8 14 11 109 3 109 -3 0 -4 11
-1 25 2 14 9 22 16 19 6 -3 2 2 -8 10 -11 9 -16 16 -10 16 5 0 9 38 9 85 0 47
-4 85 -8 85 -5 0 -5 5 -1 11 11 18 10 109 -1 109 -5 0 -1 7 9 15 12 9 15 15 7
15 -9 0 -12 13 -9 45 2 25 -1 45 -5 45 -5 0 -5 5 -1 11 9 16 11 109 1 109 -5
0 -5 5 -1 11 9 16 11 109 1 109 -5 0 -5 5 -1 11 9 16 11 109 1 109 -5 0 -5 5
-1 11 9 16 11 109 1 109 -5 0 -5 5 -1 12 5 7 7 30 5 51 -1 21 3 45 10 53 10
12 9 13 -6 8 -13 -5 -16 -4 -10 5 10 17 12 111 2 111 -5 0 -6 4 -2 9 9 15 11
831 2 831 -5 0 -5 5 -1 11 9 16 11 109 1 109 -5 0 -5 5 -1 12 5 7 7 30 5 51
-1 21 3 45 10 53 10 12 9 13 -6 8 -13 -5 -16 -4 -10 5 10 17 12 111 2 111 -5
0 -5 5 -1 11 9 16 11 109 1 109 -5 0 -5 5 -1 11 9 16 11 109 1 109 -5 0 -5 5
-1 11 9 16 11 109 1 109 -5 0 -5 5 -1 12 5 7 7 30 5 52 -2 24 2 42 11 47 10 7
9 9 -5 9 -11 0 -15 5 -11 11 9 16 11 109 1 109 -5 0 -5 5 -1 11 9 16 11 109 1
109 -5 0 -5 4 -2 10 3 5 6 179 5 386 0 301 2 374 12 369 7 -4 4 1 -6 9 -11 9
-16 16 -10 16 5 0 9 38 9 85 0 47 -4 85 -8 85 -5 0 -5 5 -1 11 11 18 10 109
-1 109 -5 0 -1 7 9 15 12 9 15 15 7 15 -9 0 -12 13 -9 45 2 25 -1 45 -5 45 -5
0 -5 5 -1 11 9 16 11 109 1 109 -5 0 -5 5 -1 11 9 16 11 109 1 109 -5 0 -5 5
-1 11 9 16 11 109 1 109 -5 0 -5 5 -1 11 9 16 11 109 1 109 -5 0 -5 5 -1 12 5
7 7 30 5 51 -1 21 3 45 10 53 10 12 9 13 -6 8 -13 -5 -16 -4 -10 5 10 17 12
111 2 111 -5 0 -5 5 -1 12 4 6 6 36 5 66 -2 42 0 53 11 47 7 -3 4 1 -6 9 -11
9 -16 16 -10 16 5 0 9 38 9 85 0 47 -4 85 -8 85 -5 0 -5 5 -1 11 11 18 10 109
-1 109 -5 0 -1 7 9 15 12 9 15 15 7 15 -9 0 -12 13 -9 45 2 25 -1 45 -5 45 -5
0 -5 5 -1 11 9 16 11 109 1 109 -5 0 -5 5 -1 11 9 16 11 109 1 109 -5 0 -5 5
-1 11 9 16 11 109 1 109 -5 0 -5 5 -1 11 9 16 11 109 1 109 -5 0 -5 5 -1 12 5
7 7 30 5 51 -1 21 3 45 10 53 10 12 9 13 -6 8 -13 -5 -16 -4 -10 5 11 18 12
111 1 111 -5 0 -5 5 0 13 5 6 7 168 4 359 l-5 348 -47 -24 c-27 -13 -48 -22
-48 -19 0 3 -11 -2 -25 -11 -13 -9 -31 -16 -40 -16 -9 0 -14 -4 -10 -9 3 -6
-4 -8 -15 -6 -11 2 -20 0 -20 -6 0 -5 -3 -8 -7 -8 -5 1 -21 -3 -38 -10 -16 -6
-33 -10 -36 -9 -3 2 -13 -5 -23 -15 -10 -9 -22 -15 -27 -12 -5 4 -9 1 -9 -4 0
-6 -3 -10 -7 -9 -9 1 -19 -3 -100 -38 -28 -12 -54 -20 -57 -16 -3 3 -6 0 -6
-6 0 -7 -9 -12 -19 -12 -11 0 -26 -7 -34 -15 -8 -8 -17 -11 -21 -8 -3 4 -6 1
-6 -5 0 -6 -7 -9 -15 -6 -8 4 -15 1 -15 -5 0 -6 -3 -10 -7 -9 -12 4 -77 -24
-85 -36 -5 -7 -8 -5 -8 4 0 13 -1 13 -10 0 -5 -8 -13 -15 -17 -16 -4 0 -19 -5
-33 -11 -14 -6 -42 -18 -62 -26 -21 -9 -38 -13 -38 -9 0 4 -4 1 -9 -7 -5 -8
-18 -16 -28 -17 -9 -2 -19 -7 -21 -13 -2 -5 -9 -8 -16 -5 -8 3 -21 -2 -29 -11
-9 -9 -18 -15 -19 -14 -2 1 -19 -5 -38 -13 -19 -8 -55 -24 -80 -34 -25 -10
-48 -22 -51 -27 -3 -5 -9 -8 -13 -8 -5 1 -25 -7 -86 -34 -3 -2 -15 -6 -27 -10
-13 -4 -23 -12 -23 -17 0 -5 -5 -6 -11 -3 -6 4 -17 -1 -25 -11 -9 -11 -12 -12
-8 -4 7 12 5 13 -8 3 -8 -7 -19 -9 -23 -5 -5 4 -5 2 -2 -5 7 -12 -47 -36 -57
-26 -3 4 -6 -1 -6 -11 0 -9 -4 -14 -10 -11 -5 3 -29 -5 -54 -19 -24 -13 -47
-22 -50 -19 -3 3 -8 -2 -12 -11 -5 -14 -9 -14 -22 -4 -13 11 -14 11 -8 0 5 -8
-5 -17 -31 -28 -21 -9 -41 -21 -44 -26 -3 -5 -8 -9 -10 -7 -9 5 -49 -13 -49
-22 0 -6 -4 -8 -9 -4 -5 3 -12 1 -16 -5 -4 -6 -11 -8 -16 -5 -5 4 -9 1 -9 -5
0 -6 -4 -9 -8 -6 -5 3 -8 -12 -7 -32 1 -20 -2 -45 -7 -54 -5 -10 -4 -19 2 -23
5 -3 10 -11 10 -16 0 -6 -6 -7 -12 -3 -10 6 -10 5 -1 -7 7 -9 8 -20 3 -29 -5
-8 -6 -19 -3 -24 11 -17 9 -56 -2 -56 -6 0 -7 -3 0 -8 6 -4 10 -16 10 -27 0
-11 -4 -23 -10 -27 -7 -5 -6 -8 0 -8 14 0 13 -73 0 -82 -7 -5 -6 -8 1 -8 11 0
11 -90 0 -108 -3 -6 -2 -13 3 -16 10 -7 9 -25 -2 -43 -4 -6 -3 -14 3 -18 5 -3
10 -11 10 -16 0 -6 -5 -7 -12 -3 -7 5 -8 3 -2 -7 13 -21 14 -39 2 -39 -6 0 -5
-6 2 -15 10 -12 10 -15 -1 -15 -9 0 -10 -3 -4 -8 12 -8 13 -27 3 -37 -4 -4 -3
-18 2 -31 7 -17 6 -24 -3 -24 -7 0 -8 -3 -2 -8 13 -9 14 -75 0 -84 -7 -5 -7
-8 1 -8 9 0 12 -72 4 -105 -1 -5 -1 -12 0 -15 7 -19 7 -41 -1 -46 -5 -3 -6
-11 -2 -17 11 -18 11 -47 0 -47 -6 0 -6 -5 0 -12 10 -14 10 -64 0 -74 -4 -4
-1 -16 4 -27 8 -15 8 -22 -2 -28 -9 -6 -10 -9 -2 -9 11 0 12 -24 1 -36 -4 -3
-3 -17 2 -30 6 -16 6 -24 -1 -24 -6 0 -7 -6 -2 -12 12 -20 11 -58 -1 -58 -7 0
-7 -3 -1 -8 13 -9 14 -75 0 -84 -7 -5 -7 -8 1 -8 11 0 11 -90 0 -108 -3 -6 -2
-13 3 -16 10 -7 9 -25 -2 -43 -4 -6 -3 -14 3 -18 5 -3 10 -11 10 -16 0 -6 -5
-7 -12 -3 -7 5 -8 3 -2 -7 13 -21 14 -39 2 -39 -6 0 -5 -6 2 -15 10 -12 10
-15 -1 -15 -9 0 -10 -3 -4 -8 12 -8 13 -27 3 -37 -4 -4 -3 -18 2 -31 7 -17 6
-24 -3 -24 -7 0 -8 -3 -2 -8 13 -9 14 -75 0 -84 -7 -5 -7 -8 1 -8 11 0 11 -90
0 -108 -3 -6 -2 -13 3 -16 10 -7 9 -25 -2 -43 -4 -6 -3 -14 3 -18 5 -3 10 -11
10 -16 0 -6 -5 -7 -12 -3 -7 5 -8 3 -2 -7 13 -21 14 -39 2 -39 -6 0 -5 -6 2
-15 10 -12 10 -15 -1 -15 -9 0 -10 -3 -4 -8 12 -8 13 -27 3 -37 -4 -4 -3 -18
2 -31 7 -17 6 -24 -3 -24 -7 0 -8 -3 -2 -8 13 -9 14 -75 0 -84 -7 -5 -7 -8 1
-8 11 0 11 -90 0 -108 -3 -6 -2 -13 3 -16 10 -7 9 -25 -2 -43 -4 -6 -3 -14 3
-18 5 -3 10 -11 10 -16 0 -6 -5 -7 -12 -3 -7 5 -8 3 -2 -7 13 -21 14 -39 2
-39 -6 0 -5 -6 2 -15 10 -12 10 -15 -1 -15 -9 0 -10 -3 -4 -8 12 -8 13 -27 3
-37 -4 -4 -3 -18 2 -31 7 -17 6 -24 -3 -24 -7 0 -8 -3 -2 -8 13 -9 14 -75 0
-84 -7 -5 -7 -8 1 -8 11 0 11 -90 0 -108 -3 -6 -2 -13 3 -16 10 -7 9 -25 -2
-43 -4 -6 -3 -14 3 -18 5 -3 10 -11 10 -16 0 -6 -5 -7 -12 -3 -7 5 -8 3 -2 -7
13 -21 14 -39 2 -39 -6 0 -5 -6 2 -15 10 -12 10 -15 -1 -15 -9 0 -10 -3 -4 -8
12 -8 13 -27 3 -37 -4 -4 -3 -18 2 -31 7 -17 6 -24 -3 -24 -7 0 -8 -3 -2 -8
13 -9 14 -75 0 -84 -7 -5 -7 -8 1 -8 11 0 11 -90 0 -108 -3 -6 -2 -13 3 -16
10 -7 9 -25 -2 -43 -4 -6 -3 -14 1 -17 10 -6 9 -36 -2 -54 -4 -6 -3 -12 2 -12
10 0 9 -56 -1 -66 -3 -4 -1 -16 4 -27 8 -15 8 -22 -2 -28 -9 -6 -10 -9 -2 -9
13 0 12 -18 -1 -39 -7 -11 -6 -12 5 -6 12 8 12 6 0 -8 -7 -10 -9 -17 -3 -17
11 0 10 -25 -1 -36 -4 -4 -2 -13 4 -20 16 -20 1 -37 -17 -20 -8 8 -14 18 -14
22 0 3 -20 35 -46 70 -25 35 -43 64 -40 64 4 0 -2 9 -11 19 -21 23 -27 31 -70
93 -18 25 -33 50 -33 55 0 5 -9 15 -20 23 -11 8 -20 20 -20 26 0 7 -3 14 -7
16 -10 4 -73 85 -73 92 0 6 -24 37 -47 61 -7 8 -13 18 -13 23 0 6 -7 13 -16
16 -9 4 -15 9 -12 12 3 3 -7 19 -23 37 -15 18 -29 37 -31 42 -1 6 -14 22 -28
37 -34 35 -50 56 -50 63 0 3 -13 19 -30 35 -16 16 -30 32 -30 35 0 4 -6 13
-12 20 -7 8 -24 28 -38 45 -14 17 -40 47 -57 67 -18 19 -33 38 -33 43 0 4 -6
12 -12 18 -10 8 -13 267 -12 1236 0 674 -3 1226 -8 1226 -4 0 -8 -4 -8 -10 0
-5 -7 -10 -15 -10 -9 0 -25 -9 -37 -20 -12 -10 -24 -17 -28 -15 -5 3 -10 -2
-14 -10 -3 -8 -12 -15 -21 -15 -8 0 -15 -4 -15 -8 0 -4 -15 -16 -32 -27 -18
-10 -39 -26 -46 -34 -11 -13 -12 -13 -7 -1 4 8 -4 3 -17 -12 -14 -15 -28 -25
-31 -22 -3 3 -14 -3 -25 -13 -37 -33 -51 -43 -61 -43 -5 0 -12 -7 -15 -16 -3
-8 -10 -12 -16 -9 -5 3 -10 -1 -10 -10 0 -9 -4 -13 -10 -10 -5 3 -10 1 -10 -4
0 -6 -7 -11 -15 -11 -8 0 -15 -4 -15 -8 0 -4 -12 -15 -27 -24 -16 -10 -41 -28
-58 -42 -35 -30 -37 -32 -90 -70 -22 -17 -43 -35 -47 -40 -4 -6 -8 -7 -8 -2 0
5 -10 -3 -23 -17 -12 -15 -26 -27 -30 -27 -4 0 -15 -8 -26 -17 -10 -10 -38
-34 -62 -53 -24 -19 -54 -45 -66 -57 -13 -12 -23 -19 -23 -16 0 3 -12 -6 -26
-21 -15 -14 -31 -26 -36 -26 -5 0 -6 -4 -3 -10 3 -5 1 -10 -4 -10 -12 0 -47
-29 -118 -97 -23 -22 -43 -39 -43 -36 0 2 -16 -12 -35 -31 -19 -20 -35 -33
-35 -29 -1 5 -7 -3 -15 -17 -8 -14 -14 -22 -15 -18 0 4 -37 -29 -82 -73 -46
-43 -84 -74 -86 -69 -2 6 -9 10 -16 10 -14 0 -52 42 -48 53 1 5 -2 6 -7 3 -5
-3 -24 8 -42 24 -19 16 -42 32 -52 36 -9 3 -15 10 -12 15 4 5 0 9 -7 9 -7 0
-33 18 -58 40 -62 55 -67 59 -71 56 -2 -1 -17 10 -33 25 l-29 28 36 21 c20 12
34 26 31 31 -3 5 1 9 8 9 7 0 22 11 32 25 10 13 22 22 27 19 5 -3 9 0 9 6 0 5
14 23 31 38 40 36 136 124 177 163 17 17 32 28 32 26 0 -3 12 7 28 21 56 55
124 112 134 112 5 0 6 5 3 10 -3 6 1 10 9 10 8 0 24 12 35 26 12 15 21 23 21
18 0 -5 13 6 29 24 17 17 33 32 36 32 12 0 70 53 67 62 -1 4 1 7 5 6 11 -3
103 64 103 74 0 4 7 8 15 8 8 0 15 5 15 10 0 6 6 9 13 8 6 -2 11 3 9 10 -1 6
4 12 11 12 7 0 26 12 44 28 53 47 73 62 73 55 0 -4 14 6 30 22 17 16 30 26 30
22 0 -4 8 1 18 11 29 26 62 52 68 52 5 0 23 14 54 42 10 9 21 14 24 11 3 -3 8
2 12 11 3 9 12 16 19 16 6 0 24 11 38 24 14 13 28 21 31 18 3 -3 6 0 6 7 0 7
4 10 9 6 5 -3 16 4 24 15 7 11 17 17 20 13 4 -3 7 -1 7 5 0 7 7 12 15 12 8 0
23 9 32 19 9 11 20 18 25 15 4 -3 11 2 14 10 3 9 15 16 25 16 10 0 19 4 19 9
0 5 25 24 56 43 31 18 70 41 88 52 17 10 34 23 38 30 4 6 8 7 8 2 0 -5 11 1
25 14 14 13 25 20 25 16 0 -4 15 3 32 16 43 30 89 57 111 64 9 4 17 11 17 16
0 5 5 6 10 3 6 -3 13 1 16 9 3 9 10 14 14 11 5 -3 16 2 24 11 9 8 16 13 16 9
0 -4 12 3 26 14 15 11 30 19 34 16 4 -3 10 2 14 10 3 8 15 15 26 15 11 0 20 4
20 10 0 5 11 12 25 16 14 3 25 10 25 16 0 5 4 7 9 3 6 -3 14 2 19 11 5 9 13
15 18 15 18 -2 44 11 44 21 0 5 7 8 15 4 8 -3 15 0 15 6 0 6 3 9 6 5 3 -3 16
3 27 14 12 11 27 17 34 15 7 -3 13 -1 13 4 0 6 7 10 15 10 9 0 18 6 21 13 2 7
14 14 26 14 12 1 24 6 27 10 9 11 94 53 109 53 6 0 12 5 12 11 0 6 7 8 16 5 8
-3 12 -2 9 4 -6 9 8 14 28 11 4 0 7 3 7 7 0 5 18 14 40 21 22 6 40 16 40 21 0
6 3 10 8 9 15 -2 52 14 52 23 0 6 7 8 15 4 8 -3 15 -1 15 5 0 6 5 7 10 4 6 -3
10 -1 10 5 0 7 6 10 14 7 8 -3 17 1 20 9 3 8 9 13 13 12 12 -2 60 20 67 31 4
6 13 8 21 4 8 -3 15 0 15 7 0 7 8 9 22 5 17 -6 20 -4 15 9 -4 10 -3 15 1 12 5
-3 19 1 33 8 13 7 30 11 37 8 6 -2 12 1 12 7 0 6 7 11 16 11 9 0 29 9 45 21
16 11 29 18 29 14 0 -3 10 1 23 9 12 8 24 15 27 16 27 4 50 14 50 22 0 5 5 6
10 3 6 -3 10 0 10 7 0 10 2 10 9 -1 7 -11 11 -10 20 5 6 11 11 15 11 10 0 -5
6 -4 13 1 6 5 35 18 62 28 28 10 53 22 56 27 3 5 16 10 27 11 12 1 22 5 22 10
0 5 6 7 12 5 7 -3 19 1 26 9 7 7 22 13 33 13 10 0 19 5 19 11 0 6 7 9 15 5 8
-3 15 -1 15 4 0 6 9 10 20 10 11 0 20 5 20 10 0 6 3 9 8 8 4 -2 27 6 52 16 25
10 46 18 47 17 2 0 24 11 49 24 26 14 50 22 55 19 5 -3 9 0 9 6 0 6 4 9 9 5 6
-3 14 3 20 12 8 14 10 15 11 3 0 -9 3 -11 8 -4 6 9 67 38 82 39 3 0 15 6 26
13 12 6 24 8 28 5 3 -3 6 -2 6 4 0 10 39 26 70 28 8 0 14 7 12 13 -1 7 3 12
10 11 7 -1 24 3 38 8 71 31 86 36 93 35 4 -1 7 3 7 9 0 5 4 8 9 4 5 -3 13 0
16 6 4 5 13 8 21 5 8 -3 14 -1 14 4 0 9 39 26 53 22 4 -1 7 2 7 6 0 6 54 31
80 37 3 1 34 15 70 32 66 31 128 59 188 84 17 8 32 17 32 21 0 5 3 7 8 6 13
-4 52 13 52 22 0 5 7 7 15 4 8 -4 15 -1 15 6 0 6 4 9 9 5 5 -3 12 -1 16 5 4 6
11 8 16 5 5 -4 9 -1 9 4 0 6 7 11 15 11 8 0 15 5 15 11 0 5 4 8 9 4 5 -3 16 2
25 10 8 9 17 15 18 14 5 -3 53 13 58 20 11 13 51 31 59 26 5 -3 12 2 15 11 3
8 10 12 16 9 5 -3 10 -1 10 5 0 6 5 8 10 5 6 -3 10 -1 10 5 0 6 5 8 10 5 6 -3
10 -1 10 4 0 6 7 11 16 11 8 0 22 7 30 15 9 8 24 15 35 15 10 0 19 4 19 8 0
11 51 36 68 33 6 -1 12 3 12 9 0 6 14 16 30 21 17 6 30 15 30 20 0 5 3 8 8 7
8 -1 45 13 52 21 6 7 38 25 117 67 34 17 59 35 56 38 -4 3 1 6 10 6 8 0 23 7
31 16 9 8 16 12 16 7 0 -4 4 -3 8 4 4 6 14 13 22 15 8 2 22 10 30 18 8 8 22
16 30 18 8 2 17 7 20 10 9 12 89 62 100 62 5 0 10 4 10 9 0 5 9 13 20 16 11 3
26 12 33 18 6 7 39 30 72 52 33 22 63 44 67 50 4 5 8 7 8 3 0 -5 9 1 20 12 11
11 27 20 36 20 8 0 13 4 10 9 -3 5 8 14 24 21 16 7 27 16 24 21 -3 5 1 9 9 9
8 0 30 15 50 34 20 18 38 32 40 29 3 -2 18 8 35 24 16 15 42 37 58 48 15 11
40 32 55 47 15 14 30 24 33 21 2 -3 10 5 16 17 6 12 14 19 17 17 2 -3 18 9 34
25 16 17 29 28 29 24 0 -4 6 -1 14 6 8 7 12 16 9 21 -2 4 0 7 5 7 6 0 27 16
48 35 22 19 43 35 47 35 5 0 6 4 3 9 -3 4 6 13 19 19 14 7 25 16 25 22 0 5 6
10 14 10 8 0 18 9 21 20 3 11 9 20 13 20 12 0 62 47 62 59 0 6 3 11 8 10 13
-2 52 13 52 20 0 4 25 20 55 36 30 15 55 32 55 37 0 5 5 6 10 3 6 -3 10 -1 10
5 0 6 4 9 9 6 5 -3 14 1 21 9 7 8 16 12 21 9 5 -3 12 2 15 10 3 9 10 14 14 11
5 -3 14 1 22 8 7 7 16 14 21 15 4 1 20 8 35 15 15 8 35 13 44 12 10 -2 16 2
15 8 -1 7 4 11 11 10 6 -2 12 2 12 8 0 5 5 7 10 4 6 -3 10 -1 10 5 0 6 5 8 10
5 6 -3 10 -2 10 2 0 5 10 9 22 10 11 1 24 7 28 13 4 7 11 12 16 11 18 -1 60
13 80 26 11 7 23 11 26 8 3 -3 18 1 33 9 16 8 32 13 37 10 4 -3 8 0 8 7 0 7 3
10 6 6 3 -3 23 1 45 8 21 8 39 11 39 7 0 -4 4 -1 9 7 5 8 22 15 38 15 15 1 34
5 41 9 6 5 12 6 12 2 0 -3 8 -1 18 4 9 5 35 12 57 15 22 4 48 9 58 12 11 3 29
8 40 9 12 2 40 7 62 10 22 4 47 7 55 7 8 1 21 6 29 12 12 9 13 8 6 -3 -6 -11
-5 -12 6 -5 16 10 20 10 72 12 25 1 36 6 31 13 -5 8 -1 8 13 0 11 -6 23 -8 26
-4 6 6 45 11 114 14 25 1 40 6 36 12 -4 6 -1 7 7 2 18 -11 62 -11 79 0 17 10
47 -27 56 -67 4 -16 11 -28 16 -28 5 0 9 -9 9 -19 0 -11 9 -26 20 -34 11 -8
17 -17 14 -20 -4 -4 1 -9 10 -13 9 -3 16 -11 16 -16 0 -6 24 -34 54 -63 30
-30 52 -56 50 -59 -2 -3 -1 -4 2 -1 4 2 33 -16 65 -41 33 -25 63 -43 68 -39 5
3 13 -4 16 -16 6 -17 9 -19 16 -8 7 11 9 10 9 -4 0 -10 4 -16 9 -13 12 8 62
-19 53 -29 -4 -4 3 -4 16 -1 14 5 22 3 22 -4 0 -6 5 -8 10 -5 6 3 10 1 10 -4
0 -6 11 -11 23 -11 13 0 27 -3 31 -7 3 -4 13 -8 21 -10 35 -7 41 -9 53 -17 7
-4 16 -5 19 -2 3 3 19 -2 35 -10 20 -10 28 -11 23 -3 -6 8 -4 10 4 5 11 -7 23
-10 88 -19 12 -2 26 -6 29 -10 4 -4 13 -2 20 4 8 7 14 7 19 -1 4 -7 12 -7 25
0 13 7 21 7 25 0 3 -5 13 -10 21 -10 10 0 12 5 8 13 -6 9 -4 9 7 1 16 -12 29
-12 46 -1 6 4 15 2 19 -4 4 -8 9 -7 15 2 7 11 9 11 9 1 0 -8 5 -10 12 -6 11 7
37 10 111 13 16 1 26 4 24 9 -3 4 12 7 34 6 21 0 39 3 39 8 0 4 3 7 8 6 13 -3
77 14 91 26 11 8 13 8 8 -1 -5 -7 3 -6 22 3 17 8 38 17 48 18 10 2 45 18 78
35 33 17 65 31 72 31 7 0 13 4 13 10 0 5 11 12 25 16 14 3 25 10 25 15 0 5 5
9 10 9 6 0 16 4 23 10 59 48 75 59 81 53 3 -3 6 0 6 9 0 8 12 20 26 26 14 7
22 17 19 22 -4 6 -2 9 3 8 10 -3 50 37 92 92 14 17 31 38 38 45 6 8 12 18 12
24 0 6 5 11 10 11 6 0 10 7 10 16 0 8 4 12 10 9 6 -3 7 1 4 9 -4 9 -1 16 6 16
7 0 10 7 6 15 -3 9 1 18 9 21 8 4 13 10 10 14 -3 5 -1 11 5 15 6 4 8 11 5 16
-4 5 -1 9 5 9 6 0 9 4 5 10 -3 5 -1 18 5 30 5 11 15 29 20 40 6 12 8 25 5 30
-4 6 -3 15 1 22 13 21 13 58 1 58 -9 0 -9 2 -1 8 15 9 15 123 0 115 -6 -4 -5
0 2 9 9 12 10 18 2 23 -8 5 -7 11 2 23 11 13 11 14 0 8 -10 -6 -13 -2 -11 15
1 13 -4 38 -11 54 -7 17 -14 32 -15 35 -7 30 -31 80 -37 80 -4 0 -7 3 -6 8 3
12 -24 62 -34 62 -4 0 -8 6 -8 13 0 8 -18 32 -40 54 -21 22 -36 43 -33 47 4 3
1 6 -6 6 -7 0 -27 15 -45 33 -48 47 -74 66 -80 60 -3 -4 -6 -1 -6 5 0 7 -6 12
-14 12 -8 0 -16 7 -20 15 -3 8 -12 15 -19 15 -8 0 -27 10 -43 22 -15 13 -24
16 -20 9 5 -8 -4 -4 -21 8 -16 12 -39 23 -51 24 -12 1 -22 5 -22 10 0 4 -4 5
-10 2 -5 -3 -10 -1 -10 5 0 6 -4 9 -9 5 -5 -3 -12 -1 -16 5 -3 5 -17 10 -30
10 -13 0 -27 5 -30 11 -4 6 -13 8 -21 5 -7 -3 -16 0 -20 5 -3 6 -15 9 -25 6
-11 -3 -19 -2 -19 2 0 4 -14 8 -31 9 -18 1 -37 6 -43 9 -14 9 -49 9 -64 -1 -6
-4 -12 -3 -12 3 0 5 -8 8 -17 6 -10 -1 -28 2 -40 6 -13 5 -23 5 -23 1 0 -11
-74 -8 -82 3 -5 6 -8 4 -8 -5 0 -13 -1 -13 -10 0 -7 11 -10 11 -10 2 0 -7 -4
-10 -10 -7 -5 3 -18 1 -29 -5 -11 -5 -22 -6 -25 -2 -5 9 -35 10 -51 1 -6 -3
-26 -6 -45 -8 -19 -1 -39 -7 -44 -12 -15 -13 -28 -11 -20 4 6 9 5 9 -8 0 -8
-7 -18 -10 -21 -6 -4 3 -7 1 -7 -5 0 -6 -7 -9 -15 -6 -8 4 -15 2 -15 -3 0 -5
-8 -9 -17 -10 -23 -1 -51 -8 -85 -22 -16 -6 -28 -8 -28 -4 0 4 -7 -2 -15 -13
-10 -14 -14 -15 -15 -5 0 11 -4 10 -13 -4 -8 -10 -19 -15 -24 -12 -6 4 -14 0
-17 -8 -3 -8 -9 -15 -13 -14 -19 3 -34 -2 -29 -9 2 -4 -5 -9 -16 -9 -12 -1
-24 -6 -27 -10 -3 -5 -32 -24 -63 -43 -32 -19 -58 -38 -58 -42 0 -4 -6 -8 -14
-8 -8 0 -16 -7 -20 -15 -3 -8 -13 -15 -22 -15 -10 0 -15 -3 -11 -6 7 -7 -41
-54 -56 -54 -6 0 -8 -3 -5 -6 4 -3 -8 -19 -24 -35 -17 -16 -27 -29 -22 -29 5
-1 -1 -6 -13 -13 -21 -12 -23 -15 -23 -38 0 -5 -4 -7 -10 -4 -9 6 -14 -8 -11
-27 0 -5 -4 -8 -10 -8 -5 0 -7 -5 -4 -10 3 -6 -1 -13 -9 -16 -9 -3 -16 -17
-16 -31 0 -13 -4 -21 -10 -18 -9 6 -14 -8 -11 -27 0 -5 -3 -8 -8 -8 -5 0 -8
-8 -7 -17 2 -10 -3 -24 -11 -31 -7 -8 -11 -18 -8 -23 4 -5 3 -9 -2 -9 -4 0 -9
-12 -10 -28 -4 -42 -8 -61 -16 -68 -3 -4 -1 -16 5 -28 13 -24 13 -24 -10 -50
-9 -11 -11 -16 -4 -12 8 5 12 0 12 -14 0 -12 -4 -18 -10 -15 -5 3 -10 1 -10
-6 0 -7 -3 -9 -7 -6 -3 4 -13 1 -21 -6 -11 -8 -14 -8 -9 0 8 13 -49 13 -70 0
-13 -8 -17 -2 -14 17 1 5 -4 5 -11 -1 -20 -15 -57 -22 -64 -12 -3 5 -10 6 -17
2 -6 -4 -34 -8 -62 -9 -46 -1 -163 -12 -210 -19 -11 -1 -35 -3 -53 -4 -24 -1
-31 -5 -26 -13 6 -10 5 -10 -7 -1 -8 6 -20 8 -27 4 -7 -4 -26 -7 -42 -6 -17 1
-30 -2 -30 -7 0 -5 -5 -6 -10 -3 -6 4 -17 1 -25 -5 -11 -9 -19 -9 -28 -1 -8 6
-18 7 -23 3 -18 -16 -66 -33 -58 -21 4 8 0 8 -15 0 -12 -7 -26 -9 -31 -6 -6 3
-10 2 -10 -4 0 -6 -7 -8 -15 -5 -8 4 -15 2 -15 -2 0 -5 -14 -10 -32 -11 -17
-1 -34 -6 -37 -11 -3 -4 -20 -8 -38 -7 -17 0 -29 -3 -26 -7 4 -8 -11 -12 -34
-9 -7 1 -13 -2 -13 -7 0 -5 -7 -9 -15 -9 -19 0 -19 11 0 27 8 7 12 16 9 21 -3
5 -1 9 4 9 5 0 15 11 22 25 7 13 18 21 24 18 6 -3 8 -3 4 2 -7 7 17 61 32 75
16 15 50 70 43 70 -4 0 -3 4 4 8 6 4 13 14 15 22 2 8 12 23 22 33 10 9 16 17
12 17 -4 0 5 20 20 45 14 25 22 45 17 45 -4 0 -1 5 7 10 8 5 15 13 16 17 0 4
14 35 29 68 16 33 29 62 30 65 1 3 9 21 17 40 19 43 25 62 26 74 0 5 5 12 11
16 11 6 21 38 23 68 1 6 5 12 9 12 7 0 24 59 21 73 -1 4 3 7 8 7 6 0 10 11 10
25 0 14 4 25 10 25 5 0 7 7 4 15 -4 8 -2 15 4 15 5 0 9 10 8 23 -1 12 2 25 7
28 8 6 15 29 16 57 1 7 5 11 9 8 5 -3 8 8 7 24 -1 17 1 30 5 30 6 0 8 8 12 50
1 11 7 20 12 20 5 0 6 3 3 7 -4 3 -2 12 4 20 6 7 9 13 5 13 -3 0 0 16 9 36 8
19 14 38 14 42 -1 4 0 9 1 12 4 13 12 47 13 63 1 9 5 17 10 17 5 0 7 7 4 15
-4 8 -2 17 4 20 5 4 7 11 4 16 -4 5 0 9 7 9 9 0 9 3 -2 10 -11 7 -11 10 -2 10
7 0 10 5 7 10 -3 6 -1 10 5 10 6 0 8 5 5 10 -4 6 -2 16 3 23 8 10 24 78 24 97
0 3 6 12 14 21 8 9 11 18 8 21 -3 4 2 20 11 37 9 17 11 31 5 31 -5 0 -10 -5
-10 -11 0 -5 -4 -7 -10 -4 -5 3 -10 2 -10 -3 0 -8 -11 -23 -50 -69 -6 -7 -7
-13 -3 -13 4 0 -3 -7 -15 -16 -12 -8 -22 -22 -22 -30 0 -8 -4 -14 -10 -14 -5
0 -10 -6 -10 -13 0 -8 -9 -22 -20 -32 -11 -10 -20 -22 -20 -27 0 -5 -6 -16
-12 -23 -30 -33 -38 -45 -38 -54 0 -6 -8 -14 -17 -20 -10 -5 -15 -12 -11 -16
3 -3 -5 -18 -18 -32 -13 -14 -21 -29 -18 -34 3 -5 1 -9 -4 -9 -9 0 -48 -55
-61 -85 -5 -11 -18 -28 -44 -57 -10 -11 -16 -22 -13 -25 3 -3 -3 -13 -14 -22
-11 -9 -20 -22 -22 -30 -2 -8 -10 -22 -18 -31 -29 -33 -50 -60 -50 -66 0 -3
-6 -12 -12 -19 -29 -32 -38 -45 -33 -45 3 0 -3 -8 -12 -18 -10 -10 -29 -33
-43 -51 -13 -18 -35 -45 -47 -59 -36 -42 -44 -52 -39 -52 2 0 -16 -20 -40 -45
-24 -24 -44 -49 -44 -55 0 -5 -8 -10 -17 -10 -9 0 -14 -3 -10 -6 3 -3 -33 -44
-79 -90 -46 -47 -84 -89 -84 -94 0 -6 -3 -9 -7 -8 -12 4 -54 -28 -46 -35 3 -4
2 -7 -4 -7 -5 0 -26 -16 -46 -35 -21 -20 -37 -33 -37 -30 0 3 -11 -4 -24 -17
-59 -56 -89 -82 -82 -68 5 8 -3 2 -18 -14 -14 -16 -26 -26 -26 -23 0 3 -15 -7
-32 -24 -18 -16 -41 -32 -50 -35 -10 -3 -18 -10 -18 -15 0 -5 -6 -9 -14 -9 -8
0 -17 -7 -20 -16 -3 -8 -10 -12 -16 -9 -5 3 -10 2 -10 -4 0 -5 -8 -12 -17 -15
-10 -3 -29 -16 -43 -28 -14 -13 -32 -24 -40 -26 -8 -2 -17 -7 -20 -11 -3 -4
-24 -19 -48 -33 -23 -13 -40 -27 -37 -29 2 -3 -5 -5 -15 -6 -11 -1 -30 -11
-42 -23 -12 -11 -28 -18 -36 -15 -7 2 -10 0 -7 -5 3 -6 -1 -10 -9 -10 -8 0
-19 -8 -25 -17 -5 -10 -13 -17 -18 -16 -4 1 -30 -11 -58 -27 -27 -16 -57 -30
-65 -32 -8 -2 -23 -12 -32 -22 -10 -10 -18 -16 -18 -11 0 4 -11 0 -25 -9 -14
-9 -25 -13 -25 -9 0 3 -12 -4 -27 -18 -14 -13 -22 -18 -18 -10 5 8 -7 3 -27
-12 -19 -15 -40 -27 -46 -27 -6 0 -33 -11 -60 -25 -28 -14 -55 -25 -61 -25 -6
0 -11 -5 -11 -11 0 -6 -7 -9 -15 -5 -8 3 -15 1 -15 -4 0 -6 -4 -10 -10 -10 -5
0 -35 -12 -66 -26 -30 -14 -64 -26 -74 -27 -10 -1 -16 -5 -14 -9 3 -4 -4 -8
-15 -8 -10 0 -21 -5 -23 -12 -4 -10 -14 -13 -65 -20 -7 -1 -13 -5 -13 -10 0
-5 -4 -7 -9 -3 -5 3 -13 0 -16 -6 -4 -5 -13 -8 -21 -5 -8 3 -17 -1 -20 -9 -4
-8 -9 -13 -13 -10 -4 2 -21 -3 -37 -11 -16 -9 -30 -15 -31 -15 -2 1 -4 1 -5 0
-2 0 -10 -2 -18 -4 -46 -12 -90 -31 -90 -38 0 -5 -4 -5 -10 -2 -5 3 -20 0 -32
-7 -13 -7 -28 -11 -35 -10 -6 1 -14 -2 -18 -8 -3 -5 -16 -10 -29 -10 -12 0
-27 -5 -32 -10 -6 -6 -25 -12 -42 -13 -18 -1 -32 -5 -32 -8 0 -9 -72 -29 -82
-23 -4 3 -8 1 -8 -5 0 -5 -11 -8 -25 -7 -13 2 -22 -1 -19 -5 3 -5 -3 -10 -13
-11 -24 -2 -35 -4 -53 -11 -53 -20 -109 -34 -114 -29 -3 3 -6 0 -6 -5 0 -6
-11 -10 -25 -8 -14 1 -29 -3 -33 -9 -4 -6 -16 -12 -27 -13 -11 0 -31 -4 -45
-8 -44 -11 -74 -17 -95 -20 -11 -1 -19 -6 -18 -11 1 -5 -16 -8 -38 -8 -21 1
-37 -2 -34 -6 5 -8 -52 -20 -60 -12 -3 3 -5 41 -5 84 0 60 3 78 13 73 6 -4 3
1 -7 9 -11 9 -16 16 -10 16 5 0 9 38 9 85 0 47 -4 85 -8 85 -5 0 -5 5 -1 11
11 18 10 109 -1 109 -5 0 -1 7 9 15 12 9 15 15 7 15 -9 0 -12 13 -9 45 2 25
-1 45 -5 45 -5 0 -5 5 -1 11 9 16 11 109 1 109 -5 0 -5 5 -1 11 9 16 11 109 1
109 -5 0 -5 5 -1 11 9 16 11 109 1 109 -5 0 -5 5 -1 11 9 16 11 109 1 109 -5
0 -5 5 -1 12 5 7 7 30 5 51 -1 21 3 45 10 53 10 12 9 13 -6 8 -13 -5 -16 -4
-10 5 10 17 12 111 2 111 -5 0 -5 5 -1 12 4 6 6 36 5 66 -2 42 0 53 11 47 7
-3 4 1 -6 9 -11 9 -16 16 -10 16 5 0 9 38 9 85 0 47 -4 85 -8 85 -5 0 -5 5 -1
11 11 18 10 109 -1 109 -5 0 -1 7 9 15 12 9 15 15 7 15 -9 0 -12 13 -9 45 2
25 -1 45 -5 45 -5 0 -5 5 -1 11 9 16 11 109 1 109 -5 0 -5 5 -1 11 9 16 11
109 1 109 -5 0 -5 5 -1 11 9 16 11 109 1 109 -5 0 -5 5 -1 11 9 16 11 109 1
109 -5 0 -5 5 -1 12 5 7 7 30 5 51 -1 21 3 45 10 53 10 12 9 13 -6 8 -13 -5
-16 -4 -10 5 10 17 12 111 2 111 -5 0 -6 4 -2 9 9 15 11 831 2 831 -5 0 -5 5
-1 11 9 16 11 109 1 109 -5 0 -5 5 -1 12 5 7 7 30 5 51 -1 21 3 45 10 53 10
12 9 13 -6 8 -13 -5 -16 -4 -10 5 10 17 12 111 2 111 -5 0 -5 5 -1 11 9 16 11
109 1 109 -5 0 -5 5 -1 11 9 16 11 109 1 109 -5 0 -5 5 -1 11 9 16 11 109 1
109 -5 0 -5 5 -1 12 5 7 7 30 5 52 -2 24 2 42 11 47 10 7 9 9 -5 9 -11 0 -15
5 -11 11 9 16 11 109 1 109 -5 0 -5 5 -1 11 9 16 11 109 1 109 -5 0 -5 4 -2
10 3 5 6 179 5 386 0 301 2 374 12 369 7 -4 4 1 -6 9 -11 9 -16 16 -10 16 5 0
9 38 9 85 0 47 -4 85 -8 85 -5 0 -5 5 -1 11 9 16 11 109 1 109 -5 0 -5 5 -1
11 9 16 11 109 1 109 -5 0 -5 5 -2 10 4 6 12 7 18 3 7 -4 6 0 -2 10 -8 10 -12
33 -9 57 2 22 0 40 -5 40 -4 0 -5 5 -1 11 4 6 7 33 7 59 0 26 -3 53 -7 59 -4
6 -3 11 2 11 12 0 3 38 -11 47 -6 3 -7 1 -3 -5z m5259 -4188 c9 -1 17 1 17 5
0 3 27 6 60 6 33 0 60 -2 60 -5 0 -3 28 -6 61 -7 34 -1 68 -8 77 -15 12 -10
14 -10 8 0 -4 6 -2 12 3 12 6 0 11 -4 11 -8 0 -5 14 -9 32 -10 17 0 34 -5 37
-9 3 -5 16 -8 29 -7 12 1 22 -3 22 -8 0 -5 5 -6 10 -3 6 3 10 1 10 -5 0 -6 4
-9 8 -6 5 3 30 -6 55 -19 25 -14 53 -25 61 -25 8 0 16 -4 18 -9 2 -5 9 -11 17
-13 14 -3 41 -21 66 -45 8 -7 17 -13 22 -13 5 0 15 -9 23 -20 8 -11 18 -20 23
-20 8 0 67 -57 67 -66 0 -3 6 -11 13 -19 28 -30 47 -56 47 -65 0 -6 5 -10 10
-10 6 0 10 -7 10 -15 0 -13 -4 -13 -27 2 -16 10 -30 20 -33 23 -3 3 -12 6 -20
8 -8 2 -16 8 -18 13 -2 5 -12 9 -23 9 -10 0 -19 5 -19 11 0 5 -4 7 -10 4 -5
-3 -10 -1 -10 5 0 7 -6 10 -13 7 -7 -3 -21 1 -31 8 -10 8 -24 11 -31 9 -7 -3
-16 0 -20 5 -3 6 -11 9 -16 6 -5 -4 -9 -2 -9 3 0 6 -9 8 -20 5 -11 -3 -20 -1
-20 4 0 5 -15 10 -32 11 -49 4 -67 7 -74 15 -4 4 -13 2 -21 -4 -8 -7 -13 -8
-13 -1 0 5 -18 10 -41 10 -22 1 -46 6 -54 12 -10 8 -15 8 -21 -1 -5 -8 -3 -9
6 -4 9 5 11 4 6 -4 -6 -9 -11 -9 -22 0 -8 6 -14 8 -14 5 0 -4 -8 -3 -17 3 -11
6 -24 6 -35 0 -12 -7 -18 -6 -18 1 0 6 -5 8 -12 4 -20 -12 -52 -12 -60 0 -5 8
-8 8 -8 0 0 -12 -29 -12 -49 1 -10 5 -12 4 -7 -3 5 -8 -6 -12 -36 -13 -75 -2
-93 -4 -105 -12 -8 -5 -13 -3 -13 5 0 8 -3 9 -8 3 -4 -6 -14 -10 -22 -10 -8 1
-21 -3 -27 -8 -9 -6 -13 -5 -13 4 0 12 -2 12 -9 0 -5 -7 -13 -11 -19 -7 -6 3
-13 2 -16 -3 -3 -5 -19 -8 -36 -7 -16 1 -30 -2 -30 -8 0 -5 -3 -6 -7 -3 -3 4
-12 2 -20 -4 -7 -6 -13 -9 -13 -6 0 4 -18 0 -39 -8 -22 -7 -42 -11 -45 -8 -3
4 -6 2 -6 -3 0 -5 -8 -10 -17 -10 -26 -1 -47 -8 -54 -17 -3 -5 -12 -10 -20
-11 -40 -8 -69 -19 -69 -27 0 -4 -9 -6 -20 -4 -11 2 -18 0 -15 -5 3 -4 -8 -11
-25 -15 -16 -4 -30 -11 -30 -16 0 -6 -4 -8 -9 -5 -5 3 -11 -1 -15 -9 -3 -8
-12 -12 -19 -9 -8 3 -17 -2 -21 -11 -3 -9 -10 -13 -16 -10 -5 3 -10 -2 -10
-11 0 -10 -3 -14 -6 -11 -4 4 -19 -2 -34 -13 -16 -11 -34 -20 -41 -20 -7 0
-10 -3 -6 -6 6 -6 -55 -70 -63 -65 -2 1 -7 -6 -11 -16 -7 -17 -8 -17 -8 0 -2
41 88 207 139 256 14 14 24 27 24 30 -1 3 16 22 37 43 21 20 39 34 39 32 0 -3
11 6 24 20 13 15 28 26 35 26 6 0 11 4 11 9 0 5 14 14 30 21 17 7 30 16 30 20
0 7 35 20 45 17 2 -1 11 7 20 18 9 11 13 14 10 7 -6 -11 -3 -11 14 0 12 7 21
16 21 21 0 4 4 6 9 2 5 -3 13 0 16 6 4 5 13 8 20 5 7 -2 23 4 36 15 25 22 33
24 23 7 -6 -10 -5 -10 7 -1 9 7 26 15 40 17 13 3 24 5 24 6 0 2 16 6 55 13 14
3 25 6 25 7 0 2 44 9 92 13 18 2 36 6 40 10 3 4 9 4 12 0 3 -5 14 -9 24 -9z"/>
<path d="M25455 23320 c-3 -5 -2 -10 3 -10 9 0 12 -16 12 -57 0 -13 6 -23 13
-23 7 0 8 -3 2 -8 -13 -9 -18 -32 -7 -32 5 0 10 -23 11 -52 1 -29 7 -56 14
-60 9 -6 9 -8 0 -8 -8 0 -13 -13 -13 -30 0 -16 3 -30 8 -30 6 0 9 -275 2 -290
-5 -14 -6 -50 0 -50 3 0 6 -9 6 -20 0 -11 -3 -20 -7 -20 -3 0 -6 -10 -6 -22
-1 -119 -4 -139 -15 -132 -10 6 -10 4 0 -8 9 -12 10 -18 2 -23 -8 -5 -8 -11
-1 -19 6 -7 8 -16 4 -20 -4 -3 -8 -14 -10 -24 -1 -9 -5 -33 -8 -52 -3 -19 -8
-51 -11 -70 -3 -19 -6 -43 -7 -52 -1 -10 -4 -18 -7 -18 -3 0 -6 -8 -7 -17 -4
-62 -12 -96 -24 -104 -12 -7 -11 -9 1 -9 12 0 12 -2 2 -9 -8 -4 -13 -11 -13
-15 3 -23 0 -46 -6 -43 -5 3 -9 -13 -10 -35 0 -23 -5 -43 -10 -47 -4 -3 -9
-13 -10 -21 -3 -30 -12 -59 -23 -79 -6 -12 -8 -21 -5 -21 3 0 -1 -13 -10 -30
-9 -16 -12 -30 -8 -30 4 0 2 -5 -5 -12 -7 -7 -12 -20 -12 -30 0 -10 -5 -18
-12 -18 -6 0 -9 -3 -5 -6 3 -4 0 -22 -8 -41 -8 -19 -12 -40 -8 -46 3 -5 1 -7
-4 -4 -7 4 -16 -12 -24 -38 -7 -25 -17 -45 -21 -45 -4 0 -8 -6 -8 -13 0 -7
-12 -38 -27 -68 -15 -30 -26 -57 -25 -61 1 -5 -3 -8 -9 -8 -5 0 -8 -4 -4 -9 3
-5 -2 -16 -10 -25 -9 -8 -15 -17 -14 -18 2 -2 -3 -19 -11 -38 -7 -19 -14 -44
-17 -55 -2 -10 -7 -22 -12 -25 -4 -3 -7 -13 -5 -22 1 -10 -1 -18 -5 -18 -4 0
-9 -6 -10 -12 -1 -7 -3 -26 -5 -43 -3 -16 -5 -32 -6 -35 -1 -3 -2 -8 -1 -12 0
-5 -3 -8 -7 -8 -5 0 -9 -6 -9 -12 -2 -27 -11 -74 -17 -88 -3 -8 -7 -36 -9 -62
-1 -26 -6 -50 -9 -54 -4 -4 -2 -16 4 -28 10 -20 10 -20 -7 -6 -17 14 -17 14
-7 -6 6 -12 9 -24 6 -27 -9 -8 -8 -302 0 -316 4 -6 2 -11 -5 -11 -7 0 -8 -4
-2 -12 5 -7 9 -20 8 -28 0 -8 4 -18 10 -22 6 -5 6 -8 -2 -8 -9 0 -10 -7 -4
-22 4 -13 7 -31 6 -40 -2 -10 2 -18 8 -18 7 0 6 -5 -3 -10 -10 -7 -12 -12 -4
-17 6 -5 10 -20 10 -35 -1 -16 2 -28 7 -28 5 0 7 -9 4 -20 -3 -11 -1 -20 3
-20 4 0 6 -9 3 -20 -3 -13 0 -20 8 -20 11 0 11 -2 -1 -10 -8 -5 -10 -10 -5
-10 6 0 12 -10 13 -22 4 -40 8 -57 15 -64 4 -4 7 -22 7 -41 0 -18 4 -33 8 -33
5 0 9 -6 10 -12 2 -23 7 -43 16 -57 7 -10 5 -12 -3 -6 -8 4 -7 -2 3 -17 9 -14
13 -28 9 -31 -3 -4 -1 -7 5 -7 6 0 9 -9 7 -20 -2 -12 2 -23 10 -26 7 -3 12
-14 10 -25 -2 -10 1 -21 6 -24 5 -4 7 -11 4 -16 -4 -5 -1 -9 4 -9 6 0 11 -8
11 -17 0 -9 8 -35 19 -57 17 -39 33 -75 36 -86 8 -32 18 -50 27 -50 6 0 8 -3
5 -6 -7 -7 43 -107 56 -112 4 -2 5 -8 1 -13 -4 -8 8 -13 27 -11 34 4 63 13 73
21 7 6 16 8 19 4 4 -3 13 -1 20 5 7 7 24 13 38 16 13 2 23 9 22 15 -2 5 3 8
11 5 7 -3 20 1 27 8 8 7 21 14 29 16 8 2 17 8 18 13 2 5 9 9 16 9 7 0 22 8 34
18 11 9 30 24 42 32 12 8 31 23 42 33 12 9 25 17 30 17 5 0 6 5 3 10 -3 6 -2
10 3 10 14 0 57 41 55 51 -2 5 2 9 8 9 6 0 17 7 25 15 9 8 13 15 9 15 -4 0 0
6 8 14 7 8 15 34 16 58 1 23 3 54 5 68 1 14 -3 31 -8 39 -8 11 -8 13 0 8 7 -4
14 0 18 8 3 8 1 15 -5 15 -6 0 -7 5 -3 12 4 7 9 78 11 158 1 80 3 147 3 150 1
3 0 55 -1 115 0 61 -2 156 -3 212 0 57 -5 103 -10 103 -5 0 -3 6 3 14 9 11 9
16 0 21 -8 6 -7 10 2 16 9 6 10 9 2 9 -11 0 -15 38 -14 128 0 18 -5 32 -12 32
-7 0 -6 4 3 10 8 5 10 10 4 10 -6 0 -10 12 -9 28 1 15 -1 32 -4 37 -10 19 -9
35 2 35 9 0 8 3 0 8 -11 7 -18 43 -25 130 -1 6 -5 12 -9 12 -4 0 -6 11 -3 25
3 16 0 25 -8 25 -9 0 -8 3 2 10 12 7 12 10 1 10 -7 0 -11 6 -8 15 4 8 2 17 -2
19 -5 3 -8 16 -7 28 1 13 -4 30 -12 40 -9 11 -10 18 -2 23 8 5 6 13 -6 26 -9
10 -14 19 -9 19 4 0 2 7 -5 15 -7 9 -10 18 -6 22 3 3 -1 17 -10 31 -9 13 -11
21 -5 17 6 -3 2 10 -9 30 -11 19 -20 44 -20 55 0 11 -4 20 -10 20 -5 0 -10 7
-10 15 0 8 5 15 11 15 5 0 7 -5 4 -10 -3 -6 1 -13 9 -16 9 -3 13 -10 10 -15
-3 -5 0 -9 7 -9 8 0 8 -4 -1 -15 -11 -13 -10 -14 2 -10 14 6 32 -25 29 -47 -1
-5 3 -8 9 -8 5 0 10 -5 10 -10 0 -6 7 -27 17 -48 9 -20 15 -40 15 -44 -1 -5 3
-8 9 -8 5 0 7 -4 4 -10 -3 -5 -2 -10 4 -10 6 0 8 -7 5 -15 -4 -8 -1 -15 6 -15
6 0 8 -4 5 -10 -3 -5 -2 -10 4 -10 6 0 8 -6 5 -14 -3 -8 -1 -17 5 -21 6 -3 11
-15 11 -26 0 -10 4 -19 8 -19 4 0 9 -12 10 -27 1 -15 8 -30 15 -35 6 -4 9 -8
5 -8 -3 0 2 -25 13 -56 11 -31 18 -63 15 -71 -3 -8 -2 -12 3 -9 5 3 12 -9 16
-27 4 -17 10 -39 12 -47 2 -8 5 -25 6 -37 0 -12 5 -19 11 -16 5 4 7 -1 3 -10
-3 -9 -2 -19 3 -22 4 -3 7 -16 5 -30 -1 -14 1 -25 5 -25 7 0 9 -9 12 -55 1
-14 6 -25 11 -25 4 0 5 -4 2 -10 -3 -5 -1 -10 5 -10 8 0 8 -6 0 -20 -8 -14 -8
-20 0 -20 6 0 8 -4 5 -10 -3 -5 -2 -10 3 -10 5 0 8 -13 7 -30 -1 -16 1 -30 5
-30 4 0 6 -11 5 -25 -2 -14 0 -25 4 -25 4 0 8 -12 9 -27 2 -50 10 -108 17
-125 4 -9 4 -22 0 -28 -3 -5 -2 -10 4 -10 5 0 8 -9 6 -20 -2 -11 1 -22 6 -26
6 -4 6 -11 -2 -20 -6 -8 -7 -14 -2 -14 5 0 11 -15 11 -32 3 -45 6 -61 16 -77
6 -10 5 -12 -2 -7 -7 4 -12 0 -12 -10 0 -16 1 -16 20 1 11 10 17 22 14 26 -3
5 -1 9 5 9 6 0 7 7 4 17 -4 10 -2 14 5 9 7 -4 10 1 7 14 -2 11 0 20 6 20 5 0
8 3 8 8 -4 21 2 32 13 26 8 -5 9 -2 5 9 -3 9 0 32 8 50 8 19 11 37 8 41 -4 3
-1 6 6 6 7 0 9 5 6 10 -3 6 -2 10 2 10 8 0 12 17 14 63 0 9 3 17 7 17 9 0 11
13 14 87 2 36 6 48 14 42 8 -6 10 3 9 31 -1 23 2 43 7 46 4 3 8 10 8 15 0 6
-5 7 -11 4 -5 -4 -3 10 5 29 8 20 11 34 5 30 -7 -4 -6 3 2 17 6 13 11 43 10
66 0 25 3 43 10 43 6 0 7 5 2 13 -11 17 -10 137 1 137 5 0 3 6 -3 14 -7 8 -8
17 -3 20 5 3 6 23 2 46 -4 22 -3 43 1 46 5 3 6 10 3 16 -4 6 -9 46 -11 87 -4
84 -9 143 -13 151 -6 13 -4 36 5 49 8 12 7 13 -4 6 -11 -6 -13 -3 -9 13 4 12
3 22 0 22 -4 0 -8 19 -10 43 -5 82 -7 97 -14 97 -3 0 -5 8 -3 18 1 9 -3 23 -9
31 -9 12 -8 13 3 6 11 -6 12 -5 5 6 -10 16 -11 20 -13 55 0 14 -5 23 -9 20 -4
-2 -7 11 -7 30 1 19 -1 34 -5 34 -4 0 -6 10 -5 23 1 12 0 27 -4 32 -7 12 -12
34 -14 58 -1 9 -5 17 -9 17 -4 0 -7 8 -7 18 0 24 -6 50 -14 58 -4 4 -7 18 -7
30 0 13 -5 26 -11 29 -6 4 -8 13 -5 21 3 8 1 14 -5 14 -6 0 -7 5 -4 10 4 6 1
17 -5 25 -6 8 -9 19 -5 25 3 5 1 10 -5 10 -7 0 -10 7 -6 15 3 8 1 15 -4 15 -6
0 -10 13 -10 29 0 17 -4 33 -10 36 -5 3 -10 17 -10 31 0 13 -4 24 -10 24 -5 0
-10 11 -10 25 0 14 -5 25 -11 25 -5 0 -8 4 -4 9 3 5 1 13 -5 16 -6 4 -8 16 -4
28 3 12 3 19 -2 14 -9 -8 -34 46 -34 75 0 10 -4 16 -10 13 -6 -4 -10 5 -10 19
0 14 -5 26 -11 26 -6 0 -9 7 -5 15 3 8 1 15 -5 15 -6 0 -7 5 -4 10 3 6 1 10
-4 10 -6 0 -11 5 -11 11 0 5 -10 31 -22 57 -12 26 -22 51 -22 55 -1 4 -8 12
-16 17 -8 5 -12 10 -7 10 10 0 -32 83 -47 92 -6 4 -7 8 -3 8 7 0 -20 57 -33
70 -3 3 -14 22 -25 43 -11 20 -24 37 -29 37 -5 0 -7 3 -3 6 3 3 -3 16 -14 27
-11 12 -18 26 -15 32 2 6 -5 17 -15 24 -11 6 -17 16 -14 21 3 6 -2 10 -11 10
-10 0 -15 3 -11 6 3 4 1 12 -6 20 -7 7 -23 28 -37 45 -14 18 -44 51 -66 73
-73 72 -104 90 -119 66z"/>
<path d="M27018 18639 c-3 -6 -60 -16 -101 -18 -5 -1 -6 -5 -3 -9 3 -4 -8 -7
-25 -6 -16 1 -29 -3 -29 -8 0 -6 -9 -8 -20 -5 -11 3 -20 1 -20 -4 0 -5 -8 -9
-18 -9 -10 0 -22 -3 -26 -7 -4 -5 -11 -8 -14 -9 -14 -2 -47 -18 -52 -25 -3 -4
-14 -9 -25 -11 -11 -1 -22 -5 -25 -8 -3 -3 -23 -18 -46 -33 -22 -15 -50 -36
-62 -47 -12 -11 -26 -20 -32 -20 -6 0 -8 -4 -5 -10 3 -5 -2 -10 -12 -11 -11 0
-13 -3 -5 -6 6 -2 10 -8 7 -13 -3 -5 0 -14 7 -22 7 -7 15 -22 16 -33 2 -11 8
-21 13 -23 5 -2 9 -8 9 -14 0 -5 9 -22 19 -37 11 -15 21 -34 23 -41 3 -14 7
-21 36 -55 7 -8 10 -15 6 -15 -4 0 2 -8 12 -17 10 -10 20 -24 22 -32 2 -8 11
-22 20 -30 9 -9 18 -22 20 -30 2 -8 13 -23 24 -33 12 -10 17 -18 12 -18 -5 0
-1 -5 9 -11 9 -5 17 -15 17 -21 0 -6 10 -19 22 -29 11 -11 18 -19 14 -19 -4 0
-1 -6 6 -14 7 -7 31 -35 53 -62 87 -105 191 -214 206 -214 6 0 8 -7 5 -17 -4
-10 -4 -15 -1 -11 7 7 21 -3 83 -59 20 -18 40 -33 45 -33 4 0 5 -4 2 -10 -3
-5 0 -10 8 -10 8 0 28 -12 44 -27 43 -40 75 -62 163 -118 30 -19 61 -39 68
-45 7 -7 20 -9 28 -6 8 3 13 2 11 -2 -3 -4 7 -16 21 -26 15 -12 22 -14 17 -5
-7 11 -4 11 11 -1 25 -20 101 -57 137 -65 15 -4 27 -11 27 -16 0 -5 11 -9 25
-9 14 0 25 -4 25 -8 0 -4 12 -9 26 -10 15 -1 33 -7 39 -12 7 -6 17 -10 21 -9
20 3 35 -2 30 -10 -4 -5 3 -7 15 -4 12 4 25 0 30 -8 7 -12 9 -12 9 0 0 11 3
11 15 1 8 -6 19 -9 25 -5 5 3 10 2 10 -3 0 -9 21 -13 78 -14 12 0 22 -3 22 -7
0 -4 10 -8 23 -8 39 -3 82 -10 100 -18 10 -4 31 -8 47 -9 17 0 30 -3 30 -6 0
-3 12 -7 27 -8 15 -1 30 -8 35 -15 6 -9 8 -8 8 3 0 9 3 11 8 5 4 -5 14 -12 22
-14 8 -2 20 -4 25 -6 6 -1 25 -6 43 -10 17 -4 32 -13 32 -19 0 -7 3 -6 9 2 6
10 10 10 20 -2 7 -8 19 -12 27 -9 8 3 14 0 14 -7 0 -6 4 -8 10 -5 5 3 23 -1
39 -10 17 -8 42 -16 56 -17 14 -1 25 -6 25 -10 0 -4 9 -8 19 -8 11 0 23 -5 26
-10 4 -6 11 -8 16 -5 5 4 12 -1 15 -9 3 -9 10 -13 15 -10 6 3 17 0 26 -8 14
-11 16 -11 9 2 -4 8 0 6 8 -4 9 -11 16 -17 16 -13 0 4 15 0 33 -10 17 -9 35
-17 39 -18 3 0 10 -3 14 -7 4 -5 16 -8 26 -8 11 0 16 -4 13 -10 -3 -5 1 -10
10 -10 9 0 31 -10 48 -22 17 -12 27 -16 22 -8 -5 8 5 4 22 -8 17 -12 35 -22
41 -22 5 0 15 -7 22 -15 7 -8 16 -12 21 -9 5 3 9 0 9 -5 0 -6 7 -11 15 -11 8
0 15 -5 15 -10 0 -6 3 -9 8 -8 7 2 40 -17 94 -53 15 -11 32 -19 38 -19 5 0 10
-5 10 -11 0 -5 5 -7 10 -4 6 3 13 -1 16 -9 3 -9 12 -16 20 -16 8 0 14 -4 14
-10 0 -5 14 -16 30 -25 17 -9 30 -12 30 -8 0 5 9 -5 19 -20 10 -16 21 -28 25
-28 18 3 29 0 23 -5 -4 -4 14 -20 38 -36 25 -17 51 -39 59 -49 7 -10 15 -16
18 -14 3 3 17 -8 31 -25 14 -16 29 -30 32 -30 3 0 35 -29 70 -64 61 -63 74
-66 70 -18 -1 12 3 22 9 22 6 0 5 4 -3 9 -9 6 -10 11 -2 15 6 4 8 13 4 19 -8
12 -12 29 -15 60 -1 9 -6 17 -11 17 -4 0 -5 5 -2 10 4 6 1 18 -7 27 -9 12 -9
15 0 9 6 -4 12 -3 12 3 0 5 -5 11 -10 13 -6 2 -13 15 -15 30 -3 15 -14 47 -24
71 -11 25 -17 48 -14 51 4 3 1 6 -5 6 -7 0 -12 9 -12 19 0 11 -4 23 -10 26 -5
3 -10 15 -10 25 0 10 -4 20 -10 22 -5 2 -11 15 -12 30 -1 15 -6 24 -10 22 -5
-3 -11 8 -14 25 -4 17 -13 36 -20 42 -8 6 -11 15 -8 20 3 5 0 9 -6 9 -6 0 -8
5 -5 10 3 6 1 10 -5 10 -6 0 -8 5 -5 10 3 6 2 10 -4 10 -5 0 -17 20 -26 45
-10 25 -22 42 -28 38 -5 -3 -7 -1 -3 5 3 6 0 17 -8 25 -8 8 -12 17 -9 21 4 3
2 6 -4 6 -10 0 -21 25 -19 42 1 4 -8 14 -19 22 -11 8 -27 30 -35 50 -7 20 -17
36 -22 36 -4 0 -8 7 -8 15 0 8 -4 15 -10 15 -5 0 -10 6 -10 13 0 7 -9 23 -20
35 -11 12 -20 26 -20 32 0 5 -4 10 -10 10 -5 0 -10 7 -10 15 0 8 -3 15 -8 15
-4 0 -18 18 -32 40 -14 22 -28 40 -32 40 -5 0 -8 6 -8 13 0 7 -13 27 -30 45
-16 18 -30 36 -30 40 0 4 -15 23 -33 43 -17 20 -45 54 -62 74 -44 56 -75 91
-122 140 -24 24 -43 49 -43 55 0 6 -4 8 -10 5 -5 -3 -10 0 -10 7 0 7 -16 24
-34 38 -19 14 -33 27 -33 30 3 8 -42 50 -54 50 -5 0 -7 5 -4 10 3 6 -1 10 -10
10 -9 0 -13 5 -10 10 3 6 2 10 -3 10 -6 0 -32 23 -60 50 -28 28 -53 50 -57 50
-3 0 -16 10 -29 23 -13 12 -38 33 -56 47 -17 14 -44 35 -58 47 -15 13 -33 23
-39 23 -7 0 -13 7 -13 15 0 8 -7 15 -14 15 -8 0 -27 11 -41 24 -14 13 -39 29
-55 36 -16 7 -27 16 -24 21 3 5 0 9 -6 9 -7 0 -24 9 -40 20 -15 11 -30 17 -33
13 -4 -3 -9 2 -13 11 -3 9 -10 13 -15 10 -5 -3 -12 2 -15 10 -3 9 -10 14 -14
11 -5 -3 -14 1 -22 8 -16 15 -70 41 -80 39 -5 -1 -8 3 -8 8 0 6 -9 10 -20 10
-11 0 -20 5 -20 10 0 6 -7 10 -15 10 -14 0 -53 18 -65 30 -6 6 -30 12 -47 13
-7 0 -13 5 -13 10 0 5 -8 6 -17 3 -10 -4 -14 -4 -10 0 6 6 -74 38 -120 48 -7
1 -15 5 -19 8 -3 4 -12 4 -19 2 -7 -3 -16 -1 -19 5 -4 6 -13 8 -21 4 -8 -3
-15 0 -15 7 0 6 -4 9 -9 5 -5 -3 -13 -1 -16 5 -5 8 -11 7 -21 -1 -10 -8 -14
-8 -14 -1 0 7 -7 9 -17 5 -9 -4 -14 -2 -10 3 3 5 -5 11 -19 12 -13 1 -24 -3
-24 -8 0 -6 4 -10 8 -10 5 0 36 -27 69 -59 33 -33 64 -57 67 -54 3 4 6 -1 6
-10 0 -8 9 -19 20 -22 11 -3 20 -13 20 -21 0 -8 3 -14 8 -14 9 0 72 -56 72
-64 0 -10 73 -76 84 -76 5 0 7 -3 3 -6 -3 -3 4 -16 16 -29 75 -76 117 -125
117 -135 0 -6 5 -8 10 -5 6 3 10 1 10 -5 0 -6 10 -21 23 -34 12 -12 32 -36 44
-52 40 -53 68 -87 91 -112 12 -14 22 -28 22 -32 0 -4 11 -20 24 -35 14 -16 22
-33 19 -38 -3 -6 -1 -7 4 -4 6 4 18 -8 26 -26 9 -18 27 -45 41 -60 14 -15 20
-27 14 -27 -7 0 -5 -6 4 -12 8 -7 24 -29 34 -48 11 -19 21 -37 24 -40 3 -3 12
-18 20 -35 8 -16 23 -42 33 -57 10 -16 15 -32 12 -38 -3 -5 -1 -10 4 -10 6 0
11 -7 11 -15 0 -7 7 -18 16 -23 15 -8 15 -10 0 -15 -9 -4 -15 -3 -14 1 3 11
-63 112 -73 112 -6 0 -7 5 -4 10 3 6 1 10 -6 10 -7 0 -10 3 -6 6 3 3 -5 16
-19 29 -13 12 -24 25 -24 29 0 3 -13 20 -30 38 -16 17 -30 35 -30 40 0 5 -4 6
-10 3 -5 -3 -10 0 -10 7 0 8 -8 21 -17 29 -10 9 -37 37 -61 62 -24 26 -47 47
-52 47 -5 0 -7 7 -3 15 3 9 1 15 -5 13 -5 -2 -24 12 -41 30 -17 17 -36 32 -42
32 -5 0 -7 5 -4 10 3 6 2 10 -3 10 -8 0 -49 35 -139 120 -13 11 -23 18 -23 15
0 -2 -13 9 -30 27 -16 17 -30 27 -30 23 0 -4 -8 1 -17 11 -10 11 -38 35 -63
54 -25 19 -46 38 -48 42 -2 5 -9 8 -16 8 -6 0 -18 9 -26 20 -8 11 -19 20 -26
20 -6 0 -19 9 -29 20 -10 11 -22 20 -26 20 -8 0 -36 20 -64 48 -8 6 -18 12
-24 12 -6 0 -11 5 -11 10 0 6 -7 10 -15 10 -8 0 -15 5 -15 10 0 6 -7 10 -15
10 -8 0 -15 5 -15 10 0 6 -7 10 -15 10 -8 0 -15 5 -15 10 0 6 -7 10 -15 10 -8
0 -15 5 -15 10 0 6 -7 10 -15 10 -8 0 -15 4 -15 8 0 5 -16 14 -35 22 -19 7
-36 19 -39 27 -3 7 -10 13 -15 13 -9 0 -69 36 -96 58 -5 4 -25 14 -42 21 -18
7 -33 17 -33 21 0 9 -99 8 -102 -1z"/>
<path d="M9445 14280 c6 -9 -1 -11 -28 -8 -20 2 -39 -1 -41 -7 -2 -5 -5 -4 -5
3 -1 8 -7 10 -18 5 -10 -5 -39 -8 -65 -8 -27 0 -48 -4 -48 -10 0 -5 -5 -3 -10
5 -5 8 -10 11 -10 5 0 -5 -30 -11 -66 -12 -72 -2 -123 -9 -131 -17 -3 -3 -14
-1 -24 4 -11 6 -20 6 -23 1 -4 -5 -17 -8 -31 -6 -14 1 -25 -2 -25 -7 0 -5 -9
-4 -20 2 -11 6 -20 7 -20 2 0 -4 -10 -9 -22 -9 -73 -4 -174 -19 -190 -29 -4
-3 -8 0 -8 6 0 6 -5 8 -12 3 -14 -8 -25 -10 -73 -16 -17 -2 -37 -7 -44 -12
-10 -6 -12 -4 -6 6 6 11 5 11 -5 2 -7 -6 -19 -9 -26 -6 -8 3 -14 0 -14 -6 0
-6 -7 -8 -15 -5 -8 3 -20 2 -26 -2 -7 -4 -35 -9 -62 -11 -27 -2 -58 -8 -69
-14 -16 -8 -19 -8 -13 1 6 9 2 9 -15 0 -12 -6 -28 -9 -36 -6 -8 3 -14 1 -14
-5 0 -6 -6 -9 -14 -6 -8 3 -17 1 -20 -6 -3 -8 -5 -8 -5 2 -1 9 -5 10 -13 3 -7
-5 -26 -11 -43 -13 -16 -2 -35 -7 -40 -10 -6 -4 -23 -6 -38 -5 -15 2 -27 0
-27 -3 0 -4 -12 -8 -27 -9 -16 -1 -30 -7 -31 -13 -3 -6 -9 -6 -18 2 -9 7 -14
8 -14 1 0 -6 -8 -9 -17 -8 -10 2 -24 -4 -31 -13 -8 -9 -11 -10 -7 -3 8 15 -7
16 -23 0 -7 -7 -12 -9 -12 -5 0 4 -9 3 -19 -3 -14 -7 -21 -6 -24 3 -4 9 -6 9
-6 0 -1 -7 -9 -13 -19 -13 -10 0 -24 -6 -31 -12 -8 -8 -11 -8 -8 -2 7 12 -44
-2 -72 -20 -10 -7 -12 -6 -6 3 5 8 -3 7 -23 -3 -16 -8 -32 -13 -35 -10 -3 3
-12 2 -19 -2 -7 -5 -17 -9 -23 -11 -5 -1 -21 -5 -35 -8 -14 -3 -29 -7 -35 -8
-5 -2 -16 -6 -22 -10 -7 -5 -13 -5 -13 -1 0 4 -8 0 -18 -9 -14 -13 -21 -14
-30 -5 -7 7 -12 8 -12 2 0 -5 -10 -10 -22 -11 -11 -1 -24 -6 -27 -10 -3 -4
-15 -9 -26 -11 -22 -3 -50 -10 -50 -12 0 -3 -39 -12 -57 -13 -10 -1 -18 -5
-18 -10 0 -4 -4 -5 -10 -2 -5 3 -10 2 -10 -4 0 -5 -9 -8 -20 -6 -11 2 -20 0
-20 -6 0 -5 -3 -8 -7 -7 -5 1 -21 -4 -36 -10 -16 -7 -32 -10 -37 -7 -5 3 -14
0 -22 -7 -7 -7 -22 -14 -33 -16 -11 -2 -31 -10 -44 -19 -13 -8 -21 -10 -17 -4
4 5 -6 4 -20 -4 -15 -8 -31 -12 -36 -9 -4 3 -8 0 -8 -5 0 -6 -9 -11 -19 -11
-11 0 -23 -5 -26 -11 -4 -6 -13 -8 -21 -5 -8 3 -14 1 -14 -5 0 -6 -4 -7 -10
-4 -5 3 -10 1 -10 -4 0 -6 -3 -10 -7 -10 -22 4 -43 -2 -39 -10 4 -5 -2 -8 -11
-6 -10 1 -24 -2 -31 -8 -7 -5 -15 -7 -18 -4 -4 3 -13 -1 -21 -9 -8 -8 -19 -12
-24 -9 -5 4 -9 1 -9 -5 0 -6 -4 -9 -9 -5 -5 3 -12 1 -16 -5 -4 -6 -11 -8 -16
-5 -5 4 -9 1 -9 -6 0 -7 -3 -9 -7 -6 -3 4 -15 -1 -26 -10 -11 -10 -17 -13 -14
-6 4 6 -10 3 -30 -7 -91 -45 -123 -59 -123 -53 0 3 -10 -2 -22 -13 -14 -13
-19 -14 -14 -4 6 12 5 12 -6 -1 -7 -9 -19 -14 -25 -12 -7 3 -13 0 -13 -6 0 -6
-8 -11 -17 -11 -10 0 -26 -7 -36 -15 -11 -7 -25 -11 -33 -8 -8 3 -14 1 -14 -5
0 -5 -13 -15 -30 -22 -16 -7 -30 -17 -30 -22 0 -5 -5 -6 -10 -3 -6 4 -17 1
-25 -5 -8 -7 -15 -9 -15 -4 0 5 -7 1 -14 -9 -8 -10 -18 -19 -23 -19 -4 0 -19
-5 -33 -11 -14 -6 -28 -10 -32 -9 -5 1 -8 -3 -8 -8 0 -5 -3 -9 -7 -8 -16 3
-43 -15 -36 -25 3 -6 1 -7 -5 -3 -12 7 -90 -30 -104 -49 -4 -5 -8 -7 -8 -3 0
3 -33 -11 -72 -32 -40 -21 -93 -48 -118 -61 -25 -13 -47 -27 -50 -30 -3 -4
-29 -19 -57 -34 -29 -15 -53 -31 -53 -37 0 -5 -4 -6 -10 -3 -5 3 -10 1 -10 -5
0 -6 -4 -8 -10 -5 -5 3 -10 1 -10 -5 0 -6 -4 -8 -10 -5 -5 3 -10 1 -10 -4 0
-6 -6 -11 -13 -11 -8 0 -24 -9 -37 -20 -13 -11 -27 -20 -32 -20 -5 0 -14 -5
-21 -10 -31 -26 -86 -58 -91 -52 -3 3 -6 0 -6 -6 0 -7 -5 -12 -11 -12 -6 0
-17 -6 -24 -12 -32 -29 -43 -36 -63 -42 -12 -4 -22 -12 -22 -17 0 -5 -7 -9
-15 -9 -8 0 -15 -5 -15 -11 0 -5 -4 -8 -9 -5 -5 3 -12 -1 -15 -10 -3 -8 -10
-13 -15 -9 -5 3 -17 -5 -26 -17 -8 -13 -17 -21 -18 -18 -2 3 -20 -6 -39 -20
-20 -13 -34 -29 -31 -34 3 -5 1 -6 -5 -2 -6 4 -20 -2 -32 -14 -11 -11 -20 -17
-20 -14 0 3 -13 -5 -28 -18 -16 -12 -47 -34 -70 -48 -23 -14 -42 -31 -42 -38
0 -7 -5 -10 -10 -7 -6 4 -20 -5 -31 -19 -11 -14 -26 -26 -32 -26 -7 0 -28 -14
-47 -30 -52 -46 -60 -51 -60 -45 0 3 -15 -10 -34 -29 -19 -19 -37 -31 -40 -28
-3 3 -6 -1 -6 -8 0 -7 -3 -11 -6 -7 -3 3 -19 -8 -35 -24 -16 -16 -29 -26 -29
-22 0 4 -7 -3 -16 -15 -8 -12 -19 -20 -24 -17 -5 3 -11 -4 -15 -15 -3 -11 -9
-19 -13 -17 -8 2 -73 -51 -142 -115 -22 -20 -40 -35 -40 -33 0 4 -75 -63 -121
-108 -22 -21 -39 -34 -39 -30 -1 4 -7 -3 -15 -17 -8 -14 -14 -21 -15 -17 0 4
-17 -10 -37 -32 -20 -22 -40 -38 -45 -35 -4 3 -8 -1 -8 -8 0 -7 -16 -24 -34
-38 -19 -14 -33 -27 -32 -30 2 -3 -5 -13 -16 -22 -10 -10 -18 -16 -18 -15 0 3
-129 -126 -168 -169 -7 -8 -18 -14 -23 -14 -6 0 -8 -4 -5 -9 3 -5 -5 -16 -19
-25 -14 -9 -25 -23 -25 -32 0 -8 -4 -13 -8 -10 -5 3 -16 -4 -25 -15 -9 -10
-15 -19 -13 -19 2 0 -25 -29 -60 -65 -35 -36 -64 -70 -64 -76 0 -5 -4 -7 -10
-4 -5 3 -10 -1 -10 -9 0 -9 -3 -16 -7 -16 -5 0 -17 -13 -28 -29 -10 -16 -23
-27 -27 -25 -4 3 -8 -1 -8 -9 0 -8 -11 -22 -24 -33 -14 -10 -23 -21 -21 -24 2
-3 -7 -14 -21 -24 -13 -11 -24 -23 -24 -27 0 -5 -13 -23 -30 -41 -51 -57 -60
-68 -60 -76 0 -4 -9 -13 -20 -20 -11 -7 -20 -17 -20 -23 0 -5 -12 -21 -28 -35
-15 -14 -25 -27 -22 -27 5 -2 -23 -38 -57 -73 -13 -15 -17 -25 -10 -28 7 -2 4
-5 -5 -5 -10 -1 -18 -7 -18 -15 0 -8 -7 -17 -16 -20 -8 -3 -13 -10 -9 -15 3
-5 -5 -17 -17 -25 -12 -9 -19 -16 -14 -16 5 0 -1 -8 -12 -19 -12 -10 -22 -23
-22 -30 0 -6 -4 -11 -10 -11 -5 0 -10 -7 -10 -15 0 -9 -7 -18 -15 -21 -8 -4
-15 -13 -15 -20 0 -8 -7 -17 -15 -20 -8 -4 -15 -12 -15 -18 0 -7 -9 -22 -19
-33 -11 -12 -17 -24 -14 -27 4 -3 1 -6 -6 -6 -6 0 -16 -11 -21 -25 -5 -14 -14
-25 -20 -25 -6 0 -8 -5 -5 -10 3 -6 -1 -13 -9 -16 -9 -3 -16 -12 -16 -19 0 -7
-7 -18 -15 -25 -8 -7 -13 -16 -10 -20 3 -4 -2 -11 -11 -14 -8 -3 -13 -10 -10
-15 4 -5 3 -11 -1 -13 -12 -5 -65 -78 -57 -78 4 0 -1 -7 -12 -16 -10 -8 -12
-12 -4 -8 8 4 3 -6 -13 -23 -15 -16 -25 -32 -22 -35 3 -3 -7 -19 -23 -35 -15
-17 -26 -35 -25 -40 2 -5 -5 -18 -16 -30 -11 -11 -17 -24 -14 -27 4 -3 1 -6
-5 -6 -7 0 -12 -6 -12 -14 0 -8 -3 -16 -7 -18 -5 -1 -18 -24 -31 -51 -14 -27
-28 -44 -34 -41 -6 4 -8 3 -5 -3 7 -12 -14 -63 -26 -63 -5 0 -5 -4 -2 -10 3
-5 2 -10 -4 -10 -5 0 -13 -10 -17 -22 -3 -13 -15 -35 -25 -49 -10 -14 -16 -29
-12 -33 3 -3 2 -6 -4 -6 -9 0 -17 -18 -23 -50 -1 -3 -8 -9 -16 -13 -8 -5 -12
-12 -9 -18 4 -5 1 -9 -4 -9 -6 0 -10 -3 -9 -7 3 -16 -22 -63 -33 -63 -7 0 -9
-3 -6 -6 3 -4 1 -16 -5 -28 -7 -11 -11 -24 -10 -28 1 -5 -2 -8 -8 -8 -5 0 -10
-9 -10 -20 0 -11 -5 -20 -11 -20 -5 0 -7 -5 -4 -10 3 -6 0 -13 -9 -16 -8 -3
-12 -12 -9 -20 3 -8 0 -14 -7 -14 -6 0 -8 -4 -5 -10 3 -5 1 -10 -5 -10 -6 0
-8 -4 -5 -10 3 -5 1 -10 -5 -10 -6 0 -9 -4 -5 -9 3 -5 1 -12 -5 -16 -5 -3 -10
-15 -10 -26 0 -10 -4 -19 -10 -19 -5 0 -10 -9 -10 -20 0 -11 -4 -20 -10 -20
-5 0 -10 -9 -10 -20 0 -11 -5 -20 -12 -20 -6 0 -9 -3 -5 -6 3 -4 0 -19 -8 -34
-8 -15 -11 -30 -8 -34 4 -3 1 -6 -5 -6 -7 0 -12 -7 -12 -15 0 -8 -4 -15 -8
-15 -5 0 -9 -6 -9 -12 0 -12 -12 -43 -47 -118 -6 -14 -15 -28 -21 -32 -6 -5
-4 -8 5 -8 13 -1 13 -2 0 -13 -14 -11 -18 -21 -23 -52 -1 -5 -8 -16 -15 -23
-7 -8 -10 -17 -7 -22 3 -5 1 -11 -5 -15 -6 -4 -7 -11 -4 -17 4 -6 -1 -17 -11
-25 -11 -7 -16 -13 -12 -13 4 0 1 -15 -7 -34 -8 -19 -12 -37 -8 -40 3 -3 1 -6
-5 -6 -10 0 -27 -51 -26 -77 0 -7 -3 -13 -9 -13 -5 0 -6 -4 -3 -10 3 -5 2 -10
-3 -10 -9 0 -23 -51 -21 -74 0 -5 -4 -12 -11 -16 -6 -4 -12 -17 -13 -28 -1
-12 -5 -22 -10 -22 -4 0 -5 -5 -2 -10 4 -6 2 -16 -3 -23 -6 -7 -13 -29 -17
-49 -4 -23 -11 -35 -18 -31 -6 3 -7 1 -3 -6 4 -6 -2 -38 -14 -71 -12 -33 -22
-69 -23 -80 -1 -11 -5 -20 -10 -20 -4 0 -6 -4 -2 -9 3 -5 1 -12 -4 -16 -6 -3
-8 -12 -5 -19 3 -8 1 -17 -5 -20 -6 -4 -8 -13 -4 -21 3 -8 0 -15 -7 -15 -6 0
-8 -4 -5 -10 3 -5 1 -10 -6 -10 -10 0 -10 -3 -1 -12 9 -9 8 -15 -2 -27 -8 -9
-15 -19 -14 -24 0 -4 -4 -26 -8 -50 -4 -23 -7 -45 -6 -49 1 -5 -2 -8 -6 -8 -8
0 -12 -14 -13 -53 0 -9 -3 -16 -7 -13 -4 2 -8 -17 -10 -42 -2 -26 -8 -50 -15
-54 -7 -4 -8 -8 -4 -8 4 0 3 -8 -2 -18 -7 -13 -7 -22 1 -30 8 -8 7 -13 -4 -17
-10 -4 -15 -17 -14 -36 1 -16 -1 -29 -6 -29 -4 0 -4 -7 -1 -17 4 -10 2 -14 -4
-10 -6 4 -9 -6 -7 -28 1 -19 -2 -35 -6 -35 -5 0 -7 -9 -5 -20 2 -11 0 -20 -4
-20 -4 0 -8 -12 -8 -27 -2 -46 -7 -73 -13 -73 -3 0 -6 -16 -7 -36 -1 -21 -5
-44 -9 -53 -4 -9 -9 -34 -11 -56 -7 -73 -9 -80 -16 -92 -4 -6 -3 -15 3 -18 8
-5 7 -11 -1 -21 -7 -8 -13 -29 -15 -47 -4 -56 -13 -119 -20 -140 -5 -15 -3
-17 7 -11 12 7 12 5 0 -9 -7 -9 -11 -24 -7 -32 3 -9 2 -14 -3 -10 -5 3 -8 -13
-7 -35 2 -22 -2 -40 -7 -40 -5 0 -3 -8 4 -17 8 -9 9 -14 3 -10 -8 5 -11 -7
-10 -38 1 -25 -1 -45 -5 -45 -3 0 -6 -18 -5 -40 1 -22 -3 -40 -8 -40 -6 0 -4
-5 4 -10 8 -5 10 -10 5 -10 -6 0 -10 -19 -10 -43 1 -23 -3 -48 -8 -54 -6 -9
-5 -13 3 -13 10 0 10 -3 1 -14 -9 -10 -9 -16 -1 -21 7 -4 8 -11 1 -18 -5 -7
-9 -38 -8 -70 1 -31 -2 -57 -7 -57 -5 0 -2 -8 5 -17 8 -10 9 -14 2 -10 -8 5
-11 -1 -9 -20 2 -16 -1 -34 -6 -40 -7 -9 -7 -13 1 -13 13 0 10 -22 -4 -32 -6
-5 -5 -8 3 -8 8 0 10 -5 5 -12 -10 -17 -10 -42 1 -49 5 -4 5 -13 0 -20 -12
-20 -14 -58 -3 -65 5 -3 6 -11 2 -17 -5 -7 -9 -67 -9 -134 l-1 -123 1751 0
1751 0 -2 72 c-6 198 -5 326 1 336 3 6 2 14 -4 17 -8 5 -8 11 0 20 8 9 8 15 0
20 -6 3 -7 11 -4 17 4 5 7 60 8 122 1 61 6 118 11 125 6 10 4 12 -6 6 -12 -8
-12 -6 0 8 10 13 10 17 1 17 -8 0 -9 4 -3 13 5 6 11 44 12 82 4 82 7 130 11
130 1 0 3 26 4 57 1 31 4 60 8 63 4 4 4 13 1 21 -3 7 0 27 5 44 8 22 8 30 -1
30 -8 0 -9 3 -1 8 5 4 10 22 9 40 0 17 2 32 6 32 4 0 5 9 2 20 -3 11 -1 20 3
20 5 0 10 24 12 53 4 83 7 107 12 107 3 0 6 12 7 28 1 15 3 38 6 52 2 14 7 45
12 70 4 25 9 54 12 65 2 11 7 38 10 60 3 22 8 42 12 45 3 3 7 16 8 30 1 25 10
75 13 75 1 0 8 32 13 65 1 8 6 21 11 28 4 7 5 16 2 19 -3 3 1 20 8 37 7 17 12
41 11 54 -1 12 3 22 8 22 5 0 7 7 4 15 -4 8 -2 17 3 20 6 4 10 16 10 29 0 12
5 27 12 34 9 9 9 12 -3 12 -8 0 -10 3 -4 8 15 10 36 74 22 65 -6 -3 -3 4 6 16
8 13 13 30 10 37 -3 8 -1 14 4 14 5 0 10 6 11 13 1 14 10 51 12 55 2 1 4 7 5
12 1 6 4 12 5 15 1 3 3 8 4 13 14 58 31 110 36 107 4 -2 6 9 5 25 -1 17 2 30
6 30 7 0 22 43 24 66 0 6 7 20 15 30 8 10 10 15 3 11 -8 -5 -8 1 2 19 8 15 12
31 9 36 -3 4 -1 8 4 8 4 0 15 22 22 50 7 28 17 50 22 50 4 0 8 10 8 23 0 12 7
33 16 45 8 12 12 22 8 22 -3 0 -1 6 5 13 6 8 8 17 4 20 -3 4 -2 7 4 7 5 0 10
6 10 13 2 21 38 112 56 140 10 15 15 27 11 27 -3 0 1 11 10 25 9 14 13 25 10
25 -4 0 1 10 12 22 13 14 14 19 4 14 -13 -7 -13 -6 0 6 8 7 17 22 18 33 2 11
9 23 15 27 7 4 9 8 4 8 -4 0 -1 10 8 23 8 13 13 26 10 29 -3 3 1 11 10 18 8 7
15 21 15 31 0 11 5 19 11 19 5 0 7 5 4 10 -3 5 -1 10 5 10 6 0 8 5 5 10 -3 6
-1 10 4 10 6 0 10 3 9 8 -3 14 45 111 54 106 4 -3 5 1 2 9 -3 8 -1 18 5 22 6
3 11 15 11 26 0 11 4 18 9 15 5 -4 12 7 16 24 4 16 11 30 16 30 5 0 9 8 9 19
0 10 6 23 13 29 7 6 19 27 27 47 7 19 17 35 21 35 4 0 10 14 14 31 4 17 9 28
12 25 4 -3 18 19 32 50 15 30 30 52 34 48 6 -6 9 10 6 33 0 3 6 10 15 15 9 5
16 14 16 20 0 6 11 26 25 43 13 18 26 39 27 46 2 8 10 21 18 29 8 8 16 22 18
30 2 8 10 22 18 31 8 8 14 20 14 26 0 6 7 13 15 17 8 3 15 12 15 21 0 8 5 15
10 15 6 0 10 7 10 15 0 8 5 15 11 15 5 0 7 5 4 10 -3 6 1 13 9 16 9 3 13 10
10 15 -3 5 -1 9 4 9 5 0 17 16 28 35 10 19 23 35 28 35 5 0 6 3 3 6 -4 4 3 15
15 25 11 11 18 19 14 19 -4 0 2 10 13 22 11 11 18 25 15 30 -3 4 -1 8 4 8 5 0
24 21 42 48 19 26 39 52 45 59 31 37 35 43 30 43 -3 0 6 11 21 25 15 14 23 25
19 25 -5 0 0 9 11 20 31 32 44 49 44 60 0 5 8 10 17 10 9 0 14 3 10 6 -3 4 -1
12 6 19 29 31 82 99 80 104 -1 3 8 11 20 18 12 7 18 12 13 13 -5 0 4 13 20 29
16 16 39 42 51 57 12 16 42 50 67 77 25 26 44 47 41 47 -2 0 19 23 46 51 27
28 49 55 49 60 0 6 5 7 10 4 6 -3 10 -2 10 3 0 16 221 237 234 234 6 -2 8 -1
4 3 -7 7 68 83 193 195 39 36 85 77 101 93 16 15 33 27 39 27 6 0 7 5 4 10 -3
6 -1 10 6 10 7 0 27 15 45 34 19 19 43 37 54 41 11 4 18 11 15 16 -4 5 -2 9 3
9 5 0 19 8 30 18 12 9 33 25 47 35 14 10 22 23 19 29 -4 7 -2 8 4 4 7 -4 12
-2 12 4 0 6 5 8 10 5 6 -3 10 -1 10 6 0 7 2 10 5 7 3 -3 18 6 34 21 36 34 71
62 71 56 0 -2 13 8 29 23 47 43 59 51 64 46 3 -3 14 7 26 22 11 15 21 23 21
18 0 -5 7 -1 14 9 8 10 17 18 20 18 8 -1 95 60 118 82 10 9 24 17 32 17 8 0
16 7 20 15 3 8 12 15 21 15 8 0 15 5 15 10 0 6 7 10 15 10 8 0 15 5 15 10 0 6
7 10 15 10 8 0 15 5 15 11 0 5 5 7 10 4 6 -3 10 -1 10 5 0 5 16 18 35 27 19 9
35 20 35 25 0 4 7 8 15 8 8 0 25 11 39 25 14 14 32 25 40 25 8 0 18 5 21 10 4
6 11 8 16 4 5 -3 8 0 7 7 -2 7 2 14 7 14 20 3 65 28 65 37 0 5 5 6 10 3 6 -3
10 -3 10 2 0 4 10 13 23 19 66 33 87 46 87 54 0 5 6 7 14 4 7 -3 16 2 20 11 3
9 10 13 16 10 5 -3 10 -1 10 5 0 6 4 9 9 6 5 -3 14 0 19 7 6 7 27 19 47 27 19
7 35 17 35 22 0 4 5 8 12 8 6 0 32 12 57 27 25 15 52 28 60 29 8 2 18 9 22 16
5 7 9 9 9 4 0 -5 7 -3 15 4 8 7 15 9 15 4 0 -5 4 -4 8 2 10 15 74 45 66 31 -4
-7 3 -2 15 11 12 12 26 20 32 17 5 -4 9 -2 9 3 0 9 37 25 53 23 4 -1 7 4 7 9
0 6 6 10 13 10 7 0 38 13 70 30 31 16 57 27 57 23 0 -3 6 0 13 6 8 6 17 8 20
4 4 -3 7 -2 7 4 0 9 35 24 63 27 4 1 12 8 17 16 5 8 10 11 10 6 0 -5 7 -3 15
4 8 7 15 9 15 5 0 -4 7 -2 15 5 8 7 15 9 15 4 0 -4 5 -3 12 4 7 7 20 12 29 12
10 0 19 4 21 10 2 5 12 11 23 14 40 8 65 18 65 26 0 5 8 7 18 6 9 -2 20 1 23
7 4 5 18 10 33 10 14 0 24 3 21 7 -2 3 18 13 45 20 28 8 50 17 50 21 0 4 8 6
17 5 10 -2 24 3 31 11 8 7 18 11 23 8 5 -4 9 0 9 7 0 9 3 9 10 -2 7 -11 10
-11 10 -2 0 7 4 11 9 7 5 -3 12 -1 16 5 4 6 11 8 16 5 5 -4 9 -1 9 4 0 6 3 10
8 10 4 -1 9 0 12 1 13 4 47 12 63 13 9 1 17 5 17 10 0 5 6 7 14 4 8 -3 20 1
27 9 6 8 14 12 16 10 3 -2 22 2 43 9 21 7 41 11 44 8 3 -4 6 -1 6 6 0 7 4 10
8 7 5 -3 21 1 36 9 18 10 24 10 19 2 -4 -8 -1 -7 10 1 9 8 28 16 42 18 14 2
36 6 50 8 14 2 31 8 38 13 11 8 24 11 75 15 6 1 12 4 12 8 0 4 6 7 13 8 16 1
71 10 77 12 3 2 8 2 13 1 4 0 7 3 7 8 0 4 11 7 25 6 14 -2 27 1 31 6 3 5 10 7
15 4 5 -4 9 -2 9 3 0 4 15 8 33 7 17 0 35 3 38 7 3 4 18 9 35 10 16 1 34 5 39
8 6 4 22 7 38 6 15 -1 27 2 27 7 0 5 7 7 15 4 8 -4 17 -3 19 2 3 4 18 8 33 9
15 1 39 4 53 8 14 3 40 7 57 8 18 0 33 4 33 7 0 3 6 6 13 7 6 1 32 4 57 7 25
3 57 7 72 8 14 1 30 5 34 9 4 4 14 2 22 -5 13 -9 14 -9 8 1 -5 8 0 12 16 13
38 2 112 7 121 8 5 1 6 4 4 9 -3 4 23 8 56 9 54 2 92 5 192 16 11 2 25 6 32
10 6 4 14 3 18 -3 3 -5 11 -10 16 -10 6 0 8 3 6 8 -5 6 68 12 171 13 30 0 40
4 35 12 -4 8 -1 7 9 -1 12 -9 18 -10 23 -2 5 8 11 8 21 -1 8 -6 14 -8 14 -3 0
11 60 11 77 1 6 -4 14 -3 17 2 3 5 35 8 71 7 36 -1 65 3 65 8 0 4 7 3 15 -4
12 -10 15 -10 15 1 0 11 2 11 10 -1 5 -8 10 -10 10 -5 0 11 248 12 275 1 8 -3
15 -1 15 4 0 5 13 5 30 0 20 -6 30 -5 30 2 0 6 6 6 15 -2 12 -10 15 -10 15 0
0 8 5 9 13 4 6 -5 44 -9 82 -9 39 0 73 -4 77 -10 5 -6 8 -5 8 4 0 11 3 11 15
1 11 -9 15 -9 15 -1 0 7 5 9 13 4 20 -13 41 -13 49 0 5 8 8 8 8 1 0 -6 19 -12
43 -13 96 -5 127 -8 133 -14 4 -3 15 -2 25 3 11 6 20 6 23 1 4 -5 18 -8 34 -6
15 2 31 0 36 -3 5 -3 26 -6 45 -6 20 -1 41 -4 46 -7 6 -3 27 -5 48 -4 20 0 37
-4 37 -10 0 -5 5 -3 10 5 7 11 10 11 10 2 0 -7 4 -10 10 -7 5 3 19 1 30 -5 11
-6 20 -7 20 -1 0 5 9 7 20 4 11 -3 20 -9 20 -15 0 -5 9 -4 20 2 11 6 20 7 20
2 0 -5 12 -8 28 -7 15 1 32 -1 37 -4 6 -3 15 -6 20 -8 6 -1 20 -4 32 -7 17 -4
20 -1 16 12 -4 9 -8 11 -10 5 -3 -7 -11 -5 -24 8 -10 10 -28 19 -39 19 -11 0
-20 5 -20 10 0 6 -9 10 -20 10 -11 0 -20 5 -20 11 0 5 -4 8 -9 4 -5 -3 -12 -1
-16 5 -4 6 -11 8 -16 5 -5 -4 -9 -1 -9 4 0 6 -6 11 -13 11 -19 0 -67 24 -67
33 0 5 -4 6 -9 3 -4 -3 -31 6 -60 19 -28 14 -58 25 -66 25 -8 0 -15 5 -15 10
0 6 -9 10 -21 10 -11 0 -35 10 -52 22 -17 12 -27 16 -23 9 4 -6 -9 -3 -30 8
-20 11 -41 18 -46 15 -4 -3 -8 0 -8 6 0 6 -4 8 -10 5 -5 -3 -10 -1 -10 5 0 6
-4 8 -10 5 -5 -3 -10 -2 -10 4 0 6 -7 8 -15 5 -8 -4 -15 -1 -15 6 0 6 -4 9 -9
5 -5 -3 -12 -1 -16 5 -4 6 -10 8 -15 5 -5 -3 -11 -1 -15 5 -3 5 -17 10 -31 10
-13 0 -24 5 -24 12 0 6 -3 9 -6 5 -4 -3 -19 0 -35 9 -16 8 -29 12 -29 9 0 -3
-13 1 -29 9 -16 9 -31 12 -35 9 -3 -4 -6 0 -6 7 0 7 -3 11 -6 7 -4 -3 -21 0
-39 8 -19 7 -36 11 -39 7 -3 -3 -6 1 -6 8 0 7 -3 11 -6 7 -4 -3 -22 0 -40 8
-19 8 -34 12 -34 10 0 -2 -20 4 -45 15 -25 11 -45 16 -45 13 0 -4 -5 -2 -12 5
-7 7 -25 12 -40 12 -15 0 -28 4 -28 8 0 5 -6 9 -12 10 -7 0 -20 3 -28 5 -8 2
-34 8 -57 12 -24 4 -41 10 -39 14 3 4 -3 7 -12 8 -39 3 -62 8 -62 13 0 3 -17
6 -37 8 -20 1 -39 6 -43 10 -3 4 -18 9 -35 11 -16 1 -32 6 -35 10 -3 3 -14 7
-25 8 -31 3 -49 8 -64 17 -9 6 -12 5 -7 -2 4 -7 -4 -6 -20 3 -15 7 -32 11 -39
9 -7 -3 -16 0 -20 5 -3 6 -11 9 -16 6 -5 -4 -9 -1 -9 6 0 8 -4 8 -15 -1 -12
-10 -15 -10 -15 0 0 8 -3 10 -7 7 -3 -4 -13 -1 -21 6 -13 10 -14 9 -7 -3 7
-12 6 -13 -6 -4 -8 6 -32 15 -54 19 -22 4 -51 9 -65 12 -14 2 -33 5 -42 6 -10
1 -18 5 -18 9 0 4 -7 5 -15 2 -8 -4 -21 -2 -28 3 -6 5 -24 9 -39 8 -16 0 -28
2 -28 5 0 3 -15 6 -33 7 -44 4 -60 7 -76 17 -10 7 -12 5 -6 -3 6 -10 3 -11
-13 -2 -11 6 -32 11 -46 11 -13 0 -27 6 -29 13 -4 9 -6 9 -6 -1 -1 -7 -5 -11
-10 -7 -6 3 -29 8 -53 11 -24 4 -48 10 -54 15 -6 5 -15 4 -21 -2 -7 -7 -13 -8
-17 0 -4 5 -14 7 -22 4 -9 -3 -20 0 -25 8 -7 11 -9 11 -9 1 0 -7 -5 -10 -10
-7 -6 4 -28 8 -48 10 -20 2 -50 7 -65 10 -22 4 -27 3 -21 -7 6 -10 4 -10 -9 0
-9 8 -36 15 -59 16 -24 1 -49 6 -57 10 -10 7 -12 5 -6 -5 8 -12 6 -12 -8 0
-14 11 -17 11 -17 0 0 -9 -3 -10 -8 -3 -6 9 -59 16 -144 18 -16 0 -28 4 -28 8
0 4 -11 3 -25 -2 -15 -6 -26 -6 -30 0 -4 6 -17 10 -31 10 -18 0 -23 -4 -18
-12 6 -10 4 -10 -7 -2 -8 6 -21 12 -29 12 -117 6 -161 10 -167 15 -3 4 -12 2
-20 -4 -10 -9 -13 -8 -13 2 0 9 -3 10 -8 4 -10 -14 -32 -17 -32 -4 0 8 -6 7
-17 -2 -9 -8 -14 -9 -10 -3 5 8 -4 11 -31 9 -20 -2 -39 -4 -42 -5 -3 -2 -9 -1
-15 0 -34 9 -145 6 -145 -4 0 -7 -3 -7 -8 -1 -11 16 -44 18 -53 3 -5 -7 -9 -8
-9 -2 0 7 -22 11 -55 12 -39 0 -53 -3 -48 -11 5 -9 3 -9 -8 -1 -11 8 -72 12
-81 4 -9 -7 -50 -5 -54 2 -3 5 -12 4 -19 -2 -9 -8 -15 -8 -20 0 -4 7 -13 7
-27 -1 -16 -8 -19 -8 -13 1 6 9 2 9 -14 1 -14 -8 -21 -8 -21 -1 0 7 -6 8 -17
2 -22 -10 -54 -10 -72 2 -10 7 -12 6 -6 -4z"/>
</g>
</svg>
